<svg width="35" height="36" viewBox="0 0 35 36" fill="none" xmlns="http://www.w3.org/2000/svg">
<path fill-rule="evenodd" clip-rule="evenodd" d="M35 0.5H0V10.0001H4.03651C4.71974 9.99343 5.3821 10.2349 5.90014 10.6795C6.41818 11.1242 6.75655 11.7416 6.85217 12.4168C7.03044 13.7657 7.36104 15.0902 7.83766 16.365C8.02707 16.8679 8.06807 17.4144 7.95578 17.9399C7.8435 18.4653 7.58265 18.9476 7.20413 19.3296L5.41619 21.114C7.42031 24.6316 10.3386 27.5441 13.8632 29.5443L15.6511 27.7599C16.0339 27.3821 16.5172 27.1218 17.0436 27.0097C17.5701 26.8977 18.1178 26.9386 18.6217 27.1276C19.8989 27.6033 21.226 27.9332 22.5777 28.1111C23.2615 28.2074 23.8861 28.5512 24.3326 29.0771C24.779 29.603 25.0163 30.2743 24.9991 30.9634V35.1785C24.9996 35.2861 24.9938 35.3935 24.982 35.5H35V0.5ZM13.0665 35.5C11.9344 34.9678 10.8364 34.3585 9.78047 33.6751C6.3789 31.5179 3.49497 28.6397 1.33347 25.2449C0.851825 24.5028 0.407003 23.74 0 22.9592V35.5H13.0665Z" fill="#3C3B6E"/>
</svg>
