<svg width="530" height="589" viewBox="0 0 530 589" fill="none" xmlns="http://www.w3.org/2000/svg">
<path opacity="0.7" d="M48.4915 184.213C48.4915 184.213 14.0108 273.247 62.4669 362.924C110.911 452.614 210.729 499.957 290.611 540.46C370.493 580.964 453.442 561.238 492.858 494.898C532.273 428.559 478.202 381.203 478.14 286.604C478.078 192.005 492.301 166.96 441.087 87.0414C389.873 7.12227 264.157 -10.5757 169.125 48.702C74.0924 107.98 48.4915 184.213 48.4915 184.213Z" fill="white"/>
<path d="M85.3472 81.1793C85.5822 80.969 85.8048 80.7588 86.0397 80.5485C149.819 23.126 234.525 20.5288 296.239 82.3542C328.407 114.572 385.52 108.413 426.382 120.063C567.273 160.245 542.909 351.41 473.317 443.808C410.515 527.19 274.435 546.038 183.014 505.003C102.674 468.951 46.1049 388.414 25.9706 304.203C23.9547 295.756 22.285 287.223 21.0236 278.64C10.4369 206.945 30.7816 130.798 85.3472 81.1793Z" fill="#F6F6F8"/>
<path d="M1 523.059C1 523.059 11.7598 502.021 36.2228 505.93C36.2228 505.93 39.6486 496.629 50.4084 498.101C50.4084 498.101 44.0514 480.49 60.6858 467.281C77.3201 454.072 99.8909 465.327 99.8909 465.327C99.8909 465.327 98.481 455.47 107.72 451.834L250.07 456.571C250.07 456.571 265.69 460.924 269.116 475.604C269.116 475.604 282.819 467.776 299.936 475.604C317.065 483.433 317.065 502.999 317.065 502.999C317.065 502.999 336.507 501.044 338.139 527.598C338.139 527.598 350.42 512.076 368.477 527.598" fill="white"/>
<path d="M1 523.059C1 523.059 11.7598 502.021 36.2228 505.93C36.2228 505.93 39.6486 496.629 50.4084 498.101C50.4084 498.101 44.0514 480.49 60.6858 467.281C77.3201 454.072 99.8909 465.327 99.8909 465.327C99.8909 465.327 98.481 455.47 107.72 451.834L250.07 456.571C250.07 456.571 265.69 460.924 269.116 475.604C269.116 475.604 282.819 467.776 299.936 475.604C317.065 483.433 317.065 502.999 317.065 502.999C317.065 502.999 336.507 501.044 338.139 527.598C338.139 527.598 350.42 512.076 368.477 527.598" stroke="#263238" stroke-miterlimit="10" stroke-linecap="round" stroke-linejoin="round"/>
<path d="M45.5239 531.37C45.1653 532.137 44.8437 532.953 44.5469 533.819" stroke="#263238" stroke-miterlimit="10" stroke-linecap="round" stroke-linejoin="round"/>
<path d="M103.206 482.753C99.1003 484.385 95.0314 487.638 92.0013 493.698C92.0013 493.698 83.7769 490.149 79.2751 496.629C74.8723 502.986 82.2062 509.838 82.2062 509.838C82.2062 509.838 71.9288 511.792 71.4465 521.092C71.4465 521.092 60.9464 518.087 52.623 523.17" stroke="#263238" stroke-miterlimit="10" stroke-linecap="round" stroke-linejoin="round"/>
<path d="M112.43 481.33C110.897 481.256 109.239 481.306 107.508 481.578" stroke="#263238" stroke-miterlimit="10" stroke-linecap="round" stroke-linejoin="round"/>
<path d="M207.104 462.717L203.777 451.834H154.629L146.182 470.707C146.182 470.707 124.786 464.35 120.383 482.938C120.383 482.938 119.653 482.642 118.404 482.295" stroke="#263238" stroke-miterlimit="10" stroke-linecap="round" stroke-linejoin="round"/>
<path d="M269.426 490.878C262.846 494.885 261.3 502.504 261.3 502.504C255.438 492.721 245.631 498.596 245.631 498.596C245.631 498.596 244.159 481.466 232.904 475.11C221.65 468.753 210.099 472.549 210.099 472.549L208.145 466.143" stroke="#263238" stroke-miterlimit="10" stroke-linecap="round" stroke-linejoin="round"/>
<path d="M310.781 523.207C307.194 519.905 301.888 520.128 301.888 520.128C301.888 520.128 308.245 496.16 286.726 489.79C280.295 487.886 275.434 488.257 271.773 489.716" stroke="#263238" stroke-miterlimit="10" stroke-linecap="round" stroke-linejoin="round"/>
<path d="M314.01 531.37C313.998 529.935 313.8 528.686 313.479 527.585" stroke="#263238" stroke-miterlimit="10" stroke-linecap="round" stroke-linejoin="round"/>
<path d="M253.398 456.558H203.779L216.147 433.431H241.03L253.398 456.558Z" fill="#3C3B6E" stroke="#3C3B6E" stroke-miterlimit="10" stroke-linecap="round" stroke-linejoin="round"/>
<path opacity="0.1" d="M253.398 456.558H203.779L216.147 433.431H241.03L253.398 456.558Z" fill="white" stroke="#3C3B6E" stroke-miterlimit="10" stroke-linecap="round" stroke-linejoin="round"/>
<path d="M149.511 456.558H99.8926L112.26 433.431H137.144L149.511 456.558Z" fill="#3C3B6E" stroke="#3C3B6E" stroke-miterlimit="10" stroke-linecap="round" stroke-linejoin="round"/>
<path opacity="0.1" d="M149.511 456.558H99.8926L112.26 433.431H137.144L149.511 456.558Z" fill="white" stroke="#3C3B6E" stroke-miterlimit="10" stroke-linecap="round" stroke-linejoin="round"/>
<path d="M210.111 456.558H143.178L155.545 433.431H197.743L210.111 456.558Z" fill="#3C3B6E" stroke="#3C3B6E" stroke-miterlimit="10" stroke-linecap="round" stroke-linejoin="round"/>
<path d="M250.07 435.089H207.105V208.701C207.105 182.234 214.551 156.312 228.588 133.877C242.625 156.312 250.07 182.234 250.07 208.701V435.089Z" fill="#3C3B6E"/>
<path opacity="0.3" d="M249.922 202.665C250.008 204.669 250.07 206.684 250.07 208.7V435.088H207.105V208.7C207.105 206.684 207.155 204.669 207.242 202.665H249.922Z" fill="white"/>
<path opacity="0.2" d="M221.019 210.321V435.089H207.105V208.701C207.105 191.968 210.086 175.445 215.825 159.886C219.275 176.471 221.019 193.365 221.019 210.321Z" fill="black"/>
<path opacity="0.2" d="M250.07 208.701V435.089H244.295V211.162C244.295 184.609 238.952 158.315 228.588 133.877C235.6 145.094 240.98 157.177 244.591 169.768C248.215 182.37 250.07 195.467 250.07 208.701Z" fill="black"/>
<path d="M250.07 435.089H207.105V208.701C207.105 182.234 214.551 156.312 228.588 133.877C242.625 156.312 250.07 182.234 250.07 208.701V435.089Z" stroke="#263238" stroke-miterlimit="10" stroke-linecap="round" stroke-linejoin="round"/>
<path d="M146.184 435.089H103.219V208.701C103.219 182.234 110.664 156.312 124.701 133.877C138.738 156.312 146.184 182.234 146.184 208.701V435.089Z" fill="#3C3B6E"/>
<path opacity="0.3" d="M146.01 202.183C146.109 204.347 146.184 206.524 146.184 208.701V435.089H103.219V208.701C103.219 206.524 103.293 204.347 103.392 202.183H146.01Z" fill="white"/>
<path opacity="0.2" d="M140.705 169.768C144.329 182.37 146.184 195.468 146.184 208.701V435.089H132.258V210.321C132.258 200.353 132.864 190.385 134.063 180.503C134.892 173.589 136.03 166.713 137.465 159.886C138.664 163.139 139.753 166.429 140.705 169.768Z" fill="black"/>
<path opacity="0.2" d="M124.701 133.877C114.325 158.315 108.982 184.609 108.982 211.162V435.089H103.219V208.701C103.219 182.234 110.664 156.299 124.701 133.877Z" fill="black"/>
<path d="M146.184 435.089H103.219V208.701C103.219 182.234 110.664 156.312 124.701 133.877C138.738 156.312 146.184 182.234 146.184 208.701V435.089Z" stroke="#263238" stroke-miterlimit="10" stroke-linecap="round" stroke-linejoin="round"/>
<path d="M249.923 202.504H207.602" stroke="#263238" stroke-miterlimit="10" stroke-linecap="round" stroke-linejoin="round"/>
<path d="M207.098 250.401H250.062V247.185H207.098V250.401Z" stroke="#263238" stroke-miterlimit="10" stroke-linecap="round" stroke-linejoin="round"/>
<path d="M207.103 341.783H249.92V333.633H207.103V341.783Z" stroke="#263238" stroke-miterlimit="10" stroke-linecap="round" stroke-linejoin="round"/>
<path d="M103.354 202.504H145.688" stroke="#263238" stroke-miterlimit="10" stroke-linecap="round" stroke-linejoin="round"/>
<path d="M146.184 247.188H103.219V250.404H146.184V247.188Z" stroke="#263238" stroke-miterlimit="10" stroke-linecap="round" stroke-linejoin="round"/>
<path d="M146.17 333.625H103.354V341.775H146.17V333.625Z" stroke="#263238" stroke-miterlimit="10" stroke-linecap="round" stroke-linejoin="round"/>
<path d="M207.599 435.089H145.688V108.833C145.688 70.7035 156.41 33.3288 176.643 1C196.877 33.3288 207.599 70.6911 207.599 108.833V435.089Z" fill="#B22234"/>
<path opacity="0.2" d="M207.019 93.5586H146.27C148.731 60.7722 159.119 29.0123 176.644 1.01221C186.761 17.1766 194.503 34.6025 199.71 52.7457C203.519 66.0284 205.98 79.7069 207.019 93.5586Z" fill="black" fill-opacity="0.7"/>
<g opacity="0.2">
<path opacity="0.7" d="M187.885 435.088H165.389V118.962C165.389 82.0073 169.284 45.8075 176.631 14.4805C183.977 45.8075 187.873 82.0073 187.873 118.962V435.088H187.885Z" fill="white"/>
</g>
<path opacity="0.2" d="M206.958 382.564V435.089H146.184V382.712C150.042 378.878 152.145 375.502 152.145 375.502C152.145 375.502 152.145 325.104 152.145 303.349C152.145 278.392 162.101 264.614 176.645 264.614C191.189 264.614 201.145 278.404 201.145 303.349C201.145 325.092 201.145 375.502 201.145 375.502C201.145 375.502 203.186 378.804 206.958 382.564Z" fill="black"/>
<path d="M207.599 435.089H145.688V108.833C145.688 70.7035 156.41 33.3288 176.643 1C196.877 33.3288 207.599 70.6911 207.599 108.833V435.089Z" stroke="#263238" stroke-miterlimit="10" stroke-linecap="round" stroke-linejoin="round"/>
<path d="M207.599 147.382H145.688V155.706H207.599V147.382Z" stroke="#263238" stroke-miterlimit="10" stroke-linecap="round" stroke-linejoin="round"/>
<path d="M207.599 219.794H145.688V250.404H207.599V219.794Z" stroke="#263238" stroke-miterlimit="10" stroke-linecap="round" stroke-linejoin="round"/>
<path d="M207.599 364.853H145.688V389.563H207.599V364.853Z" stroke="#263238" stroke-miterlimit="10" stroke-linecap="round" stroke-linejoin="round"/>
<path d="M198.682 378.68V344.991H191.83V372.274V390.664V427.334H225.754V411.961C225.754 408.003 223.862 404.293 220.671 401.956L204.532 390.182C200.858 387.498 198.682 383.231 198.682 378.68Z" fill="#3C3B6E" stroke="#263238" stroke-miterlimit="10" stroke-linecap="round" stroke-linejoin="round"/>
<path d="M154.592 378.68V344.991H161.444V372.274V390.664V427.334H127.52V411.961C127.52 408.003 129.412 404.293 132.603 401.956L148.742 390.182C152.428 387.498 154.592 383.231 154.592 378.68Z" fill="#3C3B6E" stroke="#263238" stroke-miterlimit="10" stroke-linecap="round" stroke-linejoin="round"/>
<path d="M127.52 420.148H225.755" stroke="#263238" stroke-miterlimit="10" stroke-linecap="round" stroke-linejoin="round"/>
<path d="M187.465 435.089H165.81L162.1 424.316H191.176L187.465 435.089Z" fill="#3C3B6E" stroke="#263238" stroke-miterlimit="10" stroke-linecap="round" stroke-linejoin="round"/>
<path d="M198.78 303.51V427.322H154.752V303.51C154.752 294.828 156.793 286.319 160.676 278.664C162.247 275.535 164.127 272.554 166.291 269.747C168.938 266.321 172.858 264.614 176.766 264.614C180.674 264.614 184.595 266.321 187.241 269.747C189.406 272.554 191.286 275.535 192.856 278.664C194.007 280.927 194.996 283.265 195.812 285.664C197.766 291.378 198.78 297.401 198.78 303.51Z" fill="white"/>
<path opacity="0.3" d="M198.657 303.51V427.322H187.774V306.738C187.774 300.789 187.267 294.915 186.29 289.349C185.882 287.012 185.387 284.736 184.806 282.535C184.027 279.48 183.087 276.586 181.998 273.853C180.675 270.514 178.721 268.844 176.767 268.844C174.813 268.844 172.846 270.514 171.523 273.853C170.447 276.586 169.507 279.48 168.716 282.535C166.774 289.992 165.76 298.279 165.76 306.738V427.322H154.629V303.51C154.629 294.828 156.67 286.319 160.553 278.664C162.124 275.535 164.004 272.554 166.168 269.747C168.814 266.321 172.735 264.614 176.643 264.614C180.551 264.614 184.472 266.321 187.118 269.747C189.283 272.554 191.163 275.535 192.733 278.664C193.883 280.927 194.873 283.265 195.689 285.664C197.643 291.378 198.657 297.401 198.657 303.51Z" fill="#3C3B6E"/>
<path d="M198.78 303.51V427.322H154.752V303.51C154.752 294.828 156.793 286.319 160.676 278.664C162.247 275.535 164.127 272.554 166.291 269.747C168.938 266.321 172.858 264.614 176.766 264.614C180.674 264.614 184.595 266.321 187.241 269.747C189.406 272.554 191.286 275.535 192.856 278.664C194.007 280.927 194.996 283.265 195.812 285.664C197.766 291.378 198.78 297.401 198.78 303.51Z" stroke="#263238" stroke-miterlimit="10" stroke-linecap="round" stroke-linejoin="round"/>
<path d="M180.763 408.688C180.523 408.911 179.888 409.615 179.665 410.628L173.338 410.611L173.286 410.559C173.458 410.387 174.435 409.237 174.435 408.001C174.435 406.696 173.458 406.25 173.252 406.25V406.267C173.663 407.795 172.377 409.048 172.069 409.357C172.034 409.392 172.034 409.443 172.069 409.477L173.08 410.851C173.08 410.851 173.715 411.606 174.092 412.482H179.957C180.077 412.757 180.523 413.031 180.763 412.997C180.78 412.997 180.797 412.98 180.78 412.963C180.42 411.452 181.654 410.181 181.98 409.889C181.997 409.855 182.014 409.804 181.98 409.769C181.98 409.769 180.385 407.898 179.974 406.85C179.957 406.799 179.905 406.765 179.854 406.765C179.768 406.765 179.7 406.85 179.717 406.936C179.888 407.623 180.763 408.688 180.763 408.688ZM180.128 398.473C180.111 398.49 180.111 398.524 180.128 398.541C180.317 398.799 180.317 399.091 180.111 399.331L179.888 399.589H174.212C174.092 399.297 173.903 399.005 173.663 398.713C173.663 398.696 173.612 398.679 173.612 398.679C173.903 400.482 172 402.233 172 402.233C172 402.233 173.852 404.327 174.126 405.306C174.126 405.306 175.841 405.031 175.961 405.529C175.978 405.529 175.978 405.529 175.996 405.529C176.27 404.928 176.321 403.143 173.423 403.555C173.338 403.435 173.269 403.383 173.269 403.383C173.509 403.16 174.212 402.439 174.435 401.443H175.567L177.985 405.358C178.07 405.306 178.173 405.289 178.276 405.289H179.888C180.025 405.564 180.471 405.838 180.694 405.804C180.711 405.804 180.728 405.787 180.728 405.77C180.368 404.259 181.603 402.988 181.912 402.679C181.946 402.662 181.946 402.611 181.929 402.576L180.917 401.203L181.946 400.035C181.997 399.984 181.98 399.898 181.929 399.846L180.214 398.456C180.18 398.438 180.145 398.438 180.128 398.473ZM180.643 401.426L180.694 401.495C180.454 401.718 179.837 402.422 179.614 403.435H177.505C177.282 403.435 177.093 403.314 176.973 403.126L175.927 401.443L180.643 401.426ZM180.162 394.437C180.3 394.797 180.351 395.072 180.128 395.329L179.905 395.587H173.355L173.303 395.518C173.543 395.295 174.298 394.66 174.298 393.75C174.298 393.012 173.852 392.102 173.029 391.724C173.012 391.707 172.977 391.724 172.995 391.741C173.509 393.355 172.034 394.368 172.034 394.368L172.926 395.587C172.532 396.445 172.034 396.823 172.034 396.823L173.629 398.008C173.629 398.008 173.886 397.785 174.126 397.441H180.008C180.3 397.802 180.66 398.008 180.66 398.008C180.505 397.802 181.106 397.029 181.5 396.566L181.963 396.05C182.014 395.982 182.014 395.896 181.946 395.844L180.197 394.385L180.162 394.437ZM175.738 386.958L173.818 385.241C173.526 384.983 173.235 385 173.235 385C173.646 386.528 172.377 387.833 172.069 388.142C172.034 388.177 172.017 388.228 172.051 388.262L173.063 389.636C173.063 389.636 173.715 390.391 174.092 391.267H176.939C176.956 390.58 177.573 389.653 178.293 389.31L180.214 391.044C180.523 391.301 180.797 391.267 180.797 391.267C180.385 389.739 181.654 388.434 181.98 388.125C181.997 388.091 182.014 388.039 181.98 388.005L180.968 386.631C180.968 386.631 180.317 385.876 179.94 385H177.11C177.076 385.687 176.476 386.614 175.738 386.958ZM175.875 389.413L173.32 389.396L173.269 389.344C173.509 389.121 174.144 388.4 174.366 387.404C174.366 387.404 174.521 386.666 174.264 385.927L176.767 388.108C176.527 388.297 176.184 388.606 175.875 389.413ZM180.711 386.855L180.763 386.923C180.523 387.146 179.888 387.868 179.665 388.863C179.665 388.863 179.494 389.602 179.768 390.34L177.264 388.159C177.522 387.971 177.865 387.661 178.156 386.855H180.711Z" fill="#3C3B6E"/>
<path d="M181.106 375.599C181.248 375.958 181.301 376.231 181.071 376.488L180.841 376.744C180.841 376.744 179.445 376.744 175.08 376.744C174.938 376.453 174.726 376.18 174.443 375.941C174.426 375.941 174.39 375.923 174.39 375.923C174.691 377.701 172.729 379.376 172.729 379.376L173.648 380.59C172.393 380.59 171.845 380.59 170.944 380.59C170.591 380.333 170.202 380.18 170.202 380.18C169.813 381.325 169 381.821 169 381.821L170.644 383C170.644 383 170.909 382.778 171.156 382.436C172.287 382.436 180.947 382.436 180.947 382.436C181.248 382.795 181.619 383 181.619 383C181.46 382.795 182.078 382.026 182.485 381.564L182.962 381.051C183.015 380.983 183.015 380.898 182.944 380.846L181.142 379.393L181.106 379.445C181.248 379.804 181.301 380.077 181.071 380.333L180.841 380.59C180.841 380.59 177.324 380.59 174.09 380.59L174.037 380.522C174.284 380.299 175.062 379.581 175.292 378.59C179.887 378.59 180.594 378.59 180.594 378.59H180.947C181.248 378.949 181.619 379.154 181.619 379.154C181.46 378.949 182.078 378.18 182.485 377.718L182.962 377.205C183.015 377.137 183.015 377.052 182.944 377L181.142 375.547L181.106 375.599ZM181.071 367.805C181.053 367.822 181.053 367.857 181.071 367.874C181.265 368.13 181.265 368.421 181.053 368.66L180.823 368.916H174.974C174.85 368.626 174.655 368.335 174.408 368.045C174.408 368.028 174.355 368.011 174.355 368.011C174.655 369.805 172.694 371.549 172.694 371.549C172.694 371.549 174.602 373.634 174.885 374.608C174.885 374.608 176.653 374.335 176.776 374.831C176.794 374.831 176.794 374.831 176.812 374.831C177.094 374.232 177.147 372.455 174.161 372.865C174.072 372.745 174.002 372.694 174.002 372.694C174.249 372.472 174.974 371.754 175.203 370.762H176.37L178.862 374.66C178.95 374.608 179.056 374.591 179.162 374.591H180.823C180.965 374.865 181.424 375.138 181.654 375.104C181.672 375.104 181.689 375.087 181.689 375.07C181.318 373.566 182.591 372.301 182.909 371.993C182.944 371.976 182.944 371.925 182.927 371.891L181.884 370.523L182.944 369.361C182.997 369.31 182.98 369.224 182.927 369.173L181.159 367.788C181.124 367.771 181.089 367.771 181.071 367.805ZM181.601 370.745L181.654 370.814C181.407 371.036 180.77 371.737 180.541 372.745H178.367C178.137 372.745 177.943 372.626 177.819 372.438L176.741 370.762L181.601 370.745ZM181.106 359.941C181.248 360.3 181.301 360.574 181.071 360.813L180.841 361.086H180.788H180.77C180.77 361.086 180.77 361.086 180.753 361.086C180.435 361.086 175.875 361.086 174.673 361.086C174.302 360.83 173.913 360.659 173.913 360.659C173.542 361.804 172.729 362.3 172.729 362.3L174.373 363.497C174.373 363.497 174.638 363.257 174.885 362.932C176.087 362.932 181.654 362.932 181.654 362.932C181.689 362.967 181.707 363.001 181.707 363.001C181.46 363.206 180.823 363.924 180.594 364.915C180.594 364.915 175.875 364.915 174.673 364.915C174.302 364.676 173.913 364.505 173.913 364.505C173.542 365.65 172.729 366.146 172.729 366.146L174.373 367.342C174.373 367.342 174.638 367.103 174.885 366.761C175.999 366.761 180.876 366.761 180.876 366.761C181.018 367.052 181.477 367.308 181.707 367.291C181.725 367.291 181.742 367.274 181.742 367.257C181.371 365.753 182.644 364.488 182.962 364.18C182.997 364.163 182.997 364.112 182.98 364.061C182.98 364.061 182.449 363.479 181.919 362.762C182.096 362.522 182.308 362.266 182.485 362.061L182.962 361.531C183.015 361.48 183.015 361.394 182.944 361.343L181.142 359.89L181.106 359.941ZM181.106 355.908C181.248 356.267 181.301 356.541 181.071 356.797L180.841 357.054C180.841 357.054 174.196 357.054 170.944 357.054C170.591 356.797 170.202 356.643 170.202 356.643C169.813 357.789 169 358.284 169 358.284L170.644 359.464C170.644 359.464 170.909 359.241 171.156 358.9C174.125 358.9 180.594 358.9 180.594 358.9H180.947C181.248 359.259 181.619 359.464 181.619 359.464C181.46 359.259 182.078 358.489 182.485 358.028L182.962 357.515C183.015 357.447 183.015 357.361 182.944 357.31L181.142 355.857L181.106 355.908ZM174.638 349.049C174.373 348.792 174.072 348.69 173.984 348.69V348.707C174.408 350.228 173.083 351.476 172.764 351.783C172.729 351.818 172.729 351.869 172.764 351.903L173.807 353.253C173.807 353.253 174.461 354.023 174.85 354.894H180.894C181.018 355.168 181.477 355.441 181.725 355.407C181.742 355.407 181.76 355.39 181.742 355.373C181.371 353.869 182.644 352.604 182.98 352.296C182.997 352.279 183.015 352.228 182.98 352.194C182.98 352.194 181.336 350.33 180.912 349.288C180.894 349.237 180.841 349.202 180.788 349.202C180.7 349.202 180.629 349.288 180.647 349.373C180.823 350.057 181.725 351.117 181.725 351.117C181.477 351.339 180.823 352.04 180.594 353.048H179.233L174.638 349.049ZM174.019 352.98C174.196 352.809 175.203 351.664 175.203 350.433C175.203 350.228 175.186 350.057 175.15 349.903L178.756 353.048L174.072 353.031L174.019 352.98ZM181.106 344.708C181.248 345.067 181.301 345.34 181.071 345.597L180.841 345.853H174.09L174.037 345.785C174.284 345.562 175.062 344.93 175.062 344.024C175.062 343.289 174.602 342.383 173.754 342.007C173.736 341.99 173.701 342.007 173.719 342.024C174.249 343.631 172.729 344.639 172.729 344.639L173.648 345.853C173.242 346.708 172.729 347.084 172.729 347.084L174.373 348.263C174.373 348.263 174.638 348.041 174.885 347.699H180.947C181.248 348.058 181.619 348.263 181.619 348.263C181.46 348.058 182.078 347.289 182.485 346.827L182.962 346.315C183.015 346.246 183.015 346.161 182.944 346.109L181.142 344.656L181.106 344.708Z" fill="#3C3B6E"/>
<path d="M185.896 302.076C182.297 291.118 170.993 291.118 167.394 302.076C166.046 301.235 164.686 300.394 163.338 299.565C168.508 283.809 184.783 283.809 189.953 299.565C188.592 300.394 187.244 301.235 185.896 302.076Z" fill="white"/>
<path d="M185.896 302.076C182.297 291.118 170.993 291.118 167.394 302.076C166.046 301.235 164.686 300.394 163.338 299.565C168.508 283.809 184.783 283.809 189.953 299.565C188.592 300.394 187.244 301.235 185.896 302.076Z" fill="#BFBFBF" stroke="#263238" stroke-miterlimit="10"/>
<path d="M192.735 278.664H160.555C162.125 275.535 164.005 272.554 166.17 269.747C168.816 266.321 172.737 264.614 176.645 264.614C180.553 264.614 184.474 266.321 187.12 269.747C189.285 272.554 191.164 275.535 192.735 278.664Z" fill="#3C3B6E" stroke="#263238" stroke-miterlimit="10" stroke-linecap="round" stroke-linejoin="round"/>
<path d="M358.371 436.647C358.866 456.41 349.083 454.815 349.083 454.815C348.477 453.182 347.08 450.931 345.398 448.322C340.278 440.443 332.437 429.399 335.38 422.857C336.716 419.889 339.214 415.745 341.923 411.578C347.166 403.539 353.189 395.413 353.189 395.413L327.069 391.085C327.069 391.085 308.468 398.777 293.788 399.668C293.405 399.692 293.021 399.705 292.65 399.705C279.244 399.964 281.408 389.452 281.408 386.063C281.408 384.616 285.032 381.97 289.274 379.36C295.322 375.65 302.656 372.001 302.656 372.001L298.686 363.777C295.928 364.272 293.64 364.371 291.747 364.148C281.581 363.035 282.979 353.03 284.624 348.664C285.094 347.415 287.431 345.523 290.733 343.346C301.184 336.457 321.195 326.86 321.195 326.86H350.543L379.421 405.691C379.421 405.691 357.889 416.883 358.371 436.647Z" fill="white"/>
<path opacity="0.4" d="M358.371 436.647C358.866 456.41 349.083 454.815 349.083 454.815C348.477 453.182 347.08 450.931 345.398 448.322C340.278 440.443 332.437 429.399 335.38 422.857C336.716 419.889 339.214 415.745 341.923 411.578C347.166 403.539 353.189 395.413 353.189 395.413L327.069 391.085C327.069 391.085 308.468 398.777 293.788 399.668C293.405 399.692 293.021 399.705 292.65 399.705C279.244 399.964 281.408 389.452 281.408 386.063C281.408 384.616 285.032 381.97 289.274 379.36C295.322 375.65 302.656 372.001 302.656 372.001L298.686 363.777C295.928 364.272 293.64 364.371 291.747 364.148C281.581 363.035 282.979 353.03 284.624 348.664C285.094 347.415 287.431 345.523 290.733 343.346C301.184 336.457 321.195 326.86 321.195 326.86H350.543L379.421 405.691C379.421 405.691 357.889 416.883 358.371 436.647Z" fill="#3C3B6E"/>
<path opacity="0.4" d="M358.373 436.647C358.868 456.41 349.085 454.815 349.085 454.815C348.479 453.182 347.081 450.931 345.399 448.322C345.746 446.491 345.968 444.512 345.931 442.571C345.807 435.806 340.254 422.857 340.254 422.857L345.931 413.878C345.102 413.025 343.68 412.258 341.924 411.578C347.168 403.539 353.191 395.413 353.191 395.413L327.071 391.085C327.071 391.085 308.47 398.777 293.79 399.668C293.406 399.692 293.023 399.705 292.652 399.705C293.505 392.346 290.599 383.07 289.275 379.36C295.323 375.65 302.657 372.001 302.657 372.001L298.687 363.777C295.929 364.272 293.641 364.371 291.749 364.148C293.085 357.729 291.811 348.825 290.735 343.346C301.185 336.457 321.196 326.86 321.196 326.86H350.544L379.422 405.691C379.422 405.691 357.891 416.883 358.373 436.647Z" fill="#3C3B6E"/>
<path d="M350.544 326.86H321.183C321.183 326.86 286.567 343.469 284.613 348.664C282.658 353.858 281.063 366.955 298.674 363.789L302.644 372.014C302.644 372.014 281.397 382.576 281.397 386.076C281.397 389.576 279.109 400.558 293.777 399.68C308.457 398.802 327.046 391.097 327.046 391.097L353.166 395.426C353.166 395.426 339.277 414.162 335.357 422.869C331.448 431.576 346.611 448.247 349.06 454.839C349.06 454.839 358.843 456.422 358.36 436.659C357.866 416.896 379.397 405.703 379.397 405.703" stroke="#263238" stroke-miterlimit="10" stroke-linecap="round" stroke-linejoin="round"/>
<path d="M343.594 419.332C343.594 419.332 350.952 415.213 354.96 422.856" stroke="#263238" stroke-miterlimit="10" stroke-linecap="round" stroke-linejoin="round"/>
<path d="M357.853 268.844H352.053V208.614C352.053 207.786 352.721 207.118 353.549 207.118H356.357C357.185 207.118 357.853 207.786 357.853 208.614V268.844Z" fill="#263238"/>
<path d="M356.754 142.299H353.143V210.085H356.754V142.299Z" fill="#263238"/>
<path d="M357.295 135.583H352.596V144.773H357.295V135.583Z" fill="#757575" stroke="#263238" stroke-miterlimit="10" stroke-linecap="round" stroke-linejoin="round"/>
<path opacity="0.3" d="M353.762 253.063V254.287" stroke="white" stroke-miterlimit="10" stroke-linecap="round" stroke-linejoin="round"/>
<path opacity="0.3" d="M356.149 208.948H353.762V250.12" stroke="white" stroke-miterlimit="10" stroke-linecap="round" stroke-linejoin="round"/>
<path opacity="0.3" d="M354.713 185.944V188.232" stroke="white" stroke-miterlimit="10" stroke-linecap="round" stroke-linejoin="round"/>
<path opacity="0.3" d="M354.713 146.813V181.22" stroke="white" stroke-miterlimit="10" stroke-linecap="round" stroke-linejoin="round"/>
<path d="M405.715 399.519H304.203C300.48 399.519 297.475 396.501 297.475 392.791V272.232C297.475 268.51 300.492 265.504 304.203 265.504H405.715C409.438 265.504 412.443 268.522 412.443 272.232V392.791C412.443 396.514 409.426 399.519 405.715 399.519Z" fill="#3C3B6E"/>
<g clip-path="url(#clip0)">
<path d="M329.276 288.646V290.436H326.709V298.377H324.592V290.436H322.025V288.646H329.276ZM332.264 294.777V298.377H330.148V288.646H333.115C333.775 288.646 334.336 288.72 334.8 288.867C335.267 289.009 335.647 289.21 335.939 289.468C336.236 289.726 336.45 290.031 336.584 290.383C336.718 290.735 336.784 291.117 336.784 291.532C336.784 291.848 336.745 292.146 336.665 292.426C336.586 292.707 336.467 292.967 336.309 293.208C336.154 293.444 335.962 293.655 335.733 293.842C335.507 294.029 335.246 294.183 334.95 294.303C335.092 294.379 335.223 294.472 335.344 294.584C335.47 294.695 335.578 294.831 335.67 294.991L337.611 298.377H335.695C335.34 298.377 335.086 298.234 334.931 297.95L333.416 295.125C333.349 295 333.27 294.911 333.178 294.857C333.09 294.804 332.965 294.777 332.802 294.777H332.264ZM332.264 293.221H333.115C333.403 293.221 333.648 293.183 333.848 293.108C334.052 293.027 334.219 292.918 334.349 292.78C334.478 292.642 334.572 292.482 334.631 292.3C334.689 292.113 334.718 291.912 334.718 291.698C334.718 291.271 334.587 290.937 334.324 290.697C334.065 290.456 333.662 290.336 333.115 290.336H332.264V293.221ZM343.021 294.677V298.377H340.905V294.677L337.599 288.646H339.465C339.648 288.646 339.794 288.693 339.903 288.787C340.011 288.876 340.099 288.991 340.166 289.134L341.456 291.966C341.56 292.193 341.656 292.402 341.744 292.593C341.831 292.785 341.909 292.974 341.975 293.161C342.038 292.97 342.113 292.778 342.201 292.587C342.288 292.395 342.382 292.188 342.482 291.966L343.76 289.134C343.785 289.076 343.818 289.018 343.86 288.96C343.906 288.902 343.956 288.851 344.01 288.807C344.069 288.758 344.133 288.72 344.204 288.693C344.279 288.662 344.361 288.646 344.448 288.646H346.327L343.021 294.677ZM357.861 298.377H356.221C356.037 298.377 355.885 298.332 355.764 298.243C355.647 298.15 355.565 298.032 355.519 297.889L354.981 296.193H351.512L350.974 297.889C350.932 298.014 350.851 298.128 350.73 298.23C350.609 298.328 350.461 298.377 350.285 298.377H348.632L352.164 288.646H354.33L357.861 298.377ZM352.001 294.657H354.493L353.654 291.992C353.599 291.823 353.535 291.625 353.46 291.398C353.389 291.166 353.318 290.917 353.247 290.65C353.18 290.922 353.111 291.173 353.04 291.405C352.969 291.636 352.902 291.836 352.84 292.006L352.001 294.657ZM362.52 296.747C362.812 296.747 363.071 296.721 363.296 296.667C363.522 296.614 363.734 296.543 363.935 296.454V294.978H363.033C362.9 294.978 362.795 294.94 362.72 294.864C362.645 294.788 362.607 294.693 362.607 294.577V293.335H365.851V297.442C365.617 297.625 365.373 297.783 365.118 297.916C364.868 298.045 364.598 298.152 364.31 298.237C364.027 298.321 363.722 298.384 363.396 298.424C363.075 298.464 362.728 298.484 362.357 298.484C361.689 298.484 361.071 298.359 360.504 298.11C359.936 297.856 359.443 297.509 359.026 297.068C358.613 296.623 358.287 296.097 358.049 295.492C357.816 294.882 357.699 294.221 357.699 293.508C357.699 292.783 357.811 292.117 358.037 291.511C358.262 290.902 358.584 290.376 359.001 289.935C359.423 289.495 359.93 289.152 360.522 288.907C361.119 288.662 361.785 288.54 362.52 288.54C362.9 288.54 363.256 288.573 363.59 288.64C363.924 288.707 364.231 288.798 364.511 288.914C364.795 289.029 365.053 289.167 365.287 289.328C365.521 289.488 365.73 289.662 365.913 289.849L365.3 290.844C365.241 290.937 365.17 291.011 365.087 291.064C365.007 291.117 364.92 291.144 364.824 291.144C364.699 291.144 364.569 291.1 364.436 291.011C364.269 290.904 364.11 290.812 363.96 290.737C363.814 290.657 363.663 290.592 363.509 290.543C363.355 290.494 363.192 290.458 363.021 290.436C362.85 290.414 362.658 290.403 362.445 290.403C362.048 290.403 361.691 290.479 361.374 290.63C361.057 290.777 360.785 290.986 360.56 291.258C360.339 291.529 360.168 291.857 360.047 292.239C359.926 292.618 359.865 293.041 359.865 293.508C359.865 294.025 359.932 294.483 360.065 294.884C360.199 295.285 360.383 295.623 360.616 295.899C360.854 296.175 361.134 296.387 361.455 296.534C361.781 296.676 362.136 296.747 362.52 296.747ZM375.629 298.377H373.989C373.805 298.377 373.653 298.332 373.532 298.243C373.415 298.15 373.334 298.032 373.288 297.889L372.749 296.193H369.281L368.742 297.889C368.7 298.014 368.619 298.128 368.498 298.23C368.377 298.328 368.229 298.377 368.053 298.377H366.401L369.932 288.646H372.098L375.629 298.377ZM369.769 294.657H372.261L371.422 291.992C371.368 291.823 371.303 291.625 371.228 291.398C371.157 291.166 371.086 290.917 371.015 290.65C370.948 290.922 370.879 291.173 370.808 291.405C370.737 291.636 370.671 291.836 370.608 292.006L369.769 294.657ZM378.689 298.377H376.56V288.646H378.689V298.377ZM381.497 288.646C381.589 288.646 381.666 288.651 381.729 288.66C381.792 288.669 381.848 288.686 381.898 288.713C381.948 288.735 381.996 288.769 382.042 288.813C382.088 288.858 382.14 288.918 382.199 288.994L386.531 294.837C386.515 294.65 386.502 294.47 386.494 294.296C386.485 294.118 386.481 293.951 386.481 293.796V288.646H388.347V298.377H387.245C387.082 298.377 386.945 298.35 386.832 298.297C386.719 298.243 386.611 298.145 386.506 298.003L382.205 292.206C382.217 292.375 382.228 292.542 382.236 292.707C382.245 292.867 382.249 293.019 382.249 293.161V298.377H380.383V288.646H381.497Z" fill="white"/>
</g>
<path opacity="0.2" d="M301.617 375.477V273.618C301.617 270.983 303.745 268.856 306.379 268.856H399.742C400.162 268.856 400.533 268.633 400.731 268.262C401.139 267.508 400.595 266.593 399.742 266.593H304.61C301.58 266.593 299.119 269.054 299.119 272.084V375.773C299.119 376.849 300.48 377.319 301.147 376.466L301.37 376.182C301.531 375.971 301.617 375.724 301.617 375.477Z" fill="white"/>
<path opacity="0.4" d="M412.442 272.232V392.791C412.442 396.514 409.425 399.519 405.714 399.519H304.189C302.544 399.519 301.048 398.926 299.873 397.949C302.73 395.834 305.5 394.869 305.5 394.869L344.186 394.894L403.328 394.943C406.073 394.943 408.287 392.729 408.287 389.984V274.694C409.511 272.48 410.76 270.897 411.985 269.821C412.282 270.575 412.442 271.379 412.442 272.232Z" fill="black" fill-opacity="0.7"/>
<path opacity="0.2" d="M412.443 365.347V392.791C412.443 396.513 409.425 399.519 405.715 399.519H344.891L344.186 394.893C344.681 392.976 344.186 384.517 344.186 384.517C340.278 374.091 344.186 358.446 344.186 358.446L368.736 343.259C368.736 343.259 385.284 352.299 388.462 355.676C391.653 359.052 394.089 379.978 394.089 379.978C397.367 379.199 403.08 374.388 408.287 369.429C409.734 368.043 411.144 366.658 412.443 365.347Z" fill="black" fill-opacity="0.7"/>
<path d="M405.715 399.519H304.203C300.48 399.519 297.475 396.501 297.475 392.791V272.232C297.475 268.51 300.492 265.504 304.203 265.504H405.715C409.438 265.504 412.443 268.522 412.443 272.232V392.791C412.443 396.514 409.426 399.519 405.715 399.519Z" stroke="#263238" stroke-miterlimit="10" stroke-linecap="round" stroke-linejoin="round"/>
<path d="M408.287 374.03V377.703" stroke="#263238" stroke-miterlimit="10" stroke-linecap="round" stroke-linejoin="round"/>
<path d="M340.254 270.081H403.675C406.222 270.081 408.288 272.146 408.288 274.694V369.132" stroke="#263238" stroke-miterlimit="10" stroke-linecap="round" stroke-linejoin="round"/>
<path d="M301.617 291.304V274.694C301.617 272.146 303.683 270.081 306.23 270.081H326.563" stroke="#263238" stroke-miterlimit="10" stroke-linecap="round" stroke-linejoin="round"/>
<path d="M301.617 302.558V299.379" stroke="#263238" stroke-miterlimit="10" stroke-linecap="round" stroke-linejoin="round"/>
<path d="M321.912 394.943H306.23C303.683 394.943 301.617 392.878 301.617 390.33V308.68" stroke="#263238" stroke-miterlimit="10" stroke-linecap="round" stroke-linejoin="round"/>
<path d="M408.287 390.33C408.287 392.878 406.222 394.943 403.674 394.943H326.562" stroke="#263238" stroke-miterlimit="10" stroke-linecap="round" stroke-linejoin="round"/>
<path d="M354.959 366.523C367.807 366.523 378.222 356.107 378.222 343.259C378.222 330.411 367.807 319.996 354.959 319.996C342.111 319.996 331.695 330.411 331.695 343.259C331.695 356.107 342.111 366.523 354.959 366.523Z" fill="#B22234"/>
<path opacity="0.2" d="M378.222 343.259C378.222 356.109 367.796 366.523 354.946 366.523C348.824 366.523 343.259 364.161 339.104 360.29C339.722 359.053 340.748 357.655 342.455 356.282C342.455 356.282 355.923 367.809 368.229 355.491C377.443 346.265 369.466 332.512 369.466 332.512C369.466 332.512 370.641 331.176 374.462 330.57C376.837 334.219 378.222 338.584 378.222 343.259Z" fill="black" fill-opacity="0.7"/>
<path opacity="0.2" d="M341.318 348.503C340.823 348.701 340.341 348.602 339.908 348.021C339.598 347.625 339.487 347.118 339.413 346.624C337.83 336.692 343.061 327.38 353.611 326.502C355.577 326.341 360.623 326.551 359.906 329.717C359.671 330.731 358.879 331.535 358.026 332.141C355.033 334.268 351.793 336.099 349.023 338.535C347.625 339.76 346.351 341.132 345.325 342.703C344.78 343.544 343 347.811 341.318 348.503Z" fill="black" fill-opacity="0.7"/>
<path d="M354.959 366.523C367.807 366.523 378.222 356.107 378.222 343.259C378.222 330.411 367.807 319.996 354.959 319.996C342.111 319.996 331.695 330.411 331.695 343.259C331.695 356.107 342.111 366.523 354.959 366.523Z" stroke="#263238" stroke-miterlimit="10" stroke-linecap="round" stroke-linejoin="round"/>
<path d="M336.889 343.259C336.889 333.291 344.977 325.203 354.945 325.203" stroke="#263238" stroke-miterlimit="10" stroke-linecap="round" stroke-linejoin="round"/>
<path d="M350.233 360.685C343.703 358.917 338.633 353.574 337.26 346.896" stroke="#263238" stroke-miterlimit="10" stroke-linecap="round" stroke-linejoin="round"/>
<path d="M366.51 329.383C370.48 332.698 373.016 337.682 373.016 343.26C373.016 353.228 364.927 361.316 354.959 361.316" stroke="#263238" stroke-miterlimit="10" stroke-linecap="round" stroke-linejoin="round"/>
<path d="M358.594 325.562C360.115 325.871 361.562 326.378 362.91 327.033" stroke="#263238" stroke-miterlimit="10" stroke-linecap="round" stroke-linejoin="round"/>
<path d="M426.38 302.422C426.38 302.422 416.598 305.452 413.172 313.948" stroke="#263238" stroke-miterlimit="10" stroke-linecap="round" stroke-linejoin="round"/>
<path d="M470.733 571.985C469.645 553.075 468.927 533.769 467.975 518.211C466.021 485.969 464.549 464.338 461.618 442.324C458.687 420.309 459.169 387.053 457.71 375.427C456.238 363.814 451.872 361.353 448.41 347.551C444.959 333.749 441.855 306.28 436.178 302.409C430.501 298.551 413.187 291.291 413.187 291.291V369.12C402.909 384.913 390.678 388.821 390.678 388.821C382.849 366.164 383.826 357.173 375.998 348.85C368.169 340.526 362.529 329.655 350.236 334.206C344.386 336.371 341.257 338.585 344.188 358.422C347.119 378.26 352.994 384.505 352.994 384.505C353.971 391.283 352.499 410.996 350.063 421.088C347.614 431.168 356.914 457.968 361.317 475.098C365.72 492.227 389.206 526.918 389.206 526.918C389.206 526.918 390.183 546.038 388.229 566.098C388.044 567.941 387.821 569.907 387.561 571.972C387.561 571.972 398.37 588.607 409.909 588.607C453.295 588.619 470.733 571.985 470.733 571.985Z" fill="white"/>
<path opacity="0.4" d="M345.932 340.068C346.402 338.374 346.328 337.261 345.932 336.544C347.082 335.48 348.541 334.849 350.236 334.231C362.529 329.68 368.169 340.563 375.997 348.874C376.727 349.653 377.382 350.432 377.964 351.236C370.877 348.565 361.589 348.614 357.854 353.796C353.154 360.289 343.582 348.553 345.932 340.068Z" fill="#3C3B6E"/>
<path opacity="0.4" d="M399.025 552.889L402.896 567.397C402.896 567.397 397.442 562.054 389.292 549.093C389.688 536.441 389.206 526.93 389.206 526.93C389.206 526.93 365.72 492.227 361.317 475.11C356.914 457.981 347.614 431.18 350.062 421.101C352.511 411.009 353.97 391.295 352.993 384.518C352.993 384.518 351.769 383.207 350.149 379.88C351.212 378.853 352.449 378.012 353.834 377.703C353.834 377.703 360.117 392.581 358.596 412.159C357.075 431.725 360.426 433.357 366.907 458.797C373.388 484.237 384.147 513.041 389.206 518.211C394.264 523.38 396.453 546.656 399.025 552.889Z" fill="#3C3B6E"/>
<path opacity="0.4" d="M408.291 381.487C408.291 381.487 416.008 382.687 419.112 384.517C419.112 384.517 404.049 388.45 403.072 392.643C402.095 396.823 398.867 401.189 393.14 396.069C393.14 396.069 392.844 392.866 392.25 388.215C395.886 386.595 405.125 381.512 413.176 369.145V291.303C413.176 291.303 421.734 294.89 428.796 298.353C423.565 299.045 418.209 300.653 416.119 304.19C416.119 304.19 417.702 310.708 424.925 313.948C430.49 316.446 424.925 358.447 424.925 358.447C424.925 358.447 434.052 360.698 436.983 369.145C436.983 369.145 421.982 370.678 415.785 375.44C409.589 380.189 408.291 381.487 408.291 381.487Z" fill="#3C3B6E"/>
<path opacity="0.4" d="M467.974 518.21C468.741 530.801 469.347 545.864 470.126 561.188C468.197 532.062 462.347 482.072 462.347 482.072C462.347 482.072 457.116 500.562 456.72 498.595C455.557 492.807 459.169 460.095 458.847 448.445C458.699 443.164 459.082 429.622 459.552 416.413C459.972 425.491 460.578 434.593 461.617 442.323C464.548 464.337 466.02 485.968 467.974 518.21Z" fill="#3C3B6E"/>
<path d="M470.733 571.985C469.645 553.075 468.927 533.769 467.975 518.211C466.021 485.969 464.549 464.338 461.618 442.324C458.687 420.309 459.169 387.053 457.71 375.427C456.238 363.814 451.872 361.353 448.41 347.551C444.959 333.749 441.855 306.28 436.178 302.409C430.501 298.551 413.187 291.291 413.187 291.291V369.12C402.909 384.913 390.678 388.821 390.678 388.821C382.849 366.164 383.826 357.173 375.998 348.85C368.169 340.526 362.529 329.655 350.236 334.206C344.386 336.371 341.257 338.585 344.188 358.422C347.119 378.26 352.994 384.505 352.994 384.505C353.971 391.283 352.499 410.996 350.063 421.088C347.614 431.168 356.914 457.968 361.317 475.098C365.72 492.227 389.206 526.918 389.206 526.918C389.206 526.918 390.183 546.038 388.229 566.098C388.044 567.941 387.821 569.907 387.561 571.972" stroke="#263238" stroke-miterlimit="10" stroke-linecap="round" stroke-linejoin="round"/>
<path d="M390.664 388.846C390.664 388.846 393.113 399.767 397.998 402.203C402.896 404.652 409.933 402.203 409.933 402.203" stroke="#263238" stroke-miterlimit="10" stroke-linecap="round" stroke-linejoin="round"/>
<path d="M413.172 369.145C413.172 369.145 418.069 358.274 433.727 367.698" stroke="#263238" stroke-miterlimit="10" stroke-linecap="round" stroke-linejoin="round"/>
<path d="M413.172 325.203C413.172 325.203 414.149 319.44 422.225 317.968" stroke="#263238" stroke-miterlimit="10" stroke-linecap="round" stroke-linejoin="round"/>
<path d="M389.205 526.93C398.505 538.704 396.737 549.958 400.311 555.833C403.885 561.707 403.391 582.744 403.391 582.744" stroke="#263238" stroke-miterlimit="10" stroke-linecap="round" stroke-linejoin="round"/>
<path d="M456.721 413.878C456.721 413.878 456.721 436.981 456.721 454.827C456.721 472.661 453.295 489.79 453.295 489.79" stroke="#263238" stroke-miterlimit="10" stroke-linecap="round" stroke-linejoin="round"/>
<path d="M352.992 384.517C352.992 384.517 352.992 377.53 354.946 375.427" stroke="#263238" stroke-miterlimit="10" stroke-linecap="round" stroke-linejoin="round"/>
<path d="M358.373 362.541C358.373 362.541 362.702 347.947 375.428 354.316" stroke="#263238" stroke-miterlimit="10" stroke-linecap="round" stroke-linejoin="round"/>
<path d="M397.578 385.235C407.027 385.433 416.599 381.253 422.227 386.348" stroke="#263238" stroke-miterlimit="10" stroke-linecap="round" stroke-linejoin="round"/>
<defs>
<clipPath id="clip0">
<rect width="66.7848" height="11.1308" fill="white" transform="translate(321.9 287.988)"/>
</clipPath>
</defs>
</svg>
