<svg width="1353" height="140" viewBox="0 0 1353 140" fill="none" xmlns="http://www.w3.org/2000/svg">
<path d="M1082.13 42.891C1074.98 38.9977 1071.73 42.2341 1069.13 38.9977C1066.54 35.7453 1076.28 27.3018 1056.8 18.8584C1056.8 18.8584 1055.5 0.673655 1028.87 0.0167629C1002.24 -0.640129 1009.39 18.2015 1002.24 22.7516C995.098 27.3018 993.143 20.1561 985.998 24.7063C978.852 29.2565 982.104 38.3408 976.256 39.6386C970.408 40.9363 962.622 33.7906 955.476 38.3408C948.33 42.891 948.33 46.7842 945.078 46.7842C941.826 46.7842 935.337 44.1887 931.443 46.7842C927.55 49.3798 923 52.6322 923 52.6322H1087.34C1087.34 52.6322 1089.27 46.7843 1082.13 42.891Z" fill="#F6F6F8"/>
<path opacity="0.5" d="M751.32 47.4202C747.09 45.1131 745.168 47.0357 743.614 45.1131C742.075 43.1904 747.843 38.1756 736.292 33.1769C736.292 33.1769 735.523 22.3942 719.741 22.0097C703.96 21.6252 708.189 32.7923 703.96 35.484C699.73 38.1756 698.576 33.9459 694.331 36.6375C690.101 39.3292 692.024 44.7285 688.563 45.4976C685.102 46.2666 680.472 42.0369 676.242 44.7285C672.012 47.4202 672.012 49.7273 670.09 49.7273C668.167 49.7273 664.322 48.1892 661.999 49.7273C659.692 51.2654 657 53.188 657 53.188H754.396C754.412 53.188 755.566 49.7273 751.32 47.4202Z" fill="#ECECF1"/>
<path d="M1349.32 133.42C1345.09 131.113 1343.17 133.036 1341.61 131.113C1340.08 129.19 1345.84 124.176 1334.29 119.177C1334.29 119.177 1333.52 108.394 1317.74 108.01C1301.96 107.625 1306.19 118.792 1301.96 121.484C1297.73 124.176 1296.58 119.946 1292.33 122.638C1288.1 125.329 1290.02 130.729 1286.56 131.498C1283.1 132.267 1278.47 128.037 1274.24 130.729C1270.01 133.42 1270.01 135.727 1268.09 135.727C1266.17 135.727 1262.32 134.189 1260 135.727C1257.69 137.265 1255 139.188 1255 139.188H1352.4C1352.4 139.204 1353.55 135.727 1349.32 133.42Z" fill="#F6F6F8"/>
<path d="M159.128 128.891C151.982 124.998 148.73 128.234 146.134 124.998C143.539 121.745 153.28 113.302 133.798 104.858C133.798 104.858 132.5 86.6737 105.872 86.0168C79.2436 85.3599 86.3893 104.201 79.2436 108.752C72.0979 113.302 70.1432 106.156 62.9975 110.706C55.8518 115.256 59.1043 124.341 53.2563 125.639C47.4084 126.936 39.6218 119.791 32.4761 124.341C25.3304 128.891 25.3304 132.784 22.078 132.784C18.8256 132.784 12.3368 130.189 8.44349 132.784C4.55021 135.38 0 138.632 0 138.632H164.335C164.335 138.632 166.274 132.784 159.128 128.891Z" fill="#F6F6F8"/>
</svg>
