<svg width="39" height="58" viewBox="0 0 39 58" fill="none" xmlns="http://www.w3.org/2000/svg">
<path opacity="0.1" fill-rule="evenodd" clip-rule="evenodd" d="M4.34213 58H2.09659L2.45316 55.9962L0 53.6914L3.39018 53.2166L4.90632 50.2557L6.42247 53.2166L9.81267 53.6914L7.3595 55.9962L7.71607 58H5.47052L4.90632 57.7141L4.34213 58ZM38.9998 53.0489C38.9735 55.7878 36.7451 58 34 58H27.294L22.8963 53.9755L30.8067 52.8964L34.3443 46.167L37.882 52.8964L38.9998 53.0489ZM39 20.3015V31.6049L38.8418 31.5267L34.0407 33.9013L34.9576 28.8717L31.0735 25.3098L36.4413 24.576L38.8418 20L39 20.3015ZM22.1978 31.956L23.714 28.9951L25.2301 31.956L28.6203 32.4308L26.1672 34.7356L26.7463 37.99L23.714 36.4535L20.6817 37.99L21.2608 34.7356L18.8077 32.4308L22.1978 31.956ZM12.2658 38.8079L10.7497 41.7689L7.35952 42.2437L9.81268 44.5485L9.23357 47.8029L12.2658 46.2663L15.2981 47.8029L14.719 44.5485L17.1722 42.2437L13.782 41.7689L12.2658 38.8079Z" fill="white"/>
</svg>
