<svg width="326" height="162" viewBox="0 0 326 162" fill="none" xmlns="http://www.w3.org/2000/svg">
<rect opacity="0.2" width="325.034" height="100.219" fill="#D8D8E2"/>
<path d="M227.777 22.7595H194.454C192.969 22.7595 191.762 23.967 191.762 25.4529V29.5533C191.762 31.0391 192.969 32.2466 194.454 32.2466H227.777V22.7595Z" fill="#D8D8E2"/>
<path d="M227.777 10.9043H196.5C193.882 10.9043 191.762 13.0254 191.762 15.6452C191.762 18.2651 193.882 20.386 196.5 20.386H227.777V10.9043Z" fill="#D8D8E2"/>
<path d="M241.994 0H230.622V31.7635H241.994V0Z" fill="#D8D8E2"/>
<path d="M256.209 0H244.837V31.7635H256.209V0Z" fill="#D8D8E2"/>
<path d="M270.425 0H259.053V31.7635H270.425V0Z" fill="#D8D8E2"/>
<path d="M277.294 32.6135H187.988V37.9057H195.236V51.031H199.549V37.9057H263.629V51.031H267.944V37.9057H277.294V32.6135Z" fill="#3C3B6E"/>
<path opacity="0.15" d="M147.413 48.3647C146.316 48.6795 145.219 49.1993 144.432 49.5248C144.962 49.131 145.487 48.7322 146.006 48.3173C148.394 46.4273 150.625 44.3587 152.76 42.2009C150.247 44.616 147.591 46.8945 144.763 48.9211C145.104 48.2962 145.503 47.5613 145.786 46.8262C146.29 45.5032 146.416 44.175 145.151 43.4609C143.598 42.5842 141.709 43.8914 142.212 46.1385C142.564 47.7293 143.441 48.942 143.923 49.5143C142.086 50.7797 140.176 51.9399 138.182 52.9533C138.119 52.9847 138.056 53.0163 137.993 53.0477C138.356 52.3914 138.796 51.5935 139.106 50.7901C139.609 49.4671 139.735 48.1388 138.471 47.4248C136.917 46.5481 135.028 47.8553 135.532 50.1024C135.878 51.6565 136.728 52.8534 137.217 53.4468C134.828 54.6229 132.362 55.6203 129.906 56.7071C129.786 56.7596 129.665 56.8173 129.549 56.8698C129.996 56.3763 130.483 55.8197 130.882 55.2318C131.68 54.061 132.111 52.7957 131.045 51.8086C129.738 50.596 127.597 51.4255 127.561 53.7249C127.534 55.3262 128.091 56.6966 128.426 57.3791C126.154 58.4553 123.945 59.7155 121.92 61.2433C121.898 61.2591 121.877 61.2747 121.856 61.2957C122.124 60.8653 122.392 60.4085 122.607 59.9464C123.211 58.6654 123.431 57.3476 122.224 56.5443C121.127 55.8146 119.757 56.2609 119.254 57.4631C119.106 57.2269 118.897 57.0169 118.618 56.8593C117.401 56.1559 116.205 56.917 115.181 57.9933C114.914 58.2716 114.662 58.5762 114.42 58.8754C115.213 56.6755 116.205 54.5544 117.39 52.5384C118.141 52.864 119.437 53.305 120.964 53.305C123.389 53.2997 124.412 51.2837 123.221 50.0288C122.255 49.0103 120.891 49.3988 119.605 50.1392C119.18 50.3859 118.765 50.6641 118.377 50.9477C119.61 49.0944 121.006 47.346 122.559 45.7447C123.163 46.2331 124.391 47.0835 126.013 47.4825C128.368 48.0653 129.849 46.3538 128.998 44.8469C128.306 43.6236 126.889 43.671 125.462 44.0804C124.779 44.2746 124.097 44.553 123.483 44.8102C124.129 44.1855 124.79 43.5816 125.467 42.9885C126.354 42.2323 127.267 41.5027 128.195 40.7939C128.815 41.2873 130.017 42.1011 131.59 42.4896C133.947 43.0724 135.427 41.3609 134.577 39.854C133.884 38.6308 132.467 38.678 131.04 39.0876C130.704 39.182 130.374 39.2975 130.048 39.4235C131.276 38.5468 132.525 37.6909 133.774 36.8353C134.162 36.5727 134.546 36.3102 134.929 36.0424C135.48 36.5045 136.76 37.4547 138.502 37.8852C140.858 38.468 142.339 36.7565 141.488 35.2497C140.796 34.0262 139.378 34.0736 137.951 34.483C137.39 34.6459 136.828 34.861 136.308 35.0764C136.55 34.9084 136.786 34.7352 137.023 34.5618C137.458 34.2468 137.893 33.9266 138.324 33.5905C138.859 33.1915 139.357 32.7454 139.877 32.3253C140.171 32.0891 140.459 31.8371 140.738 31.5851C141.278 32.0418 142.569 33.0077 144.332 33.4436C146.689 34.0262 148.169 32.3147 147.318 30.808C146.626 29.5847 145.208 29.6321 143.781 30.0415C142.968 30.2724 142.155 30.6243 141.462 30.9182C142.427 30.0257 143.351 29.0965 144.233 28.1252C144.29 28.0622 144.348 27.9886 144.406 27.9256C144.784 27.5057 145.162 27.0751 145.519 26.6393C145.939 26.1301 146.347 25.6155 146.741 25.0854C148.31 22.938 149.742 20.6595 150.698 18.1709C149.691 20.6384 148.215 22.8802 146.61 24.9803C144.978 27.0751 143.136 28.9966 141.152 30.7503C141.079 30.8133 141.006 30.8763 140.932 30.9393C141.31 30.2515 141.808 29.3746 142.144 28.4979C142.648 27.1749 142.774 25.8467 141.509 25.1326C139.956 24.2559 138.066 25.5631 138.57 27.8102C138.969 29.59 140.019 30.9026 140.439 31.3697C140.281 31.5063 140.129 31.6428 139.966 31.7741C139.783 31.9262 139.594 32.0838 139.41 32.2308C139.101 32.4776 138.785 32.719 138.465 32.9605C138.297 33.0865 138.125 33.223 137.957 33.349C137.505 33.6798 137.044 34.0106 136.581 34.3309C136.361 34.483 136.14 34.6301 135.92 34.7824C135.668 34.9504 135.416 35.1236 135.164 35.2917C135.532 34.6196 136.004 33.7848 136.324 32.9449C136.828 31.6217 136.954 30.2935 135.69 29.5794C134.136 28.7027 132.247 30.0101 132.75 32.257C133.123 33.9213 134.068 35.1762 134.53 35.7169C134.346 35.8376 134.157 35.9636 133.974 36.0845C133.286 36.5359 132.593 36.9874 131.901 37.4389C131.764 37.5282 131.633 37.6176 131.496 37.7015C131.108 37.9534 130.725 38.216 130.342 38.4732C130.174 38.5834 130.006 38.6938 129.844 38.8093C129.303 39.1768 128.767 39.5495 128.237 39.9328C128.61 39.2503 129.093 38.405 129.418 37.5491C129.922 36.2261 130.048 34.8979 128.783 34.1838C127.23 33.3071 125.34 34.6143 125.845 36.8614C126.228 38.5729 127.215 39.854 127.66 40.3632C126.758 41.0248 125.866 41.7073 124.999 42.4213C124.37 42.9569 123.746 43.4978 123.131 44.0595C123.389 43.5764 123.646 43.0619 123.84 42.5421C124.344 41.2191 124.47 39.8908 123.205 39.1768C121.652 38.3 119.763 39.6072 120.266 41.8543C120.612 43.4084 121.463 44.6107 121.95 45.1987C120.229 46.905 118.682 48.7899 117.317 50.8006C117.459 50.2389 117.595 49.6299 117.669 49.0366C117.836 47.6296 117.637 46.3117 116.236 45.9231C114.515 45.4507 113.004 47.1728 114.026 49.2309C114.751 50.6799 115.884 51.6407 116.493 52.0869C115.149 54.271 114.042 56.5864 113.156 58.9856C113.129 58.4922 113.087 57.9776 113.009 57.484C112.773 56.0875 112.206 54.88 110.758 54.9063C108.973 54.9377 108.007 57.0221 109.577 58.7022C110.589 59.7888 111.823 60.3874 112.568 60.6763C111.959 62.5399 111.471 64.4406 111.093 66.3569C111.03 66.6614 110.983 66.9655 110.925 67.2652C110.857 67.3233 110.799 67.3805 110.742 67.449C110.673 67.1863 110.605 66.919 110.516 66.6667C110.07 65.3226 109.319 64.2148 107.892 64.4668C106.134 64.7767 105.504 66.9815 107.31 68.3994C108.406 69.26 109.629 69.6643 110.421 69.8533C110.442 69.9061 110.463 69.9535 110.484 70.0055C110.29 71.4497 110.144 72.9038 110.054 74.3579C109.986 75.4452 109.944 76.537 109.928 77.6289C108.406 77.6342 107.331 79.2931 108.38 81.1102C108.869 81.9498 109.492 82.6064 110.054 83.089C110.18 85.1364 110.385 87.1847 110.657 89.2163C110.243 88.833 109.666 88.6703 109.031 88.8383C108.071 89.1003 107.64 89.8668 107.488 90.8172C107.152 91.1847 106.979 91.6469 106.984 92.1297C106.27 91.0694 105.599 89.9828 104.948 88.8751C105.588 88.3811 106.627 87.4361 107.372 86.0454C108.516 83.9031 107.225 82.0499 105.557 82.501C104.197 82.8684 103.899 84.2548 103.941 85.7404C103.957 86.3022 104.024 86.8797 104.098 87.4204C103.862 87.0108 103.631 86.5966 103.4 86.1816C102.812 85.1364 102.313 84.0552 101.763 82.9897C101.621 82.7321 101.501 82.4641 101.385 82.1967C102.104 81.8292 103.306 81.0995 104.292 79.8706C105.819 77.9806 104.896 75.9174 103.175 76.0483C101.773 76.159 101.217 77.461 100.981 78.9309C100.876 79.5717 100.834 80.2488 100.813 80.8631L100.315 79.7081C99.2434 77.0988 98.3832 74.4 97.6959 71.6599C98.3937 71.4129 99.826 70.7985 101.065 69.5492C102.77 67.8217 102.062 65.6796 100.336 65.6376C98.9288 65.6062 98.2469 66.8451 97.8638 68.2834C97.6538 69.0657 97.5379 69.9009 97.4386 70.6253C97.066 69.0499 96.7514 67.4595 96.4833 65.8633C96.2997 64.8711 96.1846 63.8684 96.0582 62.8655C96.7093 62.7396 98.3251 62.3353 99.8155 61.1803C101.731 59.6892 101.306 57.4684 99.601 57.2059C98.21 56.9905 97.37 58.1351 96.8086 59.5107C96.4413 60.4085 96.1899 61.4007 95.9799 62.183C95.8745 61.0227 95.754 59.8625 95.6961 58.6917C95.5704 56.2872 95.5283 53.872 95.7224 51.4675C95.4546 53.8667 95.4185 56.287 95.4704 58.7022C95.4862 59.8152 95.5651 60.923 95.6337 62.0361C95.3446 61.3587 95.0089 60.5503 94.5837 59.8362C93.8596 58.6182 92.8888 57.6993 91.5504 58.2507C89.9028 58.9279 89.7562 61.2169 91.829 62.2197C93.4238 62.9864 95.0512 62.9967 95.7172 62.96C95.8121 63.9522 95.8956 64.9446 96.0476 65.9263C96.2576 67.4913 96.5204 69.0499 96.8349 70.6041C96.5046 70.0476 96.132 69.4332 95.7067 68.8925C94.8305 67.7796 93.7542 66.992 92.495 67.711C90.9469 68.5989 91.0996 70.888 93.2824 71.6071C94.8622 72.1267 96.3841 71.9851 97.1081 71.8647C97.717 74.6313 98.4982 77.3662 99.4956 80.028L99.8103 80.8263C99.5271 80.4588 99.2232 80.0913 98.9025 79.7555C97.921 78.7366 96.7671 78.0597 95.5863 78.9045C94.1321 79.9445 94.5151 82.2072 96.7619 82.7057C98.3251 83.0522 99.7741 82.7901 100.509 82.5959C100.619 82.8684 100.729 83.1418 100.86 83.4045C101.385 84.5017 101.868 85.6251 102.424 86.7012C102.581 87.0108 102.744 87.3158 102.907 87.6199C102.629 87.3835 102.34 87.1478 102.046 86.9376C100.887 86.1237 99.6319 85.6727 98.6299 86.7223C97.3963 88.0137 98.1995 90.1665 100.493 90.2343C101.936 90.2766 103.196 89.851 103.936 89.5258C104.591 90.7177 105.268 91.894 106.003 93.0491C106.276 93.4895 106.559 93.9256 106.842 94.3615C106.433 93.9888 105.987 93.6003 105.52 93.2742C104.36 92.461 103.106 92.0091 102.104 93.0589C100.871 94.351 101.674 96.5032 103.966 96.5716C105.672 96.6244 107.121 96.0151 107.755 95.7005C108.133 96.2359 108.527 96.766 108.936 97.2802C108.081 98.2728 108.359 99.958 110.096 100.698C111.057 101.108 112.012 101.255 112.778 101.291C112.882 101.376 112.993 101.459 113.108 101.544L113.166 101.585C113.565 103.097 114.011 104.599 114.467 106.09H106.648V130.824H126.143V106.09H117.06C116.278 103.418 115.622 101.092 115.496 101.024L115.218 100.898C115.995 100.624 117.049 100.136 118.025 99.3013C119.872 97.7268 119.348 95.5264 117.632 95.3427C116.236 95.1907 115.449 96.3721 114.945 97.7689C114.803 98.1673 114.683 98.5822 114.577 98.9866C114.478 98.6139 114.378 98.2412 114.284 97.8684C114 96.766 113.743 95.6582 113.497 94.5452C114.289 94.2878 115.46 93.7945 116.535 92.8752C118.382 91.3005 117.858 89.1003 116.142 88.9166C114.745 88.7644 113.959 89.9459 113.454 91.3428C113.308 91.7464 113.187 92.1665 113.082 92.5814C112.919 91.7728 112.762 90.9595 112.62 90.1455C112.52 89.5416 112.426 88.9376 112.331 88.3285C112.295 87.4677 112.284 86.6071 112.295 85.7404C112.3 85.2629 112.316 84.7902 112.337 84.3179C113.124 84.5642 114.268 84.8112 115.564 84.7275C117.983 84.5694 118.881 82.4957 117.616 81.315C116.588 80.354 115.25 80.8316 114.011 81.6507C113.449 82.0234 112.909 82.4641 112.421 82.879C112.573 80.8526 112.867 78.8421 113.334 76.8677C113.612 75.7021 113.948 74.5574 114.352 73.4287C115.134 73.6968 116.383 74.0115 117.815 73.9174C120.234 73.76 121.132 71.6854 119.867 70.5047C118.839 69.5439 117.501 70.0213 116.262 70.8406C115.822 71.1342 115.391 71.4709 114.992 71.8014C115.465 70.7042 116 69.6327 116.619 68.6147C117.852 66.5512 119.406 64.7135 121.205 63.1124C121.799 63.6583 122.916 64.5245 124.422 65.0181C126.726 65.7741 128.332 64.1781 127.592 62.6135C126.994 61.3429 125.577 61.2852 124.123 61.5846C123.573 61.7 123.011 61.8627 122.492 62.0361C122.501 62.0254 122.512 62.015 122.528 62.0098C124.486 60.4452 126.643 59.1483 128.894 58.0092C129.36 58.6234 130.358 59.7522 131.864 60.5239C134.021 61.637 135.857 60.3192 135.379 58.6601C134.991 57.3055 133.601 57.0274 132.116 57.0904C131.533 57.1165 130.94 57.1953 130.379 57.2846C132.771 56.1507 135.222 55.0795 137.579 53.83L137.584 53.8353C137.584 53.8353 137.584 53.83 137.589 53.83C137.605 53.8195 137.62 53.809 137.641 53.8037C138.13 54.2289 139.457 55.2685 141.304 55.72C143.661 56.3028 145.141 54.5913 144.29 53.0844C143.598 51.8612 142.181 51.9085 140.753 52.318C140.355 52.4333 139.956 52.5751 139.572 52.7274C141.147 51.8086 142.674 50.8111 144.149 49.7401C144.228 49.824 144.274 49.8714 144.274 49.8714C144.285 49.8556 144.295 49.8346 144.301 49.8137C144.768 50.2231 146.112 51.289 147.99 51.7561C150.346 52.3389 151.826 50.6274 150.976 49.1205C150.257 47.9079 148.84 47.9551 147.413 48.3647ZM110.232 96.5663C109.755 96.0046 109.293 95.4165 108.842 94.818C108.952 94.7185 109.067 94.613 109.188 94.4979C109.928 94.7343 110.636 94.8338 111.235 94.8601C111.24 94.8969 111.245 94.934 111.251 94.97L111.576 94.9075C111.744 95.7472 111.922 96.5823 112.106 97.4166C111.576 96.8443 110.957 96.4769 110.232 96.5663ZM111.97 76.5423C111.807 77.1665 111.665 77.7969 111.534 78.4272C111.508 78.3902 111.482 78.3533 111.45 78.3165C111.434 77.0251 111.455 75.7284 111.508 74.437C111.544 73.5341 111.613 72.6306 111.692 71.7277C112.222 72.2736 112.751 72.6727 113.129 72.9248C112.678 74.1064 112.289 75.3134 111.97 76.5423ZM114.153 70.583C114.184 70.3473 114.21 70.1109 114.221 69.8745C114.226 69.754 114.231 69.638 114.231 69.5176C114.42 69.4595 114.614 69.3918 114.808 69.3126C114.577 69.7329 114.362 70.153 114.153 70.583ZM116.918 66.0839C116.745 65.6848 116.42 65.354 115.942 65.1703C114.63 64.661 113.565 65.5957 112.72 66.8188C112.704 66.8399 112.693 66.8557 112.683 66.8767C112.657 66.8715 112.626 66.8609 112.599 66.8557C112.51 66.8346 112.416 66.8241 112.331 66.8188C112.342 66.7458 112.353 66.6719 112.368 66.5981C112.709 64.6821 113.156 62.7763 113.728 60.9125C114.541 61.0121 115.905 61.0701 117.37 60.6342C118.22 60.3822 118.813 59.9203 119.154 59.3952C119.432 60.734 120.061 61.7997 120.465 62.3825C119.164 63.4904 117.967 64.7293 116.918 66.0839Z" fill="#3C3B6E"/>
<path d="M215.137 97.6952H113.483V32.194C113.483 29.8839 115.357 28.0095 117.666 28.0095H210.955C213.263 28.0095 215.137 29.8839 215.137 32.194V97.6952Z" fill="#191C2F" stroke="#191C2F" stroke-miterlimit="10" stroke-linecap="round" stroke-linejoin="round"/>
<path d="M230.388 128.498H98.2341L113.484 97.6951H215.138L230.388 128.498Z" fill="white" stroke="#191C2F" stroke-miterlimit="10" stroke-linecap="round" stroke-linejoin="round"/>
<path d="M209.194 33.5273H119.851V92.1771H209.194V33.5273Z" fill="#3C3B6E"/>
<g opacity="0.2">
<path opacity="0.2" d="M164.838 38.0007L166.016 40.3445L168.651 40.7202L166.744 42.5447L167.195 45.1205L164.838 43.9044L162.482 45.1205L162.932 42.5447L161.025 40.7202L163.66 40.3445L164.838 38.0007Z" fill="#191C2F"/>
<path opacity="0.2" d="M152.399 40.4492L154.428 42.1111L156.987 41.383L155.987 43.8252L157.445 45.9956L154.798 45.8429L153.139 47.9124L152.504 45.3759L150.02 44.4846L152.275 43.0696L152.399 40.4492Z" fill="#191C2F"/>
<path opacity="0.2" d="M143.871 45.7563L145.9 47.4184L148.46 46.6903L147.46 49.1323L148.918 51.3029L146.271 51.15L144.612 53.2197L143.976 50.6831L141.493 49.7917L143.747 48.3769L143.871 45.7563Z" fill="#191C2F"/>
<path opacity="0.2" d="M185.528 45.7563L183.499 47.4184L180.939 46.6903L181.939 49.1323L180.481 51.3029L183.128 51.15L184.787 53.2197L185.423 50.6831L187.906 49.7917L185.652 48.3769L185.528 45.7563Z" fill="#191C2F"/>
<path opacity="0.2" d="M177.269 40.4492L175.24 42.1111L172.68 41.383L173.681 43.8252L172.223 45.9956L174.87 45.8429L176.529 47.9124L177.164 45.3759L179.648 44.4846L177.393 43.0696L177.269 40.4492Z" fill="#191C2F"/>
<path opacity="0.3" d="M165.994 85.4329C166.575 84.2705 167.628 83.412 168.883 83.0773L172.952 81.9919C175.835 81.2224 178.212 79.2299 179.475 76.5248C180.737 73.8194 180.737 70.7165 179.475 68.0117C179.38 67.8059 179.284 67.6013 179.189 67.3973C177.891 64.6152 178.024 62.1059 178.568 60.1796C178.569 60.1758 178.57 60.1723 178.571 60.1683C178.719 59.6469 178.333 59.1279 177.791 59.1279H165.054V86.0138C165.452 86.0138 165.816 85.7895 165.994 85.4329Z" fill="#191C2F"/>
<mask id="mask0" mask-type="alpha" maskUnits="userSpaceOnUse" x="149" y="49" width="32" height="38">
<g opacity="0.2">
<path opacity="0.2" d="M180.937 49.9473H149.197V86.2866H180.937V49.9473Z" fill="white"/>
<path opacity="0.2" fill-rule="evenodd" clip-rule="evenodd" d="M175.19 50.1172C175.468 50.1172 175.736 50.2281 175.933 50.4254L180.437 54.9313C180.738 55.232 180.828 55.6844 180.665 56.0775C180.625 56.1759 180.57 56.2657 180.504 56.3448C180.291 56.6126 179.176 58.0349 178.57 60.1812H178.57C178.026 62.1073 177.893 64.6166 179.191 67.3989C179.23 67.4823 179.269 67.5657 179.308 67.6492C179.364 67.7701 179.421 67.8914 179.477 68.013C180.74 70.7179 180.74 73.8207 179.477 76.5262C178.214 79.2313 175.837 81.2239 172.954 81.9931L168.885 83.0785C167.63 83.4132 166.577 84.272 165.997 85.4343C165.787 85.8539 165.32 86.0917 164.843 85.9944C164.519 85.9286 164.252 85.7033 164.102 85.4083C163.519 84.2591 162.473 83.4109 161.227 83.0785L157.158 81.9931C154.275 81.2239 151.897 79.2313 150.635 76.5262C149.373 73.8213 149.372 70.7187 150.634 68.0135C150.73 67.8073 150.826 67.6027 150.92 67.4001C152.218 64.6176 152.085 62.108 151.542 60.1813C151.542 60.1812 151.542 60.1812 151.542 60.1812H151.541C150.932 58.0215 149.806 56.5932 149.598 56.3324C149.449 56.146 149.367 55.9142 149.367 55.6758C149.367 55.3966 149.478 55.1285 149.675 54.9313L154.179 50.4254C154.549 50.0554 155.135 50.0136 155.553 50.3276C157.945 52.1226 161.148 52.288 163.713 50.7487L164.515 50.267C164.848 50.0671 165.265 50.0674 165.598 50.2676C165.598 50.2676 165.65 50.2991 165.745 50.3558C165.883 50.4388 166.111 50.576 166.399 50.7485C168.964 52.288 172.167 52.1228 174.559 50.3276C174.741 50.1912 174.962 50.1172 175.19 50.1172Z" fill="black"/>
</g>
</mask>
<g mask="url(#mask0)">
<path opacity="0.2" fill-rule="evenodd" clip-rule="evenodd" d="M175.19 50.1172C175.468 50.1172 175.736 50.2281 175.933 50.4254L180.437 54.9313C180.738 55.232 180.828 55.6844 180.665 56.0775C180.624 56.1759 180.57 56.2657 180.504 56.3448C180.291 56.6126 179.176 58.0349 178.57 60.1812H178.57C178.026 62.1073 177.893 64.6166 179.191 67.3989C179.23 67.4823 179.269 67.5657 179.308 67.6492C179.364 67.7701 179.421 67.8914 179.477 68.013C180.739 70.7179 180.74 73.8207 179.477 76.5262C178.214 79.2313 175.837 81.2239 172.954 81.9931L168.885 83.0785C167.63 83.4132 166.577 84.272 165.996 85.4343C165.787 85.8539 165.32 86.0917 164.843 85.9944C164.519 85.9286 164.252 85.7033 164.102 85.4083C163.519 84.2591 162.472 83.4109 161.227 83.0785L157.158 81.9931C154.275 81.2239 151.897 79.2313 150.635 76.5262C149.373 73.8213 149.372 70.7187 150.634 68.0135C150.73 67.8073 150.826 67.6027 150.92 67.4001C152.218 64.6176 152.085 62.108 151.542 60.1813C151.542 60.1812 151.541 60.1812 151.541 60.1812H151.541C150.932 58.0215 149.806 56.5932 149.598 56.3324C149.448 56.146 149.367 55.9142 149.367 55.6758C149.367 55.3966 149.478 55.1285 149.675 54.9313L154.179 50.4254C154.549 50.0554 155.135 50.0136 155.553 50.3276C157.945 52.1226 161.148 52.288 163.713 50.7487L164.515 50.267C164.848 50.0671 165.265 50.0674 165.598 50.2676C165.598 50.2676 165.65 50.2991 165.745 50.3558C165.883 50.4388 166.111 50.576 166.399 50.7485C168.964 52.288 172.167 52.1228 174.559 50.3276C174.741 50.1912 174.962 50.1172 175.19 50.1172Z" fill="#191C2F"/>
<path opacity="0.2" d="M175.933 50.4253L176.053 50.3051L175.933 50.4253ZM180.437 54.9312L180.557 54.8111L180.437 54.9312ZM180.665 56.0774L180.508 56.0124V56.0127L180.665 56.0774ZM180.504 56.3447L180.374 56.2362L180.373 56.2376L180.372 56.2387L180.504 56.3447ZM178.57 60.181V60.3509H178.699L178.734 60.2271L178.57 60.181ZM178.57 60.181V60.0112H178.442L178.407 60.1349L178.57 60.181ZM179.191 67.3988L179.345 67.327H179.345L179.191 67.3988ZM179.308 67.6491L179.154 67.721L179.308 67.6491ZM179.477 68.0129L179.324 68.0847L179.477 68.0129ZM179.477 76.5261L179.631 76.598L179.477 76.5261ZM172.954 81.993L172.998 82.1572L172.954 81.993ZM168.885 83.0784L168.929 83.2426L168.885 83.0784ZM165.996 85.4342L165.845 85.3583L165.996 85.4342ZM164.843 85.9942L164.876 85.8278L164.843 85.9942ZM164.102 85.4082L164.253 85.3313L164.102 85.4082ZM161.227 83.0784L161.183 83.2426L161.227 83.0784ZM157.158 81.993L157.114 82.1572L157.158 81.993ZM150.635 76.5261L150.481 76.598L150.635 76.5261ZM150.634 68.0134L150.48 67.9415V67.9417L150.634 68.0134ZM150.92 67.4L150.766 67.3282L150.92 67.4ZM151.542 60.1812L151.705 60.135L151.705 60.1345L151.542 60.1812ZM151.541 60.181L151.705 60.1347L151.67 60.0112H151.541V60.181ZM151.541 60.181L151.378 60.2271L151.413 60.3509H151.541V60.181ZM149.598 56.3323L149.73 56.2263L149.73 56.2262L149.598 56.3323ZM149.675 54.9312L149.795 55.0513L149.675 54.9312ZM154.179 50.4253L154.299 50.5453L154.179 50.4253ZM155.553 50.3275L155.451 50.4633L155.553 50.3275ZM163.713 50.7486L163.8 50.8943L163.713 50.7486ZM164.515 50.2669L164.428 50.1213L164.515 50.2669ZM165.598 50.2675L165.51 50.4131L165.551 50.4373H165.598V50.2675ZM165.745 50.3557L165.657 50.5012L165.745 50.3557ZM166.399 50.7484L166.486 50.6027L166.399 50.7484ZM174.559 50.3275L174.457 50.1916L174.559 50.3275ZM176.053 50.3051C175.824 50.076 175.513 49.9473 175.19 49.9473V50.2869C175.423 50.2869 175.648 50.3799 175.813 50.5453L176.053 50.3051ZM180.557 54.8111L176.053 50.3051L175.813 50.5453L180.317 55.0513L180.557 54.8111ZM180.822 56.1425C181.011 55.6858 180.906 55.1604 180.557 54.8111L180.317 55.0513C180.569 55.3034 180.645 55.6828 180.508 56.0124L180.822 56.1425ZM180.635 56.4532C180.712 56.3608 180.775 56.2564 180.822 56.1421L180.508 56.0127C180.474 56.0951 180.429 56.1701 180.374 56.2362L180.635 56.4532ZM178.734 60.2271C179.33 58.1128 180.429 56.7111 180.637 56.4505L180.372 56.2387C180.152 56.5138 179.021 57.9569 178.407 60.1349L178.734 60.2271ZM178.57 60.3509H178.57V60.0112H178.57V60.3509ZM179.345 67.327C178.067 64.588 178.199 62.1215 178.733 60.2271L178.407 60.1349C177.854 62.0928 177.719 64.645 179.037 67.4707L179.345 67.327ZM179.462 67.5773C179.423 67.4938 179.384 67.4104 179.345 67.327L179.037 67.4707C179.076 67.5539 179.115 67.6374 179.154 67.721L179.462 67.5773ZM179.631 67.9412C179.575 67.8195 179.518 67.6982 179.462 67.5773L179.154 67.721C179.21 67.8419 179.267 67.9631 179.324 68.0847L179.631 67.9412ZM179.631 76.598C180.915 73.8469 180.915 70.6915 179.631 67.941L179.324 68.0847C180.564 70.7441 180.564 73.7944 179.323 76.4543L179.631 76.598ZM172.998 82.1572C175.929 81.3749 178.347 79.3486 179.631 76.598L179.323 76.4541C178.082 79.1139 175.745 81.0726 172.91 81.829L172.998 82.1572ZM168.929 83.2426L172.998 82.1572L172.91 81.829L168.842 82.9144L168.929 83.2426ZM166.148 85.5101C166.707 84.3912 167.72 83.5648 168.929 83.2426L168.842 82.9144C167.539 83.2617 166.447 84.1523 165.845 85.3583L166.148 85.5101ZM164.809 86.1607C165.363 86.2734 165.905 85.9975 166.148 85.5101L165.845 85.3583C165.669 85.7102 165.278 85.9095 164.876 85.8278L164.809 86.1607ZM163.951 85.485C164.121 85.82 164.428 86.0834 164.809 86.1607L164.876 85.8278C164.61 85.7737 164.383 85.5862 164.253 85.3313L163.951 85.485ZM161.183 83.2426C162.382 83.5624 163.39 84.3788 163.951 85.485L164.253 85.3313C163.649 84.1391 162.563 83.2591 161.271 82.9144L161.183 83.2426ZM157.114 82.1572L161.183 83.2426L161.271 82.9144L157.202 81.829L157.114 82.1572ZM150.481 76.598C151.765 79.3486 154.182 81.3749 157.114 82.1572L157.202 81.829C154.367 81.0726 152.03 79.1139 150.788 76.4543L150.481 76.598ZM150.48 67.9417C149.197 70.6923 149.197 73.8476 150.481 76.598L150.788 76.4543C149.548 73.7949 149.547 70.7449 150.788 68.0852L150.48 67.9417ZM150.766 67.3282C150.672 67.5308 150.576 67.7354 150.48 67.9415L150.787 68.0854C150.884 67.8791 150.979 67.6744 151.074 67.4717L150.766 67.3282ZM151.378 60.2274C151.913 62.1223 152.044 64.589 150.766 67.3282L151.074 67.4717C152.392 64.646 152.258 62.0936 151.705 60.135L151.378 60.2274ZM151.378 60.2272C151.378 60.2274 151.378 60.2276 151.378 60.2279L151.705 60.1345C151.705 60.1347 151.705 60.1347 151.705 60.1347L151.378 60.2272ZM151.541 60.3509H151.541V60.0112H151.541V60.3509ZM149.465 56.4384C149.668 56.6921 150.778 58.0995 151.378 60.2271L151.705 60.1349C151.086 57.9433 149.944 56.4941 149.73 56.2263L149.465 56.4384ZM149.197 55.6756C149.197 55.9528 149.292 56.2219 149.465 56.4384L149.73 56.2262C149.605 56.0698 149.537 55.8755 149.537 55.6756H149.197ZM149.555 54.8111C149.326 55.0402 149.197 55.3515 149.197 55.6756H149.537C149.537 55.4415 149.63 55.2165 149.795 55.0513L149.555 54.8111ZM154.059 50.3051L149.555 54.8111L149.795 55.0513L154.299 50.5453L154.059 50.3051ZM155.655 50.1916C155.169 49.827 154.488 49.8754 154.059 50.3051L154.299 50.5453C154.609 50.2349 155.1 50.2001 155.451 50.4633L155.655 50.1916ZM163.625 50.6031C161.12 52.1067 157.992 51.9453 155.655 50.1916L155.451 50.4633C157.899 52.2998 161.176 52.469 163.8 50.8943L163.625 50.6031ZM164.428 50.1213L163.625 50.6031L163.8 50.8943L164.602 50.4125L164.428 50.1213ZM165.685 50.1218C165.299 49.8894 164.815 49.889 164.428 50.1213L164.602 50.4125C164.882 50.2449 165.231 50.2451 165.51 50.4131L165.685 50.1218ZM165.832 50.21C165.785 50.1816 165.748 50.1595 165.723 50.1446C165.711 50.1371 165.701 50.1315 165.695 50.1276C165.691 50.1256 165.689 50.124 165.687 50.123C165.686 50.1225 165.685 50.122 165.685 50.1217C165.684 50.1215 165.684 50.1212 165.683 50.1208C165.683 50.1206 165.682 50.1201 165.681 50.1195C165.681 50.1193 165.679 50.1184 165.677 50.1174C165.676 50.1169 165.674 50.1156 165.67 50.1139C165.668 50.113 165.663 50.1106 165.659 50.1093C165.652 50.1066 165.621 50.0992 165.598 50.0977V50.4373C165.574 50.4356 165.543 50.4283 165.536 50.4256C165.533 50.4243 165.527 50.4219 165.525 50.421C165.522 50.4193 165.519 50.418 165.518 50.4175C165.516 50.4164 165.515 50.4156 165.514 50.4154C165.513 50.4149 165.513 50.4144 165.513 50.4142C165.512 50.4141 165.512 50.4139 165.512 50.4139C165.512 50.4141 165.512 50.4142 165.513 50.4148C165.515 50.4156 165.517 50.417 165.52 50.419C165.526 50.4227 165.536 50.4283 165.548 50.4358C165.573 50.4508 165.61 50.4728 165.657 50.5012L165.832 50.21ZM166.486 50.6027C166.199 50.4304 165.97 50.293 165.832 50.21L165.657 50.5012C165.796 50.5842 166.024 50.7216 166.312 50.894L166.486 50.6027ZM174.457 50.1916C172.12 51.9454 168.992 52.1067 166.486 50.6027L166.312 50.894C168.936 52.4689 172.213 52.3 174.661 50.4633L174.457 50.1916ZM175.19 49.9473C174.925 49.9473 174.668 50.0332 174.457 50.1916L174.661 50.4633C174.813 50.3489 174.999 50.2869 175.19 50.2869V49.9473Z" fill="#3C3B6E"/>
<path opacity="0.2" fill-rule="evenodd" clip-rule="evenodd" d="M160.964 58.2124H160.918C157.005 58.2124 156.117 60.2079 156.731 61.7951C155.275 59.6409 155.912 55.7636 160.827 55.7636H163.671C164.127 55.7636 165.014 55.605 165.469 55.1742C165.492 55.1514 165.514 55.1742 165.492 55.1742C165.264 55.5369 161.942 58.2124 161.942 58.2124H160.964ZM172.178 75.1352C172.178 75.4184 172.349 75.6733 172.634 75.7866C172.663 75.7866 172.663 75.815 172.634 75.8431C170.609 77.061 166.501 80.516 166.501 80.516C166.444 80.5727 166.33 80.5443 166.273 80.4594C163.876 77.4008 158.941 76.1831 157.172 77.4292C157.172 77.4292 158.256 75.5601 161.223 75.3334C163.087 75.1994 165.027 76.106 165.543 76.3471C165.572 76.3607 165.597 76.3723 165.616 76.3813V68.8481C165.616 68.8481 161.537 66.1293 159.882 66.4409L161.252 64.9965V61.1167C161.252 60.8051 161.081 60.5502 160.795 60.4653C160.767 60.4369 160.767 60.4087 160.795 60.3804C162.821 59.1909 166.929 55.7357 166.929 55.7357C166.986 55.6792 167.071 55.7075 167.157 55.7641C169.24 57.5483 172.406 59.4741 173.034 58.3129C173.034 58.3129 172.492 60.8618 170.466 60.8618C168.996 60.8618 166.852 59.4704 166.093 58.9772L166.073 58.9643V65.5346L172.178 68.9614V75.1352ZM164.333 58.5113V64.5435L165.616 65.2797V58.6527C165.217 58.3697 164.96 58.143 164.903 58.0581L164.333 58.5113ZM168.526 78.1655L169.097 77.7406V70.9438L166.073 69.103V76.5796C167.471 77.2025 168.384 77.9955 168.526 78.1655ZM159.551 67.6467C159.551 67.6467 161.972 68.2708 165.103 70.6009C161.273 68.985 160.621 69.4 159.928 69.8409C159.809 69.9166 159.689 69.993 159.551 70.0601V67.6467ZM171.764 75.8027C171.775 75.7949 171.782 75.7822 171.782 75.7688V70.2858C171.782 70.2593 171.757 70.2396 171.731 70.245L171.397 70.3158C171.378 70.3199 171.364 70.3369 171.364 70.3564V76.0017C171.364 76.0354 171.402 76.0551 171.43 76.0357L171.764 75.8027ZM170.947 70.4625C170.947 70.436 170.922 70.4163 170.896 70.4218L170.748 70.4532C170.741 70.4545 170.735 70.4576 170.73 70.462L170.544 70.6193C170.535 70.6272 170.529 70.6388 170.529 70.651V76.5842C170.529 76.6178 170.567 76.6377 170.595 76.6183L170.929 76.3853C170.94 76.3775 170.947 76.3648 170.947 76.3512V70.4625ZM169.694 77.1668C169.694 77.2004 169.732 77.2201 169.76 77.2008L170.094 76.9678C170.105 76.96 170.112 76.9472 170.112 76.9338V71.0745C170.112 71.039 170.07 71.0198 170.043 71.0428L169.709 71.325C169.7 71.333 169.694 71.3445 169.694 71.3568V77.1668Z" fill="#3C3B6E"/>
</g>
</g>
<path d="M179.936 75.699H148.705V83.0008H179.936V75.699Z" fill="#EEB300"/>
<path d="M158.009 79.6752V80.4528H157.598V78.2437H158.318C158.466 78.2437 158.593 78.261 158.701 78.2956C158.809 78.3302 158.898 78.3786 158.969 78.4407C159.039 78.5029 159.091 78.5772 159.124 78.6638C159.158 78.7504 159.175 78.8451 159.175 78.948C159.175 79.0549 159.157 79.1532 159.121 79.2428C159.086 79.3314 159.032 79.4078 158.961 79.472C158.89 79.5361 158.801 79.586 158.694 79.6217C158.587 79.6573 158.461 79.6752 158.318 79.6752H158.009ZM158.009 79.3543H158.318C158.393 79.3543 158.459 79.3452 158.515 79.3268C158.571 79.3075 158.617 79.2805 158.654 79.2459C158.691 79.2102 158.718 79.1674 158.736 79.1175C158.755 79.0666 158.764 79.0101 158.764 78.948C158.764 78.8889 158.755 78.8354 158.736 78.7875C158.718 78.7397 158.691 78.6989 158.654 78.6653C158.617 78.6317 158.571 78.6062 158.515 78.5889C158.459 78.5706 158.393 78.5614 158.318 78.5614H158.009V79.3543ZM160.224 79.5896V80.4528H159.813V78.2437H160.487C160.638 78.2437 160.767 78.2594 160.874 78.291C160.981 78.3216 161.07 78.3649 161.138 78.4209C161.207 78.4769 161.257 78.5441 161.289 78.6225C161.322 78.6999 161.338 78.7855 161.338 78.8792C161.338 78.9535 161.327 79.0238 161.304 79.09C161.283 79.1562 161.251 79.2163 161.21 79.2703C161.169 79.3243 161.118 79.3716 161.057 79.4124C160.997 79.4531 160.928 79.4857 160.851 79.5102C160.903 79.5397 160.947 79.582 160.985 79.637L161.538 80.4528H161.168C161.133 80.4528 161.102 80.4457 161.077 80.4314C161.052 80.4172 161.031 80.3968 161.014 80.3703L160.55 79.6629C160.532 79.6365 160.513 79.6176 160.492 79.6064C160.471 79.5952 160.441 79.5896 160.4 79.5896H160.224ZM160.224 79.2947H160.481C160.558 79.2947 160.626 79.2851 160.683 79.2657C160.741 79.2464 160.788 79.2199 160.825 79.1863C160.862 79.1517 160.89 79.1109 160.909 79.0641C160.927 79.0172 160.936 78.9658 160.936 78.9098C160.936 78.7977 160.899 78.7117 160.825 78.6516C160.751 78.5915 160.639 78.5614 160.487 78.5614H160.224V79.2947ZM163.5 78.2437V78.5706H162.521V79.1832H163.293V79.4995H162.521V80.1243H163.5V80.4528H162.107V78.2437H163.5ZM165.482 79.6752V80.4528H165.071V78.2437H165.79C165.938 78.2437 166.066 78.261 166.174 78.2956C166.282 78.3302 166.371 78.3786 166.441 78.4407C166.512 78.5029 166.563 78.5772 166.597 78.6638C166.631 78.7504 166.647 78.8451 166.647 78.948C166.647 79.0549 166.63 79.1532 166.594 79.2428C166.558 79.3314 166.505 79.4078 166.434 79.472C166.362 79.5361 166.273 79.586 166.166 79.6217C166.059 79.6573 165.934 79.6752 165.79 79.6752H165.482ZM165.482 79.3543H165.79C165.866 79.3543 165.932 79.3452 165.988 79.3268C166.044 79.3075 166.09 79.2805 166.127 79.2459C166.163 79.2102 166.191 79.1674 166.209 79.1175C166.227 79.0666 166.237 79.0101 166.237 78.948C166.237 78.8889 166.227 78.8354 166.209 78.7875C166.191 78.7397 166.163 78.6989 166.127 78.6653C166.09 78.6317 166.044 78.6062 165.988 78.5889C165.932 78.5706 165.866 78.5614 165.79 78.5614H165.482V79.3543ZM168.978 80.4528H168.66C168.625 80.4528 168.595 80.4441 168.572 80.4268C168.549 80.4085 168.533 80.3861 168.523 80.3596L168.358 79.9089H167.443L167.278 80.3596C167.27 80.383 167.254 80.4044 167.229 80.4238C167.206 80.4431 167.177 80.4528 167.142 80.4528H166.823L167.69 78.2437H168.111L168.978 80.4528ZM167.548 79.6186H168.253L167.984 78.8838C167.972 78.8512 167.958 78.813 167.943 78.7692C167.928 78.7244 167.914 78.676 167.9 78.6241C167.885 78.676 167.871 78.7244 167.857 78.7692C167.844 78.814 167.83 78.8532 167.817 78.8868L167.548 79.6186ZM170.216 79.5942V80.4528H169.805V79.5942L169 78.2437H169.362C169.398 78.2437 169.426 78.2523 169.446 78.2696C169.467 78.2869 169.485 78.3088 169.499 78.3353L169.904 79.0732C169.928 79.117 169.948 79.1588 169.965 79.1985C169.983 79.2372 169.998 79.2754 170.013 79.3131C170.026 79.2744 170.041 79.2357 170.057 79.197C170.074 79.1573 170.095 79.116 170.118 79.0732L170.52 78.3353C170.531 78.3129 170.548 78.292 170.57 78.2727C170.593 78.2533 170.621 78.2437 170.656 78.2437H171.019L170.216 79.5942Z" fill="#3C3B6E"/>
<path d="M161.252 50.2558C161.252 50.3971 161.23 50.5252 161.186 50.64C161.142 50.7547 161.071 50.8563 160.974 50.9446C160.881 51.0285 160.758 51.0947 160.603 51.1433C160.449 51.1874 160.264 51.2095 160.047 51.2095H157.744L157.472 52.8055C157.653 52.7746 157.828 52.7526 157.995 52.7393C158.163 52.7217 158.326 52.7128 158.485 52.7128C158.993 52.7128 159.441 52.7901 159.829 52.9446C160.217 53.0991 160.544 53.3111 160.809 53.5804C161.073 53.8453 161.272 54.1588 161.404 54.5208C161.541 54.8784 161.61 55.2625 161.61 55.6731C161.61 56.1897 161.517 56.6621 161.331 57.0904C161.151 57.5142 160.897 57.8807 160.57 58.1897C160.244 58.4988 159.853 58.7394 159.399 58.9116C158.948 59.0794 158.454 59.1632 157.916 59.1632C157.602 59.1632 157.302 59.1301 157.016 59.0639C156.733 58.9977 156.466 58.9094 156.215 58.799C155.967 58.6842 155.738 58.554 155.526 58.4083C155.314 58.2581 155.122 58.0992 154.95 57.9314L155.586 57.0837C155.652 56.9954 155.729 56.9292 155.817 56.8851C155.906 56.8365 156.001 56.8122 156.102 56.8122C156.234 56.8122 156.358 56.8497 156.473 56.9248C156.592 56.9954 156.72 57.0749 156.857 57.1632C156.998 57.2471 157.161 57.3244 157.347 57.395C157.532 57.4656 157.761 57.501 158.035 57.501C158.309 57.501 158.542 57.4568 158.737 57.3685C158.931 57.2758 159.087 57.1522 159.207 56.9976C159.33 56.8387 159.418 56.6555 159.471 56.448C159.529 56.236 159.557 56.0109 159.557 55.7725C159.557 55.3045 159.425 54.9491 159.16 54.7062C158.896 54.459 158.52 54.3354 158.035 54.3354C157.602 54.3354 157.179 54.417 156.764 54.5804L155.493 54.236L156.314 49.4081H161.252V50.2558ZM167.277 51.7459C167.277 52.0991 167.213 52.4214 167.085 52.7128C166.957 53.0042 166.787 53.2559 166.575 53.4678C166.363 53.6753 166.116 53.8365 165.834 53.9513C165.556 54.066 165.265 54.1234 164.96 54.1234C164.625 54.1234 164.316 54.066 164.033 53.9513C163.755 53.8365 163.513 53.6753 163.305 53.4678C163.102 53.2559 162.943 53.0042 162.829 52.7128C162.714 52.4214 162.656 52.0991 162.656 51.7459C162.656 51.3795 162.714 51.0483 162.829 50.7525C162.943 50.4523 163.102 50.1962 163.305 49.9843C163.513 49.7724 163.755 49.609 164.033 49.4942C164.316 49.375 164.625 49.3154 164.96 49.3154C165.295 49.3154 165.604 49.375 165.887 49.4942C166.174 49.609 166.419 49.7724 166.622 49.9843C166.829 50.1962 166.99 50.4523 167.105 50.7525C167.219 51.0483 167.277 51.3795 167.277 51.7459ZM165.701 51.7459C165.701 51.5208 165.682 51.3353 165.642 51.1896C165.607 51.0395 165.556 50.9203 165.49 50.832C165.423 50.7437 165.344 50.6819 165.251 50.6466C165.163 50.6112 165.066 50.5936 164.96 50.5936C164.854 50.5936 164.757 50.6112 164.669 50.6466C164.58 50.6819 164.505 50.7437 164.444 50.832C164.382 50.9203 164.333 51.0395 164.298 51.1896C164.263 51.3353 164.245 51.5208 164.245 51.7459C164.245 51.9578 164.263 52.1345 164.298 52.2757C164.333 52.417 164.382 52.5296 164.444 52.6135C164.505 52.6974 164.58 52.757 164.669 52.7923C164.757 52.8276 164.854 52.8453 164.96 52.8453C165.066 52.8453 165.163 52.8276 165.251 52.7923C165.344 52.757 165.423 52.6974 165.49 52.6135C165.556 52.5296 165.607 52.417 165.642 52.2757C165.682 52.1345 165.701 51.9578 165.701 51.7459ZM170.309 49.7128C170.375 49.6377 170.456 49.5693 170.554 49.5075C170.651 49.4413 170.785 49.4081 170.957 49.4081H172.453L165.185 58.7659C165.119 58.8498 165.035 58.9204 164.934 58.9778C164.836 59.0308 164.717 59.0573 164.576 59.0573H163.04L170.309 49.7128ZM172.824 56.7923C172.824 57.1455 172.76 57.4701 172.632 57.7659C172.504 58.0573 172.334 58.3089 172.122 58.5208C171.911 58.7284 171.663 58.8895 171.381 59.0043C171.103 59.1191 170.812 59.1765 170.507 59.1765C170.172 59.1765 169.863 59.1191 169.58 59.0043C169.302 58.8895 169.06 58.7284 168.852 58.5208C168.649 58.3089 168.49 58.0573 168.376 57.7659C168.261 57.4701 168.204 57.1455 168.204 56.7923C168.204 56.4259 168.261 56.0948 168.376 55.799C168.49 55.4987 168.649 55.2427 168.852 55.0307C169.06 54.8188 169.302 54.6555 169.58 54.5407C169.863 54.4215 170.172 54.3619 170.507 54.3619C170.843 54.3619 171.151 54.4215 171.434 54.5407C171.721 54.6555 171.966 54.8188 172.169 55.0307C172.376 55.2427 172.537 55.4987 172.652 55.799C172.767 56.0948 172.824 56.4259 172.824 56.7923ZM171.249 56.7923C171.249 56.5716 171.229 56.3884 171.189 56.2427C171.154 56.0926 171.103 55.9733 171.037 55.885C170.971 55.7967 170.891 55.7349 170.798 55.6996C170.71 55.6643 170.613 55.6466 170.507 55.6466C170.401 55.6466 170.304 55.6643 170.216 55.6996C170.128 55.7349 170.053 55.7967 169.991 55.885C169.929 55.9733 169.881 56.0926 169.845 56.2427C169.81 56.3884 169.792 56.5716 169.792 56.7923C169.792 57.0043 169.81 57.1809 169.845 57.3222C169.881 57.4634 169.929 57.576 169.991 57.6599C170.053 57.7438 170.128 57.8034 170.216 57.8387C170.304 57.874 170.401 57.8917 170.507 57.8917C170.613 57.8917 170.71 57.874 170.798 57.8387C170.891 57.8034 170.971 57.7438 171.037 57.6599C171.103 57.576 171.154 57.4634 171.189 57.3222C171.229 57.1809 171.249 57.0043 171.249 56.7923Z" fill="#EEB300"/>
<path d="M155.522 64.5464C155.522 64.7624 155.486 64.9607 155.414 65.1414C155.342 65.3221 155.24 65.4776 155.11 65.6081C154.98 65.7385 154.823 65.8397 154.64 65.9117C154.456 65.9837 154.253 66.0197 154.031 66.0197H152.906V63.0731H154.031C154.253 63.0731 154.456 63.1098 154.64 63.1832C154.823 63.2552 154.98 63.3564 155.11 63.4868C155.24 63.6158 155.342 63.7707 155.414 63.9514C155.486 64.1321 155.522 64.3304 155.522 64.5464ZM154.961 64.5464C154.961 64.3847 154.94 64.2401 154.896 64.1124C154.853 63.9833 154.791 63.8746 154.711 63.7863C154.631 63.6967 154.533 63.6281 154.418 63.5805C154.304 63.533 154.175 63.5092 154.031 63.5092H153.458V65.5836H154.031C154.175 65.5836 154.304 65.5598 154.418 65.5123C154.533 65.4647 154.631 65.3968 154.711 65.3085C154.791 65.2189 154.853 65.1102 154.896 64.9825C154.94 64.8534 154.961 64.7081 154.961 64.5464ZM156.974 66.0197H156.424V63.0731H156.974V66.0197ZM159.624 63.6091C159.609 63.6389 159.591 63.66 159.571 63.6722C159.552 63.6845 159.529 63.6906 159.502 63.6906C159.474 63.6906 159.444 63.6804 159.41 63.66C159.376 63.6383 159.336 63.6145 159.29 63.5887C159.244 63.5629 159.189 63.5398 159.127 63.5194C159.066 63.4977 158.993 63.4868 158.909 63.4868C158.833 63.4868 158.766 63.4963 158.709 63.5153C158.654 63.533 158.606 63.5581 158.567 63.5907C158.529 63.6233 158.5 63.6627 158.481 63.7089C158.462 63.7537 158.453 63.8033 158.453 63.8577C158.453 63.9269 158.472 63.9847 158.51 64.0309C158.549 64.0771 158.601 64.1164 158.664 64.1491C158.728 64.1817 158.801 64.2109 158.882 64.2367C158.964 64.2625 159.047 64.2903 159.131 64.3202C159.216 64.3487 159.3 64.3827 159.381 64.4221C159.463 64.4601 159.536 64.509 159.599 64.5688C159.663 64.6272 159.714 64.6992 159.752 64.7848C159.791 64.8704 159.811 64.9743 159.811 65.0966C159.811 65.2297 159.788 65.3547 159.742 65.4715C159.697 65.587 159.631 65.6882 159.542 65.7752C159.455 65.8607 159.349 65.9287 159.223 65.9789C159.096 66.0278 158.952 66.0523 158.789 66.0523C158.695 66.0523 158.603 66.0428 158.512 66.0238C158.421 66.0061 158.333 65.9803 158.249 65.9463C158.166 65.9124 158.088 65.8716 158.015 65.8241C157.943 65.7765 157.878 65.7235 157.821 65.6651L157.98 65.4023C157.995 65.3832 158.013 65.3676 158.033 65.3554C158.055 65.3418 158.079 65.335 158.104 65.335C158.138 65.335 158.175 65.3493 158.214 65.3778C158.254 65.405 158.3 65.4355 158.353 65.4695C158.407 65.5035 158.47 65.5347 158.542 65.5632C158.616 65.5904 158.703 65.604 158.805 65.604C158.961 65.604 159.082 65.5673 159.168 65.4939C159.253 65.4192 159.296 65.3126 159.296 65.174C159.296 65.0966 159.276 65.0334 159.237 64.9845C159.199 64.9356 159.148 64.8949 159.084 64.8623C159.02 64.8283 158.948 64.7998 158.866 64.7767C158.785 64.7536 158.702 64.7284 158.618 64.7013C158.533 64.6741 158.451 64.6415 158.369 64.6035C158.288 64.5654 158.215 64.5158 158.151 64.4547C158.087 64.3936 158.036 64.3175 157.996 64.2265C157.958 64.1341 157.939 64.0207 157.939 63.8862C157.939 63.7789 157.96 63.6743 158.003 63.5724C158.046 63.4705 158.108 63.3801 158.19 63.3014C158.273 63.2226 158.374 63.1594 158.493 63.1118C158.613 63.0643 158.749 63.0405 158.903 63.0405C159.077 63.0405 159.237 63.0677 159.383 63.122C159.53 63.1764 159.655 63.2525 159.758 63.3503L159.624 63.6091ZM162.661 65.3248C162.691 65.3248 162.717 65.3364 162.739 65.3595L162.954 65.5938C162.835 65.7419 162.688 65.8553 162.512 65.9341C162.339 66.0129 162.13 66.0523 161.885 66.0523C161.667 66.0523 161.47 66.0149 161.294 65.9402C161.121 65.8655 160.972 65.7616 160.848 65.6284C160.725 65.4953 160.63 65.3364 160.563 65.1516C160.498 64.9669 160.465 64.7651 160.465 64.5464C160.465 64.325 160.502 64.1226 160.575 63.9392C160.649 63.7544 160.752 63.5955 160.885 63.4623C161.018 63.3292 161.177 63.226 161.362 63.1526C161.548 63.0779 161.753 63.0405 161.977 63.0405C162.195 63.0405 162.386 63.0759 162.549 63.1465C162.713 63.2158 162.854 63.3081 162.971 63.4236L162.787 63.6783C162.777 63.6946 162.762 63.7089 162.745 63.7211C162.728 63.7334 162.705 63.7395 162.675 63.7395C162.644 63.7395 162.612 63.7272 162.58 63.7028C162.547 63.6783 162.506 63.6518 162.455 63.6233C162.405 63.5948 162.341 63.5683 162.264 63.5438C162.188 63.5194 162.091 63.5072 161.973 63.5072C161.834 63.5072 161.707 63.5316 161.59 63.5805C161.474 63.6281 161.375 63.6967 161.29 63.7863C161.208 63.876 161.142 63.9854 161.095 64.1144C161.049 64.2421 161.026 64.3861 161.026 64.5464C161.026 64.7121 161.049 64.8595 161.095 64.9886C161.142 65.1176 161.206 65.2263 161.286 65.3146C161.366 65.4029 161.461 65.4708 161.569 65.5184C161.678 65.5646 161.795 65.5877 161.92 65.5877C161.994 65.5877 162.062 65.5836 162.121 65.5755C162.182 65.5673 162.238 65.5544 162.288 65.5367C162.34 65.5191 162.388 65.4967 162.433 65.4695C162.479 65.441 162.525 65.4063 162.569 65.3656C162.583 65.3533 162.597 65.3438 162.612 65.337C162.627 65.3289 162.643 65.3248 162.661 65.3248ZM166.602 64.5464C166.602 64.7624 166.566 64.9628 166.494 65.1475C166.422 65.3309 166.321 65.4899 166.19 65.6244C166.06 65.7589 165.903 65.8641 165.72 65.9402C165.537 66.0149 165.334 66.0523 165.111 66.0523C164.888 66.0523 164.685 66.0149 164.5 65.9402C164.317 65.8641 164.159 65.7589 164.027 65.6244C163.897 65.4899 163.796 65.3309 163.724 65.1475C163.652 64.9628 163.616 64.7624 163.616 64.5464C163.616 64.3304 163.652 64.1307 163.724 63.9473C163.796 63.7626 163.897 63.6029 164.027 63.4685C164.159 63.334 164.317 63.2294 164.5 63.1546C164.685 63.0786 164.888 63.0405 165.111 63.0405C165.334 63.0405 165.537 63.0786 165.72 63.1546C165.903 63.2307 166.06 63.336 166.19 63.4705C166.321 63.6036 166.422 63.7626 166.494 63.9473C166.566 64.1307 166.602 64.3304 166.602 64.5464ZM166.04 64.5464C166.04 64.3847 166.018 64.2401 165.974 64.1124C165.932 63.9833 165.871 63.874 165.791 63.7843C165.711 63.6946 165.613 63.626 165.498 63.5785C165.384 63.5309 165.255 63.5072 165.111 63.5072C164.967 63.5072 164.837 63.5309 164.722 63.5785C164.606 63.626 164.508 63.6946 164.427 63.7843C164.346 63.874 164.285 63.9833 164.241 64.1124C164.198 64.2401 164.176 64.3847 164.176 64.5464C164.176 64.7081 164.198 64.8534 164.241 64.9825C164.285 65.1102 164.346 65.2189 164.427 65.3085C164.508 65.3968 164.606 65.4647 164.722 65.5123C164.837 65.5598 164.967 65.5836 165.111 65.5836C165.255 65.5836 165.384 65.5598 165.498 65.5123C165.613 65.4647 165.711 65.3968 165.791 65.3085C165.871 65.2189 165.932 65.1102 165.974 64.9825C166.018 64.8534 166.04 64.7081 166.04 64.5464ZM168.628 65.5775C168.734 65.5775 168.828 65.5598 168.911 65.5245C168.995 65.4892 169.066 65.4396 169.123 65.3758C169.181 65.3119 169.225 65.2345 169.255 65.1435C169.286 65.0524 169.302 64.9506 169.302 64.8378V63.0731H169.85V64.8378C169.85 65.013 169.821 65.1754 169.764 65.3248C169.709 65.4729 169.628 65.6013 169.522 65.7099C169.416 65.8173 169.288 65.9015 169.137 65.9626C168.986 66.0224 168.816 66.0523 168.628 66.0523C168.439 66.0523 168.269 66.0224 168.119 65.9626C167.968 65.9015 167.839 65.8173 167.734 65.7099C167.629 65.6013 167.548 65.4729 167.491 65.3248C167.436 65.1754 167.408 65.013 167.408 64.8378V63.0731H167.956V64.8358C167.956 64.9485 167.971 65.0504 168 65.1414C168.032 65.2324 168.076 65.3106 168.133 65.3758C168.19 65.4396 168.26 65.4892 168.343 65.5245C168.427 65.5598 168.522 65.5775 168.628 65.5775ZM171.101 63.0731C171.125 63.0731 171.145 63.0745 171.162 63.0772C171.178 63.0786 171.192 63.0826 171.204 63.0894C171.218 63.0949 171.231 63.1037 171.243 63.1159C171.255 63.1268 171.269 63.1417 171.284 63.1608L172.83 65.1312C172.824 65.0837 172.82 65.0375 172.818 64.9927C172.816 64.9465 172.816 64.9037 172.816 64.8643V63.0731H173.298V66.0197H173.015C172.972 66.0197 172.936 66.0129 172.907 65.9993C172.879 65.9857 172.851 65.9613 172.824 65.9259L171.284 63.9636C171.288 64.0071 171.291 64.0506 171.292 64.094C171.295 64.1361 171.296 64.1749 171.296 64.2102V66.0197H170.813V63.0731H171.101ZM176.375 63.0731V63.5235H175.489V66.0197H174.941V63.5235H174.051V63.0731H176.375Z" fill="white"/>
<path d="M160.069 107.445L160.247 103.691H154.872L154.516 107.445H160.069Z" fill="#191C2F" stroke="white" stroke-miterlimit="10" stroke-linecap="round" stroke-linejoin="round"/>
<path d="M171.173 107.445L170.989 103.691H165.615L165.62 107.445H171.173Z" fill="#191C2F" stroke="white" stroke-miterlimit="10" stroke-linecap="round" stroke-linejoin="round"/>
<path d="M200.081 111.461H205.823L204.474 107.445H198.927L200.081 111.461Z" fill="#191C2F" stroke="white" stroke-miterlimit="10" stroke-linecap="round" stroke-linejoin="round"/>
<path d="M154.516 107.445L154.873 103.691H149.504L148.968 107.445H154.516Z" fill="#191C2F" stroke="white" stroke-miterlimit="10" stroke-linecap="round" stroke-linejoin="round"/>
<path d="M143.416 107.445L144.13 103.691H138.76L137.863 107.445H143.416Z" fill="#191C2F" stroke="white" stroke-miterlimit="10" stroke-linecap="round" stroke-linejoin="round"/>
<path d="M193.375 107.445L192.472 103.691H187.103L187.822 107.445H193.375Z" fill="#191C2F" stroke="white" stroke-miterlimit="10" stroke-linecap="round" stroke-linejoin="round"/>
<path d="M198.927 107.445L197.846 103.691H192.472L193.375 107.445H198.927Z" fill="#191C2F" stroke="white" stroke-miterlimit="10" stroke-linecap="round" stroke-linejoin="round"/>
<path d="M137.865 107.445L138.763 103.691H133.388L132.313 107.445H137.865Z" fill="#191C2F" stroke="white" stroke-miterlimit="10" stroke-linecap="round" stroke-linejoin="round"/>
<path d="M176.724 107.445L176.357 103.691H170.988L171.171 107.445H176.724Z" fill="#191C2F" stroke="white" stroke-miterlimit="10" stroke-linecap="round" stroke-linejoin="round"/>
<path d="M204.475 107.445L203.215 103.691H197.846L198.927 107.445H204.475Z" fill="#191C2F" stroke="white" stroke-miterlimit="10" stroke-linecap="round" stroke-linejoin="round"/>
<path d="M187.824 107.445L187.105 103.691H181.73L182.271 107.445H187.824Z" fill="#191C2F" stroke="white" stroke-miterlimit="10" stroke-linecap="round" stroke-linejoin="round"/>
<path d="M182.271 107.445L181.731 103.691H176.357L176.724 107.445H182.271Z" fill="#191C2F" stroke="white" stroke-miterlimit="10" stroke-linecap="round" stroke-linejoin="round"/>
<path d="M165.62 107.445L165.614 103.691H160.245L160.067 107.445H165.62Z" fill="#191C2F" stroke="white" stroke-miterlimit="10" stroke-linecap="round" stroke-linejoin="round"/>
<path d="M126.766 107.445H121.213L119.681 111.461H125.423L126.766 107.445Z" fill="#191C2F" stroke="white" stroke-miterlimit="10" stroke-linecap="round" stroke-linejoin="round"/>
<path d="M128.015 103.691H122.646L121.213 107.445H126.766L128.015 103.691Z" fill="#191C2F" stroke="white" stroke-miterlimit="10" stroke-linecap="round" stroke-linejoin="round"/>
<path d="M132.312 107.445L133.388 103.691H128.014L126.765 107.445H132.312Z" fill="#191C2F" stroke="white" stroke-miterlimit="10" stroke-linecap="round" stroke-linejoin="round"/>
<path d="M118.038 115.761L116.269 120.381H122.442L123.985 115.761H118.038Z" fill="#191C2F" stroke="white" stroke-miterlimit="10" stroke-linecap="round" stroke-linejoin="round"/>
<path d="M125.423 111.462H119.681L118.038 115.761H123.984L125.423 111.462Z" fill="#191C2F" stroke="white" stroke-miterlimit="10" stroke-linecap="round" stroke-linejoin="round"/>
<path d="M123.984 115.761L122.44 120.381H128.612L129.935 115.761H123.984Z" fill="#191C2F" stroke="white" stroke-miterlimit="10" stroke-linecap="round" stroke-linejoin="round"/>
<path d="M148.97 107.445L149.505 103.691H144.13L143.416 107.445H148.97Z" fill="#191C2F" stroke="white" stroke-miterlimit="10" stroke-linecap="round" stroke-linejoin="round"/>
<path d="M148.397 111.461L148.969 107.445H143.416L142.649 111.461H148.397Z" fill="#191C2F" stroke="white" stroke-miterlimit="10" stroke-linecap="round" stroke-linejoin="round"/>
<path d="M142.65 111.461L143.416 107.445H137.863L136.908 111.461H142.65Z" fill="#191C2F" stroke="white" stroke-miterlimit="10" stroke-linecap="round" stroke-linejoin="round"/>
<path d="M154.138 111.461L154.516 107.445H148.969L148.397 111.461H154.138Z" fill="#191C2F" stroke="white" stroke-miterlimit="10" stroke-linecap="round" stroke-linejoin="round"/>
<path d="M132.313 107.445H126.765L125.422 111.461H131.164L132.313 107.445Z" fill="#191C2F" stroke="white" stroke-miterlimit="10" stroke-linecap="round" stroke-linejoin="round"/>
<path d="M201.321 115.761H207.272L205.824 111.462H200.082L201.321 115.761Z" fill="#191C2F" stroke="white" stroke-miterlimit="10" stroke-linecap="round" stroke-linejoin="round"/>
<path d="M136.909 111.461L137.865 107.445H132.312L131.163 111.461H136.909Z" fill="#191C2F" stroke="white" stroke-miterlimit="10" stroke-linecap="round" stroke-linejoin="round"/>
<path d="M125.422 111.462L123.984 115.761H129.935L131.164 111.462H125.422Z" fill="#191C2F" stroke="white" stroke-miterlimit="10" stroke-linecap="round" stroke-linejoin="round"/>
<path d="M188.595 111.461L187.823 107.445H182.271L182.853 111.461H188.595Z" fill="#191C2F" stroke="white" stroke-miterlimit="10" stroke-linecap="round" stroke-linejoin="round"/>
<path d="M182.855 111.461L182.272 107.445H176.725L177.108 111.461H182.855Z" fill="#191C2F" stroke="white" stroke-miterlimit="10" stroke-linecap="round" stroke-linejoin="round"/>
<path d="M200.082 111.461L198.927 107.445H193.375L194.34 111.461H200.082Z" fill="#191C2F" stroke="white" stroke-miterlimit="10" stroke-linecap="round" stroke-linejoin="round"/>
<path d="M165.625 111.461L165.62 107.445H160.067L159.878 111.461H165.625Z" fill="#191C2F" stroke="white" stroke-miterlimit="10" stroke-linecap="round" stroke-linejoin="round"/>
<path d="M177.107 111.461L176.724 107.445H171.171L171.366 111.461H177.107Z" fill="#191C2F" stroke="white" stroke-miterlimit="10" stroke-linecap="round" stroke-linejoin="round"/>
<path d="M171.366 111.461L171.172 107.445H165.619L165.625 111.461H171.366Z" fill="#191C2F" stroke="white" stroke-miterlimit="10" stroke-linecap="round" stroke-linejoin="round"/>
<path d="M159.879 111.461L160.068 107.445H154.515L154.137 111.461H159.879Z" fill="#191C2F" stroke="white" stroke-miterlimit="10" stroke-linecap="round" stroke-linejoin="round"/>
<path d="M177.107 111.462L177.527 115.761H183.473L182.854 111.462H177.107Z" fill="#191C2F" stroke="white" stroke-miterlimit="10" stroke-linecap="round" stroke-linejoin="round"/>
<path d="M182.853 111.462L183.472 115.761H189.424L188.595 111.462H182.853Z" fill="#191C2F" stroke="white" stroke-miterlimit="10" stroke-linecap="round" stroke-linejoin="round"/>
<path d="M131.163 111.462L129.934 115.761H135.881L136.909 111.462H131.163Z" fill="#191C2F" stroke="white" stroke-miterlimit="10" stroke-linecap="round" stroke-linejoin="round"/>
<path d="M188.594 111.462L189.424 115.761H195.37L194.341 111.462H188.594Z" fill="#191C2F" stroke="white" stroke-miterlimit="10" stroke-linecap="round" stroke-linejoin="round"/>
<path d="M165.624 111.462V115.761H171.576L171.366 111.462H165.624Z" fill="#191C2F" stroke="white" stroke-miterlimit="10" stroke-linecap="round" stroke-linejoin="round"/>
<path d="M194.341 111.462L195.369 115.761H201.321L200.082 111.462H194.341Z" fill="#191C2F" stroke="white" stroke-miterlimit="10" stroke-linecap="round" stroke-linejoin="round"/>
<path d="M171.365 111.462L171.575 115.761H177.527L177.107 111.462H171.365Z" fill="#191C2F" stroke="white" stroke-miterlimit="10" stroke-linecap="round" stroke-linejoin="round"/>
<path d="M142.65 111.462L141.831 115.761H147.783L148.397 111.462H142.65Z" fill="#191C2F" stroke="white" stroke-miterlimit="10" stroke-linecap="round" stroke-linejoin="round"/>
<path d="M136.909 111.462L135.881 115.761H141.832L142.651 111.462H136.909Z" fill="#191C2F" stroke="white" stroke-miterlimit="10" stroke-linecap="round" stroke-linejoin="round"/>
<path d="M159.879 111.462L159.679 115.761H165.625V111.462H159.879Z" fill="#191C2F" stroke="white" stroke-miterlimit="10" stroke-linecap="round" stroke-linejoin="round"/>
<path d="M154.137 111.462L153.728 115.761H159.68L159.879 111.462H154.137Z" fill="#191C2F" stroke="white" stroke-miterlimit="10" stroke-linecap="round" stroke-linejoin="round"/>
<path d="M148.397 111.462L147.782 115.761H153.728L154.138 111.462H148.397Z" fill="#191C2F" stroke="white" stroke-miterlimit="10" stroke-linecap="round" stroke-linejoin="round"/>
<path d="M194.342 111.461L193.376 107.445H187.823L188.595 111.461H194.342Z" fill="#191C2F" stroke="white" stroke-miterlimit="10" stroke-linecap="round" stroke-linejoin="round"/>
<path d="M128.015 103.691L129.301 99.8474H124.116L122.646 103.691H128.015Z" fill="#191C2F" stroke="white" stroke-miterlimit="10" stroke-linecap="round" stroke-linejoin="round"/>
<path d="M122.647 103.691H117.687L116.085 107.445H121.213L122.647 103.691Z" fill="#191C2F" stroke="white" stroke-miterlimit="10" stroke-linecap="round" stroke-linejoin="round"/>
<path d="M124.117 99.8474H119.325L117.687 103.691H122.647L124.117 99.8474Z" fill="#191C2F" stroke="white" stroke-miterlimit="10" stroke-linecap="round" stroke-linejoin="round"/>
<path d="M121.213 107.445H116.087L114.375 111.461H119.682L121.213 107.445Z" fill="#191C2F" stroke="white" stroke-miterlimit="10" stroke-linecap="round" stroke-linejoin="round"/>
<path d="M119.681 111.462H114.375L112.543 115.761H118.038L119.681 111.462Z" fill="#191C2F" stroke="white" stroke-miterlimit="10" stroke-linecap="round" stroke-linejoin="round"/>
<path d="M118.039 115.761H112.544L110.576 120.381H116.27L118.039 115.761Z" fill="#191C2F" stroke="white" stroke-miterlimit="10" stroke-linecap="round" stroke-linejoin="round"/>
<path d="M210.026 107.445L211.569 111.461H216.65L214.939 107.445H210.026Z" fill="#191C2F" stroke="white" stroke-miterlimit="10" stroke-linecap="round" stroke-linejoin="round"/>
<path d="M213.217 115.761H218.481L216.649 111.462H211.569L213.217 115.761Z" fill="#191C2F" stroke="white" stroke-miterlimit="10" stroke-linecap="round" stroke-linejoin="round"/>
<path d="M214.99 120.381H220.449L218.48 115.761H213.216L214.99 120.381Z" fill="#191C2F" stroke="white" stroke-miterlimit="10" stroke-linecap="round" stroke-linejoin="round"/>
<path d="M170.989 103.691L170.8 99.8474H165.615V103.691H170.989Z" fill="#191C2F" stroke="white" stroke-miterlimit="10" stroke-linecap="round" stroke-linejoin="round"/>
<path d="M210.027 107.445H214.939L213.338 103.691H208.588L210.027 107.445Z" fill="#191C2F" stroke="white" stroke-miterlimit="10" stroke-linecap="round" stroke-linejoin="round"/>
<path d="M207.27 115.761H213.217L211.569 111.462H205.822L207.27 115.761Z" fill="#191C2F" stroke="white" stroke-miterlimit="10" stroke-linecap="round" stroke-linejoin="round"/>
<path d="M133.388 103.691L134.49 99.8474H129.299L128.013 103.691H133.388Z" fill="#191C2F" stroke="white" stroke-miterlimit="10" stroke-linecap="round" stroke-linejoin="round"/>
<path d="M203.214 103.691L204.473 107.445H210.026L208.588 103.691H203.214Z" fill="#191C2F" stroke="white" stroke-miterlimit="10" stroke-linecap="round" stroke-linejoin="round"/>
<path d="M213.338 103.691L211.701 99.8474H207.114L208.589 103.691H213.338Z" fill="#191C2F" stroke="white" stroke-miterlimit="10" stroke-linecap="round" stroke-linejoin="round"/>
<path d="M208.588 103.691L207.113 99.8474H201.923L203.214 103.691H208.588Z" fill="#191C2F" stroke="white" stroke-miterlimit="10" stroke-linecap="round" stroke-linejoin="round"/>
<path d="M189.423 115.761L190.311 120.381H196.482L195.37 115.761H189.423Z" fill="#191C2F" stroke="white" stroke-miterlimit="10" stroke-linecap="round" stroke-linejoin="round"/>
<path d="M208.819 120.381H214.991L213.217 115.761H207.27L208.819 120.381Z" fill="#191C2F" stroke="white" stroke-miterlimit="10" stroke-linecap="round" stroke-linejoin="round"/>
<path d="M203.214 103.691L201.923 99.8474H196.738L197.845 103.691H203.214Z" fill="#191C2F" stroke="white" stroke-miterlimit="10" stroke-linecap="round" stroke-linejoin="round"/>
<path d="M201.32 115.761L202.653 120.381H208.82L207.272 115.761H201.32Z" fill="#191C2F" stroke="white" stroke-miterlimit="10" stroke-linecap="round" stroke-linejoin="round"/>
<path d="M195.369 115.761L196.482 120.381H202.654L201.321 115.761H195.369Z" fill="#191C2F" stroke="white" stroke-miterlimit="10" stroke-linecap="round" stroke-linejoin="round"/>
<path d="M205.822 111.461H211.568L210.026 107.445H204.473L205.822 111.461Z" fill="#191C2F" stroke="white" stroke-miterlimit="10" stroke-linecap="round" stroke-linejoin="round"/>
<path d="M154.872 103.691L155.239 99.8474H150.049L149.503 103.691H154.872Z" fill="#191C2F" stroke="white" stroke-miterlimit="10" stroke-linecap="round" stroke-linejoin="round"/>
<path d="M197.846 103.691L196.739 99.8474H191.548L192.471 103.691H197.846Z" fill="#191C2F" stroke="white" stroke-miterlimit="10" stroke-linecap="round" stroke-linejoin="round"/>
<path d="M149.504 103.691L150.05 99.8474H144.864L144.13 103.691H149.504Z" fill="#191C2F" stroke="white" stroke-miterlimit="10" stroke-linecap="round" stroke-linejoin="round"/>
<path d="M165.614 103.691V99.8474H160.424L160.246 103.691H165.614Z" fill="#191C2F" stroke="white" stroke-miterlimit="10" stroke-linecap="round" stroke-linejoin="round"/>
<path d="M144.131 103.691L144.866 99.8474H139.675L138.762 103.691H144.131Z" fill="#191C2F" stroke="white" stroke-miterlimit="10" stroke-linecap="round" stroke-linejoin="round"/>
<path d="M138.762 103.691L139.676 99.8474H134.49L133.388 103.691H138.762Z" fill="#191C2F" stroke="white" stroke-miterlimit="10" stroke-linecap="round" stroke-linejoin="round"/>
<path d="M160.246 103.691L160.424 99.8474H155.24L154.871 103.691H160.246Z" fill="#191C2F" stroke="white" stroke-miterlimit="10" stroke-linecap="round" stroke-linejoin="round"/>
<path d="M192.473 103.691L191.549 99.8474H186.363L187.104 103.691H192.473Z" fill="#191C2F" stroke="white" stroke-miterlimit="10" stroke-linecap="round" stroke-linejoin="round"/>
<path d="M187.105 103.691L186.365 99.8474H181.174L181.73 103.691H187.105Z" fill="#191C2F" stroke="white" stroke-miterlimit="10" stroke-linecap="round" stroke-linejoin="round"/>
<path d="M176.357 103.691L175.989 99.8474H170.798L170.987 103.691H176.357Z" fill="#191C2F" stroke="white" stroke-miterlimit="10" stroke-linecap="round" stroke-linejoin="round"/>
<path d="M189.424 115.761H183.472H177.527H171.576H165.625H159.679H153.728H147.783H141.831H135.881H129.935L128.612 120.381H134.784H140.95H147.121H153.293H159.464H165.63H171.802H177.973H184.139H190.31L189.424 115.761Z" fill="#191C2F" stroke="white" stroke-miterlimit="10" stroke-linecap="round" stroke-linejoin="round"/>
<path d="M181.73 103.691L181.174 99.8474H175.988L176.356 103.691H181.73Z" fill="#191C2F" stroke="white" stroke-miterlimit="10" stroke-linecap="round" stroke-linejoin="round"/>
<path d="M230.445 128.498H98.2341V130.377H230.445V128.498Z" fill="#191C2F" stroke="#191C2F" stroke-miterlimit="10" stroke-linecap="round" stroke-linejoin="round"/>
<path d="M181.079 117.866H180.958" stroke="#191C2F" stroke-miterlimit="10" stroke-linecap="round" stroke-linejoin="round"/>
<path d="M129.902 93.9619H183.036" stroke="#191C2F" stroke-width="0.25" stroke-miterlimit="10" stroke-linecap="round" stroke-linejoin="round"/>
<path d="M187.577 160.611L138.62 161C137.575 161.01 136.834 160.383 136.968 159.616L140.076 141.253C140.174 140.672 140.978 140.203 141.871 140.198L183.817 140.006C184.697 140.003 185.505 140.463 185.616 141.039L189.171 159.218C189.319 159.972 188.604 160.607 187.577 160.611Z" fill="#3C3B6E" stroke="#3C3B6E" stroke-miterlimit="10" stroke-linecap="round" stroke-linejoin="round"/>
<path d="M164.365 143.299H179.723" stroke="#3C3B6E" stroke-miterlimit="10" stroke-linecap="round" stroke-linejoin="round"/>
<path d="M156.444 144.6H179.723" stroke="#3C3B6E" stroke-miterlimit="10" stroke-linecap="round" stroke-linejoin="round"/>
<path d="M155.809 155.822C146.489 158.789 140.523 159.312 137.045 159.137L136.933 159.803C136.821 160.468 137.46 161.01 138.358 161L187.832 160.611C188.717 160.602 189.333 160.062 189.203 159.4L187.064 148.456C174.15 148.125 170.416 151.176 155.809 155.822Z" fill="#B22234" stroke="#3C3B6E" stroke-miterlimit="10" stroke-linecap="round" stroke-linejoin="round"/>
<path d="M147.808 147.977L143.94 147.999C143.583 147.999 143.319 147.807 143.351 147.561L143.686 145.104C143.717 144.871 144.025 144.679 144.378 144.679L148.147 144.662C148.496 144.662 148.759 144.846 148.737 145.082L148.5 147.536C148.478 147.772 148.165 147.972 147.808 147.977Z" fill="white" stroke="#3C3B6E" stroke-miterlimit="10" stroke-linecap="round" stroke-linejoin="round"/>
<path d="M146.491 146.82L145.535 146.824C145.36 146.824 145.231 146.73 145.244 146.615L145.32 146.007C145.334 145.89 145.486 145.797 145.66 145.797L146.611 145.792C146.785 145.792 146.915 145.887 146.901 146.002L146.834 146.61C146.816 146.722 146.665 146.82 146.491 146.82Z" fill="white" stroke="#3C3B6E" stroke-miterlimit="10" stroke-linecap="round" stroke-linejoin="round"/>
<path d="M143.695 145.046L145.173 145.038C145.463 145.038 145.677 145.189 145.651 145.381L145.602 145.797" stroke="#3C3B6E" stroke-miterlimit="10" stroke-linecap="round" stroke-linejoin="round"/>
<path d="M148.745 145.019L147.284 145.029C146.994 145.029 146.744 145.189 146.722 145.381L146.677 145.797" stroke="#3C3B6E" stroke-miterlimit="10" stroke-linecap="round" stroke-linejoin="round"/>
<path d="M143.342 147.651L144.851 147.642C145.146 147.642 145.405 147.476 145.428 147.281L145.477 146.856" stroke="#3C3B6E" stroke-miterlimit="10" stroke-linecap="round" stroke-linejoin="round"/>
<path d="M148.49 147.62L147.003 147.629C146.708 147.629 146.49 147.467 146.512 147.27L146.561 146.846" stroke="#3C3B6E" stroke-miterlimit="10" stroke-linecap="round" stroke-linejoin="round"/>
<path d="M143.521 146.4L145.272 146.391" stroke="#3C3B6E" stroke-miterlimit="10" stroke-linecap="round" stroke-linejoin="round"/>
<path d="M146.811 146.382L148.557 146.374" stroke="#3C3B6E" stroke-miterlimit="10" stroke-linecap="round" stroke-linejoin="round"/>
<path d="M142.94 153.154C142.851 153.128 142.784 153.087 142.734 153.038C142.685 152.989 142.645 152.931 142.618 152.86C142.591 152.789 142.574 152.716 142.574 152.644C142.569 152.573 142.574 152.488 142.587 152.403C142.659 151.877 142.953 151.609 143.462 151.604C143.972 151.6 144.195 151.864 144.128 152.39C144.119 152.475 144.101 152.556 144.079 152.631C144.056 152.707 144.021 152.778 143.976 152.85C143.931 152.921 143.878 152.98 143.811 153.03C143.748 153.079 143.668 153.118 143.574 153.15C143.48 153.181 143.373 153.194 143.253 153.194C143.128 153.194 143.025 153.181 142.94 153.154ZM143.427 152.994C143.476 152.98 143.516 152.962 143.552 152.935C143.588 152.913 143.619 152.882 143.646 152.85C143.672 152.814 143.695 152.784 143.713 152.748C143.73 152.712 143.744 152.672 143.757 152.631C143.771 152.587 143.78 152.546 143.788 152.51C143.797 152.475 143.802 152.436 143.806 152.39C143.811 152.346 143.815 152.305 143.82 152.266C143.82 152.23 143.82 152.184 143.82 152.145C143.815 152.099 143.811 152.064 143.802 152.028C143.793 151.993 143.78 151.962 143.762 151.926C143.744 151.894 143.722 151.869 143.69 151.845C143.663 151.823 143.628 151.806 143.583 151.792C143.538 151.779 143.489 151.774 143.436 151.774C143.378 151.774 143.329 151.784 143.279 151.796C143.235 151.809 143.194 151.828 143.159 151.85C143.128 151.872 143.096 151.899 143.065 151.93C143.038 151.962 143.016 151.998 142.998 152.033C142.98 152.069 142.967 152.11 142.953 152.149C142.94 152.195 142.927 152.234 142.922 152.269C142.913 152.305 142.909 152.351 142.9 152.395C142.895 152.439 142.891 152.475 142.886 152.515C142.882 152.551 142.882 152.592 142.886 152.636C142.886 152.68 142.895 152.721 142.9 152.753C142.909 152.789 142.922 152.819 142.94 152.855C142.958 152.891 142.98 152.918 143.011 152.94C143.038 152.962 143.074 152.98 143.119 152.994C143.163 153.006 143.212 153.016 143.271 153.016C143.329 153.016 143.382 153.011 143.427 152.994Z" fill="white"/>
<path d="M145.088 153.137C144.999 153.11 144.932 153.069 144.878 153.02C144.829 152.972 144.789 152.913 144.758 152.842C144.731 152.77 144.713 152.699 144.708 152.628C144.704 152.551 144.704 152.472 144.717 152.387C144.78 151.859 145.07 151.592 145.579 151.592C146.089 151.587 146.316 151.85 146.258 152.378C146.249 152.463 146.231 152.543 146.209 152.619C146.187 152.694 146.156 152.767 146.111 152.833C146.066 152.905 146.013 152.962 145.95 153.011C145.888 153.061 145.807 153.101 145.713 153.132C145.62 153.164 145.512 153.178 145.392 153.178C145.276 153.181 145.173 153.168 145.088 153.137ZM145.57 152.981C145.62 152.967 145.66 152.949 145.691 152.923C145.727 152.899 145.754 152.869 145.78 152.838C145.807 152.803 145.829 152.77 145.847 152.735C145.865 152.699 145.879 152.658 145.892 152.619C145.905 152.574 145.914 152.534 145.919 152.499C145.923 152.463 145.932 152.422 145.937 152.378C145.941 152.332 145.946 152.293 145.946 152.253C145.946 152.217 145.946 152.173 145.941 152.132C145.937 152.088 145.932 152.052 145.923 152.017C145.914 151.979 145.901 151.949 145.879 151.913C145.861 151.883 145.834 151.855 145.807 151.833C145.78 151.811 145.745 151.793 145.7 151.779C145.655 151.766 145.606 151.762 145.553 151.762C145.495 151.762 145.446 151.771 145.401 151.784C145.356 151.798 145.316 151.815 145.28 151.837C145.249 151.859 145.218 151.886 145.191 151.918C145.164 151.949 145.142 151.984 145.124 152.02C145.106 152.056 145.093 152.097 145.079 152.137C145.066 152.181 145.057 152.222 145.048 152.258C145.039 152.293 145.035 152.338 145.03 152.382C145.026 152.428 145.021 152.463 145.021 152.502C145.021 152.538 145.021 152.579 145.021 152.623C145.026 152.669 145.03 152.708 145.039 152.74C145.048 152.776 145.061 152.806 145.079 152.842C145.097 152.877 145.124 152.905 145.151 152.927C145.177 152.949 145.213 152.967 145.258 152.981C145.303 152.995 145.352 153.003 145.41 153.003C145.472 153.003 145.526 152.998 145.57 152.981Z" fill="white"/>
<path d="M147.231 153.124C147.142 153.097 147.07 153.056 147.021 153.008C146.967 152.959 146.927 152.9 146.9 152.828C146.869 152.757 146.856 152.686 146.847 152.614C146.842 152.543 146.842 152.463 146.851 152.373C146.909 151.845 147.191 151.579 147.704 151.579C148.213 151.574 148.446 151.837 148.397 152.365C148.388 152.45 148.374 152.53 148.352 152.606C148.33 152.681 148.298 152.754 148.258 152.82C148.213 152.891 148.164 152.949 148.102 152.998C148.039 153.047 147.963 153.088 147.869 153.119C147.776 153.151 147.668 153.164 147.552 153.168C147.423 153.168 147.32 153.154 147.231 153.124ZM147.713 152.967C147.762 152.954 147.803 152.935 147.834 152.91C147.869 152.886 147.896 152.855 147.923 152.825C147.95 152.789 147.972 152.757 147.986 152.721C148.004 152.686 148.017 152.645 148.03 152.606C148.044 152.56 148.053 152.521 148.057 152.485C148.062 152.45 148.066 152.409 148.07 152.365C148.075 152.319 148.079 152.28 148.079 152.239C148.079 152.204 148.079 152.159 148.075 152.119C148.07 152.075 148.066 152.039 148.053 152.003C148.044 151.968 148.026 151.935 148.008 151.9C147.99 151.869 147.963 151.842 147.937 151.82C147.91 151.798 147.869 151.779 147.829 151.766C147.785 151.752 147.736 151.749 147.682 151.749C147.624 151.749 147.575 151.757 147.53 151.771C147.486 151.784 147.445 151.801 147.414 151.823C147.383 151.845 147.351 151.873 147.325 151.905C147.298 151.935 147.276 151.971 147.262 152.007C147.244 152.042 147.231 152.078 147.217 152.124C147.204 152.168 147.195 152.209 147.191 152.244C147.186 152.28 147.177 152.324 147.173 152.368C147.168 152.414 147.164 152.45 147.164 152.489C147.164 152.524 147.164 152.565 147.168 152.609C147.173 152.655 147.177 152.694 147.186 152.726C147.195 152.762 147.209 152.793 147.231 152.828C147.249 152.864 147.276 152.891 147.302 152.913C147.329 152.935 147.369 152.954 147.41 152.967C147.454 152.981 147.503 152.99 147.561 152.99C147.615 152.99 147.668 152.981 147.713 152.967Z" fill="white"/>
<path d="M149.374 153.11C149.285 153.083 149.213 153.044 149.16 152.994C149.106 152.945 149.066 152.886 149.035 152.814C149.004 152.743 148.986 152.672 148.977 152.6C148.968 152.529 148.968 152.449 148.977 152.359C149.026 151.833 149.303 151.565 149.816 151.565C150.326 151.56 150.562 151.823 150.518 152.351C150.509 152.436 150.5 152.516 150.477 152.592C150.46 152.668 150.428 152.74 150.384 152.806C150.343 152.877 150.29 152.935 150.227 152.984C150.165 153.033 150.089 153.074 149.995 153.105C149.901 153.137 149.794 153.151 149.678 153.151C149.566 153.154 149.464 153.14 149.374 153.11ZM149.857 152.954C149.901 152.94 149.942 152.923 149.977 152.896C150.009 152.874 150.04 152.842 150.067 152.811C150.093 152.775 150.111 152.743 150.129 152.707C150.147 152.672 150.16 152.633 150.169 152.592C150.178 152.548 150.187 152.507 150.196 152.472C150.201 152.436 150.205 152.395 150.21 152.354C150.214 152.31 150.214 152.269 150.214 152.23C150.214 152.195 150.214 152.149 150.21 152.11C150.205 152.064 150.196 152.028 150.187 151.993C150.178 151.957 150.16 151.927 150.142 151.891C150.12 151.859 150.098 151.833 150.067 151.809C150.035 151.787 150 151.77 149.959 151.757C149.915 151.743 149.866 151.738 149.812 151.738C149.758 151.738 149.705 151.748 149.66 151.76C149.615 151.774 149.575 151.792 149.544 151.815C149.513 151.837 149.481 151.864 149.455 151.894C149.428 151.927 149.406 151.962 149.392 151.998C149.374 152.034 149.361 152.069 149.352 152.113C149.339 152.159 149.33 152.198 149.325 152.234C149.321 152.269 149.316 152.315 149.312 152.359C149.307 152.404 149.307 152.439 149.307 152.48C149.307 152.516 149.307 152.556 149.312 152.6C149.316 152.645 149.321 152.685 149.334 152.718C149.343 152.753 149.361 152.784 149.379 152.819C149.397 152.855 149.423 152.882 149.45 152.904C149.477 152.926 149.517 152.945 149.562 152.959C149.607 152.971 149.656 152.981 149.714 152.976C149.758 152.976 149.808 152.967 149.857 152.954Z" fill="white"/>
<path d="M153.938 153.079C153.849 153.052 153.777 153.012 153.724 152.962C153.67 152.913 153.625 152.855 153.594 152.784C153.563 152.713 153.541 152.641 153.532 152.57C153.523 152.499 153.518 152.417 153.523 152.329C153.554 151.801 153.822 151.538 154.331 151.533C154.84 151.53 155.082 151.793 155.059 152.319C155.055 152.404 155.046 152.485 155.028 152.562C155.01 152.636 154.983 152.708 154.943 152.776C154.903 152.847 154.854 152.905 154.796 152.954C154.738 153.003 154.662 153.044 154.568 153.074C154.474 153.107 154.371 153.118 154.251 153.118C154.13 153.124 154.027 153.11 153.938 153.079ZM154.412 152.923C154.456 152.91 154.496 152.891 154.528 152.864C154.559 152.842 154.59 152.811 154.613 152.779C154.639 152.743 154.657 152.713 154.671 152.677C154.684 152.641 154.697 152.601 154.706 152.562C154.715 152.516 154.724 152.477 154.729 152.439C154.733 152.404 154.738 152.365 154.738 152.324C154.738 152.28 154.742 152.239 154.738 152.198C154.738 152.163 154.733 152.124 154.729 152.078C154.724 152.034 154.715 151.998 154.702 151.962C154.688 151.927 154.675 151.896 154.653 151.864C154.63 151.833 154.608 151.806 154.577 151.784C154.546 151.762 154.51 151.743 154.465 151.73C154.421 151.716 154.371 151.713 154.313 151.713C154.255 151.713 154.206 151.721 154.162 151.735C154.117 151.749 154.077 151.766 154.045 151.788C154.014 151.811 153.987 151.837 153.961 151.869C153.934 151.9 153.916 151.935 153.902 151.971C153.889 152.007 153.876 152.042 153.867 152.088C153.858 152.132 153.849 152.173 153.844 152.209C153.84 152.244 153.835 152.288 153.835 152.333C153.831 152.373 153.831 152.414 153.831 152.453C153.831 152.489 153.835 152.529 153.84 152.574C153.844 152.619 153.853 152.658 153.867 152.691C153.88 152.726 153.893 152.757 153.916 152.793C153.938 152.828 153.961 152.855 153.992 152.877C154.023 152.899 154.059 152.918 154.103 152.932C154.148 152.945 154.197 152.954 154.255 152.949C154.313 152.945 154.367 152.937 154.412 152.923Z" fill="white"/>
<path d="M156.077 153.066C155.987 153.039 155.916 152.998 155.858 152.949C155.804 152.899 155.759 152.842 155.724 152.77C155.688 152.699 155.666 152.628 155.657 152.557C155.643 152.485 155.643 152.404 155.643 152.315C155.666 151.788 155.929 151.524 156.443 151.519C156.952 151.516 157.198 151.779 157.184 152.305C157.18 152.39 157.171 152.472 157.157 152.548C157.14 152.619 157.113 152.694 157.077 152.762C157.037 152.833 156.992 152.891 156.93 152.94C156.871 152.989 156.796 153.03 156.702 153.061C156.608 153.093 156.505 153.105 156.385 153.105C156.273 153.11 156.166 153.096 156.077 153.066ZM156.55 152.91C156.595 152.896 156.635 152.877 156.666 152.85C156.697 152.828 156.724 152.798 156.751 152.765C156.773 152.73 156.796 152.699 156.809 152.663C156.822 152.628 156.836 152.587 156.845 152.548C156.854 152.502 156.858 152.463 156.863 152.428C156.867 152.39 156.867 152.351 156.871 152.31C156.871 152.266 156.871 152.225 156.871 152.185C156.871 152.149 156.867 152.11 156.858 152.064C156.849 152.02 156.84 151.984 156.831 151.949C156.818 151.913 156.8 151.883 156.782 151.85C156.76 151.82 156.733 151.793 156.702 151.771C156.671 151.749 156.635 151.73 156.59 151.716C156.545 151.703 156.496 151.699 156.438 151.699C156.385 151.699 156.331 151.708 156.287 151.721C156.242 151.735 156.202 151.752 156.17 151.774C156.139 151.798 156.112 151.823 156.086 151.855C156.063 151.886 156.041 151.922 156.027 151.957C156.014 151.993 156.001 152.029 155.992 152.074C155.983 152.119 155.974 152.159 155.969 152.195C155.965 152.231 155.96 152.275 155.96 152.319C155.96 152.36 155.96 152.4 155.96 152.439C155.96 152.475 155.965 152.516 155.969 152.56C155.974 152.606 155.983 152.641 155.996 152.677C156.009 152.713 156.023 152.743 156.045 152.779C156.068 152.815 156.094 152.842 156.121 152.864C156.152 152.888 156.188 152.904 156.233 152.918C156.278 152.932 156.327 152.94 156.385 152.935C156.452 152.932 156.501 152.923 156.55 152.91Z" fill="white"/>
<path d="M158.216 153.052C158.127 153.025 158.051 152.984 157.997 152.936C157.944 152.887 157.894 152.828 157.863 152.757C157.828 152.685 157.805 152.614 157.792 152.543C157.778 152.471 157.774 152.392 157.778 152.302C157.792 151.774 158.055 151.511 158.564 151.507C159.074 151.502 159.324 151.765 159.315 152.293C159.315 152.378 159.306 152.458 159.292 152.534C159.279 152.605 159.252 152.682 159.216 152.748C159.181 152.819 159.132 152.877 159.074 152.926C159.015 152.976 158.94 153.016 158.85 153.047C158.756 153.079 158.654 153.093 158.538 153.093C158.412 153.093 158.305 153.079 158.216 153.052ZM158.685 152.896C158.73 152.882 158.77 152.863 158.801 152.838C158.832 152.814 158.859 152.784 158.882 152.753C158.904 152.717 158.922 152.685 158.94 152.65C158.953 152.614 158.966 152.573 158.975 152.534C158.984 152.488 158.989 152.449 158.993 152.414C158.998 152.378 158.998 152.337 158.998 152.297C158.998 152.252 158.998 152.212 158.998 152.173C158.998 152.137 158.993 152.096 158.984 152.052C158.975 152.006 158.966 151.971 158.953 151.935C158.94 151.899 158.922 151.869 158.899 151.836C158.877 151.806 158.85 151.779 158.819 151.757C158.788 151.735 158.752 151.716 158.707 151.702C158.663 151.689 158.613 151.685 158.555 151.685C158.502 151.685 158.448 151.694 158.404 151.707C158.359 151.721 158.319 151.738 158.292 151.762C158.261 151.784 158.234 151.809 158.212 151.842C158.189 151.872 158.167 151.908 158.153 151.943C158.14 151.979 158.127 152.016 158.118 152.061C158.109 152.105 158.104 152.145 158.1 152.181C158.095 152.217 158.095 152.261 158.095 152.307C158.095 152.346 158.095 152.386 158.095 152.427C158.095 152.463 158.1 152.502 158.109 152.548C158.118 152.592 158.127 152.628 158.136 152.663C158.149 152.699 158.167 152.729 158.189 152.767C158.212 152.802 158.238 152.828 158.27 152.852C158.301 152.874 158.337 152.891 158.381 152.904C158.426 152.918 158.48 152.926 158.533 152.923C158.587 152.918 158.64 152.909 158.685 152.896Z" fill="white"/>
<path d="M160.351 153.039C160.261 153.012 160.185 152.971 160.132 152.922C160.074 152.874 160.029 152.815 159.994 152.743C159.958 152.672 159.935 152.601 159.922 152.529C159.909 152.458 159.904 152.378 159.904 152.288C159.909 151.76 160.168 151.497 160.677 151.494C161.186 151.489 161.44 151.752 161.44 152.28C161.44 152.365 161.436 152.445 161.418 152.521C161.405 152.592 161.378 152.669 161.342 152.735C161.307 152.806 161.257 152.864 161.204 152.913C161.146 152.962 161.074 153.003 160.98 153.034C160.891 153.066 160.784 153.079 160.668 153.079C160.547 153.079 160.445 153.066 160.351 153.039ZM160.82 152.883C160.864 152.869 160.905 152.85 160.936 152.825C160.967 152.801 160.994 152.77 161.016 152.74C161.039 152.704 161.056 152.672 161.07 152.636C161.083 152.601 161.092 152.56 161.101 152.521C161.11 152.475 161.114 152.436 161.114 152.4C161.119 152.365 161.119 152.324 161.119 152.283C161.119 152.239 161.119 152.198 161.114 152.159C161.11 152.124 161.106 152.083 161.097 152.039C161.088 151.993 161.079 151.957 161.065 151.922C161.052 151.886 161.034 151.856 161.012 151.823C160.989 151.793 160.963 151.766 160.931 151.743C160.9 151.721 160.864 151.703 160.82 151.689C160.775 151.676 160.726 151.672 160.668 151.672C160.614 151.672 160.561 151.681 160.516 151.694C160.471 151.708 160.436 151.725 160.404 151.749C160.373 151.771 160.346 151.796 160.324 151.828C160.302 151.859 160.284 151.895 160.27 151.93C160.257 151.966 160.248 152.003 160.239 152.047C160.23 152.091 160.226 152.132 160.221 152.168C160.217 152.204 160.217 152.248 160.217 152.293C160.217 152.333 160.217 152.373 160.221 152.414C160.221 152.45 160.23 152.489 160.235 152.535C160.244 152.579 160.253 152.619 160.266 152.65C160.279 152.686 160.297 152.716 160.319 152.754C160.342 152.789 160.369 152.815 160.4 152.838C160.431 152.86 160.467 152.877 160.516 152.891C160.561 152.905 160.614 152.913 160.668 152.91C160.721 152.905 160.775 152.896 160.82 152.883Z" fill="white"/>
<path d="M164.901 153.008C164.807 152.981 164.736 152.94 164.678 152.891C164.619 152.842 164.57 152.784 164.535 152.713C164.499 152.641 164.468 152.57 164.454 152.499C164.436 152.428 164.427 152.346 164.427 152.258C164.414 151.73 164.664 151.467 165.173 151.462C165.682 151.458 165.941 151.721 165.964 152.244C165.968 152.329 165.964 152.409 165.95 152.485C165.937 152.557 165.915 152.633 165.883 152.699C165.848 152.77 165.803 152.828 165.75 152.877C165.696 152.927 165.62 152.967 165.531 152.998C165.441 153.03 165.339 153.044 165.218 153.044C165.097 153.052 164.99 153.034 164.901 153.008ZM165.361 152.852C165.406 152.838 165.441 152.82 165.472 152.793C165.504 152.77 165.531 152.74 165.553 152.708C165.575 152.672 165.593 152.641 165.602 152.606C165.615 152.57 165.624 152.529 165.629 152.489C165.633 152.445 165.638 152.404 165.642 152.368C165.642 152.333 165.642 152.293 165.642 152.253C165.642 152.209 165.638 152.168 165.633 152.127C165.629 152.091 165.624 152.052 165.615 152.007C165.607 151.962 165.593 151.927 165.58 151.891C165.566 151.856 165.549 151.823 165.522 151.793C165.499 151.762 165.468 151.735 165.437 151.713C165.406 151.689 165.365 151.672 165.321 151.659C165.276 151.645 165.227 151.642 165.169 151.642C165.111 151.642 165.062 151.65 165.017 151.664C164.972 151.677 164.937 151.694 164.905 151.716C164.874 151.738 164.847 151.766 164.825 151.798C164.803 151.828 164.785 151.864 164.776 151.9C164.762 151.935 164.753 151.971 164.749 152.017C164.74 152.061 164.736 152.1 164.736 152.137C164.736 152.173 164.736 152.217 164.736 152.261C164.736 152.302 164.74 152.343 164.745 152.382C164.749 152.417 164.754 152.458 164.762 152.502C164.771 152.548 164.785 152.587 164.798 152.619C164.812 152.655 164.829 152.686 164.856 152.721C164.879 152.757 164.91 152.784 164.937 152.806C164.968 152.828 165.008 152.847 165.053 152.86C165.097 152.874 165.151 152.883 165.205 152.883C165.263 152.874 165.316 152.864 165.361 152.852Z" fill="white"/>
<path d="M167.031 152.994C166.938 152.967 166.862 152.926 166.804 152.877C166.746 152.828 166.696 152.77 166.656 152.699C166.616 152.628 166.589 152.556 166.571 152.485C166.553 152.414 166.545 152.332 166.54 152.244C166.518 151.716 166.763 151.453 167.273 151.448C167.782 151.444 168.045 151.702 168.072 152.23C168.076 152.315 168.072 152.395 168.063 152.471C168.054 152.543 168.032 152.619 168.001 152.685C167.969 152.757 167.925 152.814 167.871 152.864C167.817 152.913 167.746 152.953 167.657 152.984C167.567 153.016 167.465 153.03 167.344 153.03C167.228 153.033 167.125 153.021 167.031 152.994ZM167.491 152.838C167.536 152.824 167.572 152.806 167.603 152.779C167.634 152.757 167.657 152.726 167.679 152.694C167.701 152.658 167.715 152.628 167.728 152.592C167.742 152.556 167.751 152.516 167.755 152.476C167.759 152.431 167.764 152.392 167.764 152.354C167.764 152.319 167.764 152.28 167.764 152.239C167.759 152.195 167.759 152.154 167.755 152.113C167.751 152.078 167.742 152.039 167.733 151.993C167.724 151.949 167.71 151.913 167.697 151.877C167.683 151.842 167.661 151.811 167.639 151.779C167.616 151.748 167.585 151.721 167.554 151.699C167.523 151.677 167.482 151.658 167.438 151.645C167.393 151.631 167.344 151.628 167.286 151.628C167.228 151.628 167.179 151.636 167.139 151.65C167.094 151.663 167.058 151.68 167.027 151.702C166.996 151.726 166.973 151.752 166.951 151.784C166.929 151.814 166.911 151.85 166.902 151.886C166.889 151.921 166.884 151.957 166.875 152.003C166.871 152.047 166.866 152.088 166.862 152.123C166.862 152.159 166.862 152.203 166.862 152.247C166.862 152.288 166.866 152.329 166.871 152.368C166.875 152.403 166.88 152.444 166.893 152.488C166.902 152.534 166.915 152.57 166.929 152.605C166.942 152.641 166.964 152.672 166.987 152.707C167.009 152.743 167.04 152.77 167.072 152.792C167.103 152.814 167.143 152.833 167.188 152.847C167.232 152.86 167.286 152.869 167.34 152.869C167.393 152.86 167.447 152.852 167.491 152.838Z" fill="white"/>
<path d="M169.161 152.981C169.068 152.954 168.992 152.913 168.934 152.864C168.875 152.814 168.826 152.757 168.786 152.685C168.746 152.614 168.719 152.543 168.697 152.472C168.679 152.4 168.666 152.319 168.661 152.231C168.634 151.703 168.871 151.439 169.38 151.434C169.885 151.431 170.157 151.689 170.193 152.217C170.197 152.302 170.197 152.382 170.189 152.458C170.18 152.529 170.157 152.606 170.126 152.672C170.095 152.743 170.05 152.801 169.996 152.85C169.943 152.899 169.872 152.94 169.782 152.971C169.693 153.003 169.59 153.016 169.474 153.016C169.358 153.02 169.255 153.008 169.161 152.981ZM169.617 152.825C169.662 152.811 169.697 152.792 169.729 152.765C169.76 152.743 169.782 152.716 169.804 152.68C169.827 152.645 169.84 152.614 169.854 152.578C169.863 152.543 169.871 152.502 169.876 152.463C169.88 152.417 169.885 152.378 169.885 152.341C169.885 152.305 169.885 152.266 169.88 152.225C169.876 152.181 169.872 152.141 169.867 152.1C169.863 152.064 169.854 152.025 169.845 151.979C169.836 151.935 169.822 151.899 169.804 151.864C169.791 151.828 169.769 151.798 169.742 151.765C169.715 151.735 169.688 151.708 169.657 151.686C169.626 151.664 169.586 151.645 169.541 151.631C169.496 151.618 169.447 151.614 169.389 151.614C169.335 151.614 169.282 151.623 169.242 151.636C169.197 151.65 169.161 151.667 169.134 151.689C169.103 151.713 169.081 151.738 169.059 151.77C169.036 151.801 169.023 151.837 169.009 151.872C169 151.908 168.992 151.944 168.987 151.989C168.983 152.034 168.978 152.074 168.978 152.11C168.978 152.146 168.978 152.19 168.983 152.234C168.987 152.275 168.987 152.315 168.992 152.354C168.996 152.39 169.005 152.431 169.014 152.475C169.023 152.521 169.036 152.556 169.05 152.592C169.063 152.628 169.085 152.658 169.112 152.694C169.139 152.73 169.166 152.757 169.197 152.779C169.228 152.801 169.269 152.82 169.313 152.833C169.358 152.847 169.411 152.855 169.465 152.85C169.523 152.842 169.572 152.838 169.617 152.825Z" fill="white"/>
<path d="M171.291 152.962C171.198 152.936 171.122 152.896 171.064 152.846C171.006 152.797 170.952 152.739 170.912 152.668C170.872 152.597 170.84 152.524 170.823 152.453C170.805 152.381 170.791 152.302 170.782 152.212C170.747 151.685 170.979 151.422 171.488 151.422C171.993 151.417 172.27 151.677 172.31 152.203C172.319 152.288 172.314 152.368 172.31 152.444C172.301 152.515 172.283 152.592 172.252 152.658C172.22 152.731 172.18 152.789 172.127 152.838C172.073 152.887 172.001 152.926 171.917 152.958C171.827 152.989 171.725 153.003 171.609 153.003C171.488 153.008 171.385 152.994 171.291 152.962ZM171.742 152.811C171.787 152.797 171.823 152.779 171.854 152.753C171.885 152.731 171.908 152.704 171.93 152.668C171.952 152.633 171.966 152.6 171.975 152.565C171.984 152.529 171.993 152.488 171.997 152.449C172.001 152.403 172.001 152.364 172.001 152.329C172.001 152.293 171.997 152.252 171.997 152.212C171.993 152.167 171.988 152.127 171.984 152.091C171.979 152.055 171.97 152.016 171.957 151.97C171.943 151.926 171.93 151.891 171.917 151.855C171.899 151.819 171.881 151.787 171.854 151.757C171.827 151.726 171.801 151.699 171.769 151.677C171.738 151.653 171.698 151.636 171.653 151.623C171.609 151.609 171.559 151.606 171.501 151.606C171.448 151.606 171.394 151.614 171.354 151.628C171.309 151.641 171.274 151.658 171.247 151.68C171.22 151.702 171.193 151.729 171.171 151.762C171.148 151.792 171.135 151.828 171.126 151.864C171.117 151.899 171.108 151.935 171.104 151.981C171.099 152.025 171.095 152.064 171.095 152.101C171.095 152.137 171.095 152.181 171.099 152.225C171.104 152.266 171.108 152.307 171.113 152.342C171.117 152.378 171.126 152.417 171.135 152.463C171.144 152.507 171.157 152.543 171.175 152.578C171.189 152.614 171.211 152.646 171.238 152.682C171.265 152.717 171.291 152.743 171.323 152.767C171.354 152.789 171.394 152.806 171.439 152.819C171.483 152.833 171.537 152.841 171.591 152.838C171.649 152.828 171.698 152.824 171.742 152.811Z" fill="white"/>
<path d="M175.825 152.935C175.731 152.91 175.655 152.869 175.592 152.82C175.53 152.77 175.476 152.713 175.436 152.641C175.391 152.57 175.36 152.499 175.338 152.427C175.315 152.354 175.302 152.275 175.293 152.185C175.24 151.658 175.463 151.395 175.972 151.395C176.477 151.39 176.762 151.65 176.82 152.176C176.829 152.261 176.834 152.343 176.825 152.417C176.82 152.489 176.803 152.565 176.776 152.633C176.749 152.704 176.709 152.762 176.655 152.811C176.606 152.86 176.535 152.899 176.45 152.932C176.36 152.962 176.262 152.976 176.142 152.976C176.021 152.976 175.918 152.962 175.825 152.935ZM176.271 152.779C176.316 152.765 176.352 152.748 176.378 152.721C176.405 152.699 176.432 152.668 176.45 152.636C176.468 152.601 176.481 152.57 176.495 152.534C176.503 152.499 176.508 152.458 176.512 152.417C176.517 152.373 176.517 152.332 176.512 152.297C176.512 152.261 176.508 152.22 176.503 152.181C176.499 152.137 176.495 152.096 176.486 152.056C176.477 152.02 176.468 151.979 176.454 151.935C176.441 151.891 176.427 151.855 176.41 151.82C176.392 151.784 176.369 151.752 176.343 151.721C176.316 151.689 176.285 151.664 176.253 151.64C176.222 151.618 176.182 151.601 176.133 151.587C176.088 151.574 176.034 151.568 175.981 151.568C175.927 151.568 175.878 151.579 175.834 151.592C175.789 151.604 175.753 151.623 175.726 151.645C175.7 151.667 175.673 151.694 175.655 151.725C175.637 151.757 175.619 151.793 175.61 151.828C175.601 151.864 175.597 151.899 175.592 151.944C175.588 151.989 175.588 152.029 175.588 152.064C175.588 152.1 175.592 152.146 175.597 152.19C175.601 152.231 175.606 152.27 175.615 152.305C175.619 152.343 175.633 152.382 175.642 152.427C175.655 152.472 175.668 152.507 175.686 152.543C175.704 152.579 175.726 152.609 175.753 152.645C175.78 152.68 175.811 152.708 175.843 152.73C175.874 152.753 175.914 152.77 175.963 152.784C176.008 152.797 176.061 152.806 176.119 152.803C176.177 152.803 176.226 152.792 176.271 152.779Z" fill="white"/>
<path d="M177.945 152.921C177.852 152.896 177.771 152.855 177.709 152.806C177.646 152.756 177.593 152.699 177.548 152.627C177.503 152.556 177.472 152.485 177.445 152.414C177.423 152.341 177.405 152.261 177.396 152.171C177.334 151.645 177.557 151.385 178.062 151.381C178.566 151.376 178.852 151.636 178.924 152.162C178.933 152.247 178.937 152.329 178.933 152.4C178.928 152.471 178.915 152.543 178.888 152.614C178.861 152.685 178.821 152.743 178.772 152.792C178.723 152.841 178.651 152.882 178.566 152.913C178.481 152.945 178.379 152.958 178.258 152.958C178.146 152.962 178.039 152.948 177.945 152.921ZM178.392 152.765C178.437 152.753 178.473 152.734 178.499 152.707C178.526 152.685 178.548 152.658 178.571 152.622C178.589 152.587 178.602 152.556 178.611 152.52C178.62 152.485 178.624 152.444 178.629 152.403C178.629 152.359 178.629 152.318 178.629 152.283C178.629 152.247 178.624 152.208 178.615 152.167C178.611 152.123 178.602 152.083 178.597 152.047C178.589 152.011 178.58 151.97 178.566 151.926C178.553 151.88 178.535 151.845 178.522 151.809C178.504 151.774 178.481 151.743 178.455 151.711C178.428 151.68 178.396 151.653 178.365 151.631C178.334 151.609 178.294 151.59 178.245 151.578C178.2 151.565 178.146 151.56 178.093 151.56C178.039 151.56 177.99 151.568 177.945 151.582C177.901 151.595 177.87 151.614 177.838 151.636C177.812 151.658 177.789 151.685 177.767 151.716C177.749 151.748 177.736 151.784 177.727 151.819C177.718 151.855 177.713 151.891 177.709 151.935C177.704 151.979 177.704 152.02 177.709 152.055C177.709 152.091 177.713 152.135 177.722 152.181C177.727 152.22 177.731 152.261 177.74 152.296C177.749 152.332 177.758 152.373 177.771 152.417C177.785 152.463 177.798 152.498 177.816 152.534C177.834 152.57 177.856 152.6 177.883 152.636C177.91 152.672 177.941 152.699 177.972 152.721C178.003 152.743 178.044 152.761 178.093 152.775C178.142 152.789 178.191 152.797 178.249 152.792C178.298 152.784 178.347 152.778 178.392 152.765Z" fill="white"/>
<path d="M180.071 152.905C179.977 152.877 179.897 152.837 179.834 152.789C179.772 152.74 179.718 152.681 179.674 152.609C179.629 152.538 179.593 152.467 179.571 152.395C179.548 152.324 179.531 152.244 179.517 152.154C179.446 151.626 179.665 151.368 180.169 151.363C180.674 151.36 180.964 151.618 181.04 152.146C181.053 152.231 181.058 152.311 181.053 152.382C181.049 152.453 181.036 152.524 181.009 152.596C180.982 152.669 180.946 152.726 180.897 152.776C180.848 152.825 180.781 152.864 180.692 152.896C180.607 152.927 180.504 152.94 180.388 152.94C180.272 152.949 180.165 152.935 180.071 152.905ZM180.513 152.748C180.558 152.735 180.594 152.716 180.62 152.691C180.647 152.669 180.67 152.642 180.687 152.606C180.705 152.57 180.719 152.538 180.728 152.502C180.736 152.467 180.741 152.426 180.741 152.387C180.741 152.341 180.741 152.302 180.736 152.266C180.732 152.231 180.728 152.19 180.723 152.149C180.719 152.105 180.71 152.064 180.701 152.029C180.692 151.993 180.683 151.954 180.67 151.908C180.656 151.864 180.638 151.828 180.62 151.793C180.602 151.757 180.58 151.725 180.553 151.694C180.527 151.664 180.495 151.637 180.46 151.615C180.424 151.591 180.388 151.574 180.339 151.56C180.294 151.547 180.241 151.542 180.187 151.542C180.134 151.542 180.084 151.552 180.04 151.565C179.999 151.579 179.964 151.596 179.937 151.618C179.91 151.64 179.888 151.667 179.87 151.699C179.852 151.73 179.839 151.766 179.83 151.801C179.821 151.837 179.817 151.873 179.817 151.918C179.812 151.963 179.817 152.002 179.817 152.039C179.821 152.075 179.825 152.119 179.83 152.159C179.834 152.198 179.843 152.239 179.848 152.275C179.857 152.311 179.866 152.351 179.879 152.395C179.892 152.44 179.91 152.475 179.928 152.511C179.946 152.546 179.968 152.579 179.995 152.614C180.022 152.65 180.053 152.677 180.084 152.699C180.12 152.721 180.16 152.74 180.205 152.752C180.254 152.765 180.303 152.776 180.361 152.776C180.419 152.771 180.469 152.765 180.513 152.748Z" fill="white"/>
<path d="M182.192 152.891C182.098 152.864 182.018 152.825 181.955 152.776C181.893 152.726 181.835 152.669 181.79 152.597C181.746 152.524 181.71 152.453 181.683 152.382C181.656 152.31 181.638 152.231 181.625 152.141C181.545 151.614 181.759 151.355 182.264 151.35C182.768 151.346 183.063 151.604 183.148 152.132C183.161 152.217 183.166 152.297 183.166 152.368C183.166 152.439 183.152 152.512 183.126 152.584C183.099 152.655 183.063 152.713 183.014 152.762C182.965 152.811 182.898 152.852 182.813 152.883C182.728 152.913 182.625 152.927 182.509 152.927C182.393 152.935 182.286 152.923 182.192 152.891ZM182.63 152.735C182.675 152.721 182.71 152.704 182.737 152.677C182.764 152.655 182.786 152.628 182.804 152.592C182.822 152.557 182.835 152.524 182.84 152.489C182.849 152.453 182.853 152.414 182.853 152.373C182.853 152.329 182.853 152.288 182.849 152.253C182.844 152.217 182.84 152.176 182.835 152.137C182.826 152.091 182.822 152.052 182.813 152.017C182.804 151.979 182.791 151.94 182.777 151.895C182.764 151.85 182.746 151.815 182.728 151.779C182.71 151.743 182.688 151.713 182.657 151.681C182.63 151.65 182.599 151.623 182.563 151.601C182.527 151.579 182.487 151.56 182.442 151.547C182.398 151.533 182.344 151.53 182.291 151.53C182.237 151.53 182.188 151.538 182.143 151.552C182.103 151.565 182.067 151.582 182.04 151.604C182.013 151.628 181.991 151.654 181.973 151.686C181.955 151.716 181.942 151.752 181.933 151.788C181.924 151.823 181.92 151.859 181.92 151.905C181.92 151.949 181.92 151.99 181.924 152.025C181.929 152.061 181.933 152.105 181.938 152.146C181.942 152.185 181.951 152.226 181.96 152.261C181.969 152.297 181.978 152.338 181.991 152.382C182.005 152.428 182.022 152.463 182.04 152.499C182.058 152.535 182.081 152.565 182.112 152.601C182.139 152.636 182.17 152.664 182.206 152.686C182.241 152.708 182.282 152.726 182.326 152.74C182.375 152.754 182.424 152.762 182.483 152.762C182.541 152.757 182.59 152.753 182.63 152.735Z" fill="white"/>
<path d="M180.661 156.787C180.804 157.824 179.764 158.687 178.335 158.699C176.905 158.709 175.659 157.863 175.552 156.822C175.45 155.8 176.495 154.97 177.888 154.959C179.277 154.956 180.518 155.764 180.661 156.787Z" fill="white" stroke="#3C3B6E" stroke-miterlimit="10" stroke-linecap="round" stroke-linejoin="round"/>
<path d="M184.127 156.765C184.297 157.802 183.278 158.663 181.849 158.677C180.42 158.685 179.156 157.841 179.022 156.805C178.893 155.782 179.915 154.956 181.309 154.946C182.702 154.929 183.962 155.742 184.127 156.765Z" fill="white" stroke="#3C3B6E" stroke-miterlimit="10" stroke-linecap="round" stroke-linejoin="round"/>
</svg>
