<svg width="168" height="131" viewBox="0 0 168 131" fill="none" xmlns="http://www.w3.org/2000/svg">
<g opacity="0.6">
<path d="M160.98 55.4032C159.851 48.9949 157.784 42.8622 154.787 37.229C149.524 27.3366 139.989 12.2805 128.223 6.42772C110.045 -2.61629 92.8568 -3.04696 76.1383 11.1651C59.4198 25.3771 46.4868 65.8598 40.3024 72.7505C34.1137 79.6411 17.2101 80.9331 9.82843 91.6998C2.4468 102.466 2.30037 127.876 2.30037 127.876H163.503C163.499 127.876 168.361 97.3803 160.98 55.4032Z" fill="#3C3B6E"/>
<path opacity="0.8" d="M160.98 55.4032C159.851 48.9949 157.784 42.8622 154.787 37.229C149.524 27.3366 139.989 12.2805 128.223 6.42772C110.045 -2.61629 92.8568 -3.04696 76.1383 11.1651C59.4198 25.3771 46.4868 65.8598 40.3024 72.7505C34.1137 79.6411 17.2101 80.9331 9.82843 91.6998C2.4468 102.466 2.30037 127.876 2.30037 127.876H163.503C163.499 127.876 168.361 97.3803 160.98 55.4032Z" fill="white"/>
<path d="M141.613 39.9379C139.692 38.8913 138.818 39.7613 138.12 38.8913C137.423 38.0171 140.041 35.7475 134.804 33.4778C134.804 33.4778 134.455 28.5898 127.298 28.4132C120.14 28.2366 122.061 33.3013 120.14 34.5244C118.219 35.7475 117.694 33.8267 115.773 35.0498C113.852 36.2729 114.727 38.7148 113.155 39.0636C111.583 39.4124 109.49 37.4917 107.569 38.7148C105.648 39.9378 105.648 40.9844 104.774 40.9844C103.9 40.9844 102.155 40.2867 101.109 40.9844C100.062 41.6821 98.8392 42.5563 98.8392 42.5563H143.013C143.013 42.5563 143.534 40.9844 141.613 39.9379Z" fill="white"/>
<path opacity="0.5" d="M141.613 39.9379C139.692 38.8913 138.818 39.7613 138.12 38.8913C137.423 38.0171 140.041 35.7475 134.804 33.4778C134.804 33.4778 134.455 28.5898 127.298 28.4132C120.14 28.2366 122.061 33.3013 120.14 34.5244C118.219 35.7475 117.694 33.8267 115.773 35.0498C113.852 36.2729 114.727 38.7148 113.155 39.0636C111.583 39.4124 109.49 37.4917 107.569 38.7148C105.648 39.9378 105.648 40.9844 104.774 40.9844C103.9 40.9844 102.155 40.2867 101.109 40.9844C100.062 41.6821 98.8392 42.5563 98.8392 42.5563H143.013C143.013 42.5563 143.534 40.9844 141.613 39.9379Z" fill="white"/>
<path d="M103.533 16.29C102.396 15.6699 101.88 16.1867 101.462 15.6699C101.048 15.1531 102.599 13.8051 99.4937 12.4614C99.4937 12.4614 99.287 9.563 95.0449 9.45964C90.8028 9.35628 91.9398 12.358 90.8028 13.0815C89.6659 13.8051 89.3558 12.6681 88.2145 13.3916C87.0776 14.1151 87.5944 15.5665 86.6641 15.7732C85.7339 15.9799 84.4893 14.843 83.3523 15.5665C82.2153 16.29 82.2153 16.9102 81.6985 16.9102C81.1817 16.9102 80.1481 16.4967 79.5237 16.9102C78.9035 17.3236 78.18 17.8404 78.18 17.8404H104.36C104.365 17.8404 104.675 16.9102 103.533 16.29Z" fill="white"/>
<path opacity="0.5" d="M103.533 16.29C102.396 15.6699 101.88 16.1867 101.462 15.6699C101.048 15.1531 102.599 13.8051 99.4937 12.4614C99.4937 12.4614 99.287 9.563 95.0449 9.45964C90.8028 9.35628 91.9398 12.358 90.8028 13.0815C89.6659 13.8051 89.3558 12.6681 88.2145 13.3916C87.0776 14.1151 87.5944 15.5665 86.6641 15.7732C85.7339 15.9799 84.4893 14.843 83.3523 15.5665C82.2153 16.29 82.2153 16.9102 81.6985 16.9102C81.1817 16.9102 80.1481 16.4967 79.5237 16.9102C78.9035 17.3236 78.18 17.8404 78.18 17.8404H104.36C104.365 17.8404 104.675 16.9102 103.533 16.29Z" fill="white"/>
<path d="M90.6091 57.8493C89.4721 57.2292 88.9553 57.746 88.5376 57.2292C88.1241 56.7124 89.6745 55.3644 86.5694 54.0207C86.5694 54.0207 86.3627 51.1223 82.1206 51.019C77.8786 50.9156 79.0155 53.9174 77.8786 54.6409C76.7416 55.3644 76.4315 54.2274 75.2903 54.951C74.1533 55.6745 74.6701 57.1258 73.7399 57.3325C72.8096 57.5393 71.565 56.4023 70.428 57.1258C69.2911 57.8493 69.2911 58.4695 68.7743 58.4695C68.2575 58.4695 67.2239 58.0561 66.5994 58.4695C65.9792 58.8829 65.2557 59.3997 65.2557 59.3997H91.436C91.436 59.404 91.7461 58.4695 90.6091 57.8493Z" fill="white"/>
<path opacity="0.5" d="M90.6091 57.8493C89.4721 57.2292 88.9553 57.746 88.5376 57.2292C88.1241 56.7124 89.6745 55.3644 86.5694 54.0207C86.5694 54.0207 86.3627 51.1223 82.1206 51.019C77.8786 50.9156 79.0155 53.9174 77.8786 54.6409C76.7416 55.3644 76.4315 54.2274 75.2903 54.951C74.1533 55.6745 74.6701 57.1258 73.7399 57.3325C72.8096 57.5393 71.565 56.4023 70.428 57.1258C69.2911 57.8493 69.2911 58.4695 68.7743 58.4695C68.2575 58.4695 67.2239 58.0561 66.5994 58.4695C65.9792 58.8829 65.2557 59.3997 65.2557 59.3997H91.436C91.436 59.404 91.7461 58.4695 90.6091 57.8493Z" fill="white"/>
<path d="M128.684 127.557H150.881C150.455 124.844 148.71 125.318 148.478 121.115C148.361 118.996 150.321 116.373 150.153 113.591C150.015 111.3 147.754 108.948 147.578 106.326C147.418 103.957 149.348 101.334 149.163 98.7802C148.986 96.3685 146.695 94.0558 146.492 91.5493C146.294 89.1031 148.185 86.4502 147.961 83.9782C147.737 81.5061 145.407 79.2365 145.157 76.799C144.903 74.2925 146.729 71.5965 146.449 69.1977C146.152 66.6524 143.753 64.456 143.426 62.1089C143.064 59.4991 144.765 56.7083 144.365 54.4559C143.878 51.6954 141.307 49.6971 140.765 47.66C139.757 43.8658 139.882 40.2052 138.693 39.9683C137.423 39.7142 137.134 43.3017 136.169 47.3069C135.687 49.3181 133.172 51.3594 132.758 54.1243C132.422 56.3638 134.201 59.0813 133.908 61.6825C133.646 64.0124 131.307 66.2476 131.079 68.7799C130.863 71.1615 132.763 73.7843 132.578 76.2735C132.397 78.6939 130.123 80.998 129.968 83.4571C129.813 85.9076 131.768 88.4873 131.634 90.9162C131.497 93.4012 129.266 95.7526 129.154 98.1428C129.033 100.671 131.031 103.225 130.932 105.572C130.825 108.173 128.624 110.555 128.546 112.829C128.447 115.589 130.476 118.139 130.411 120.236C130.273 124.797 128.189 123.854 128.112 127.523L128.684 127.557Z" fill="#3C3B6E"/>
<path d="M138.211 47.272V126.532" stroke="#191C2F" stroke-miterlimit="10"/>
<path d="M141.677 55.5797L138.064 58.702L135.105 54.7571" stroke="#191C2F" stroke-miterlimit="10"/>
<path d="M141.677 69.3782L138.064 72.4963L135.105 68.5557" stroke="#191C2F" stroke-miterlimit="10"/>
<path d="M141.677 82.3498L138.064 85.4721L135.105 81.5315" stroke="#191C2F" stroke-miterlimit="10"/>
<path d="M141.677 97.7895L138.064 100.912L135.105 96.9712" stroke="#191C2F" stroke-miterlimit="10"/>
<path d="M141.677 113.392L138.064 116.515L135.105 112.574" stroke="#191C2F" stroke-miterlimit="10"/>
<path d="M105.333 127.557H124.58C124.21 125.201 122.698 125.615 122.5 121.971C122.401 120.132 124.098 117.863 123.951 115.447C123.831 113.457 121.871 111.42 121.716 109.146C121.578 107.092 123.253 104.818 123.09 102.604C122.935 100.511 120.949 98.5085 120.773 96.3337C120.601 94.2148 122.241 91.9107 122.048 89.7703C121.854 87.6256 119.834 85.6574 119.619 83.5429C119.399 81.3723 120.984 79.0338 120.743 76.9536C120.484 74.7486 118.404 72.8408 118.12 70.808C117.806 68.5427 119.278 66.1267 118.934 64.1714C118.512 61.7769 116.281 60.0456 115.812 58.2799C114.937 54.9896 115.045 51.8156 114.016 51.6089C112.913 51.3892 112.663 54.4987 111.828 57.9741C111.41 59.7183 109.231 61.4884 108.869 63.8872C108.581 65.8252 110.118 68.1853 109.868 70.4419C109.644 72.4618 107.612 74.3998 107.414 76.5962C107.228 78.6591 108.874 80.9373 108.714 83.095C108.555 85.1923 106.587 87.1949 106.453 89.3224C106.315 91.4499 108.016 93.6851 107.9 95.791C107.78 97.9487 105.846 99.9814 105.747 102.057C105.644 104.249 107.375 106.463 107.289 108.5C107.194 110.757 105.29 112.824 105.217 114.792C105.131 117.187 106.888 119.396 106.836 121.218C106.72 125.175 104.907 124.353 104.842 127.535L105.333 127.557Z" fill="#3C3B6E"/>
<path d="M113.593 57.9353V126.67" stroke="#191C2F" stroke-miterlimit="10"/>
<path d="M116.6 65.1405L113.469 67.8494L110.902 64.4299" stroke="#191C2F" stroke-miterlimit="10"/>
<path d="M116.6 77.1046L113.469 79.8135L110.902 76.394" stroke="#191C2F" stroke-miterlimit="10"/>
<path d="M116.6 88.3578L113.469 91.0624L110.902 87.6472" stroke="#191C2F" stroke-miterlimit="10"/>
<path d="M116.6 101.747L113.469 104.452L110.902 101.032" stroke="#191C2F" stroke-miterlimit="10"/>
<path d="M116.6 115.274L113.469 117.983L110.902 114.564" stroke="#191C2F" stroke-miterlimit="10"/>
<path d="M31.8315 127.557H58.6018C58.0893 124.284 55.9834 124.857 55.7077 119.784C55.5656 117.23 57.93 114.064 57.7276 110.71C57.5596 107.945 54.8335 105.111 54.6225 101.945C54.433 99.0901 56.7586 95.9247 56.5303 92.8454C56.315 89.9384 53.5544 87.1477 53.3089 84.1244C53.0721 81.1744 55.3503 77.9745 55.079 74.9943C54.812 72.0098 51.9954 69.2707 51.6982 66.3336C51.3925 63.3103 53.5975 60.0588 53.2572 57.169C52.8998 54.0983 50.0014 51.4497 49.6095 48.6202C49.1702 45.472 51.2245 42.1085 50.7421 39.391C50.1521 36.062 47.0556 33.6502 46.401 31.1954C45.1865 26.6174 45.3373 22.2031 43.9032 21.9189C42.37 21.6131 42.0211 25.937 40.8626 30.7734C40.2812 33.2023 37.2493 35.6615 36.7498 38.9948C36.3449 41.6951 38.4897 44.9768 38.1365 48.112C37.8221 50.92 35.0013 53.6203 34.7256 56.6737C34.4672 59.5463 36.7584 62.7117 36.5344 65.7134C36.3148 68.629 33.5758 71.4154 33.3863 74.3784C33.1968 77.3371 35.5611 80.4465 35.3975 83.3751C35.2338 86.3725 32.5422 89.2063 32.4043 92.0918C32.2579 95.1452 34.6653 98.2245 34.5491 101.054C34.4199 104.189 31.767 107.066 31.6679 109.809C31.5516 113.138 33.9935 116.213 33.9203 118.746C33.7566 124.25 31.2372 123.108 31.1468 127.536L31.8315 127.557Z" fill="#3C3B6E"/>
<path d="M43.3213 30.7173V126.321" stroke="#191C2F" stroke-miterlimit="10"/>
<path d="M47.5033 40.7432L43.145 44.5073L39.579 39.7527" stroke="#191C2F" stroke-miterlimit="10"/>
<path d="M47.5033 57.3799L43.145 61.144L39.579 56.3894" stroke="#191C2F" stroke-miterlimit="10"/>
<path d="M47.5033 73.0303L43.145 76.7944L39.579 72.0398" stroke="#191C2F" stroke-miterlimit="10"/>
<path d="M47.5033 91.6522L43.145 95.4162L39.579 90.6616" stroke="#191C2F" stroke-miterlimit="10"/>
<path d="M47.5033 110.473L43.145 114.237L39.579 109.482" stroke="#191C2F" stroke-miterlimit="10"/>
<path d="M167.121 125.852H0.999985V129.077H167.121V125.852Z" fill="white" stroke="#191C2F" stroke-miterlimit="10" stroke-linecap="round" stroke-linejoin="round"/>
<path d="M167.121 128.315H0.999969V129.831H167.121V128.315Z" fill="#191C2F" stroke="#191C2F" stroke-miterlimit="10" stroke-linecap="round" stroke-linejoin="round"/>
<path d="M62.4432 92.1909H62.2106C61.2158 92.1909 60.5138 91.2176 60.8196 90.2701C61.1124 89.3657 61.6077 88.457 62.4432 88.3149C64.1659 88.0263 68.9032 89.4648 68.9032 90.4682C68.9032 91.4717 68.9032 91.9023 68.3304 91.9023C67.7576 91.9023 64.743 91.9023 64.743 91.9023L61.8704 95.0591L61.8101 95.0074C61.1684 94.482 61.1857 93.526 61.8058 92.979C62.0384 92.7766 62.2623 92.5139 62.4432 92.1909Z" fill="#191C2F" stroke="#191C2F" stroke-miterlimit="10" stroke-linecap="round" stroke-linejoin="round"/>
<path d="M94.8856 118.892H142.548C142.548 118.892 149.438 114.297 148.004 102.238C146.57 90.1796 138.818 98.2201 135.945 106.256H114.701C114.701 106.256 110.105 97.0703 102.642 98.2158C95.1741 99.37 94.8856 118.892 94.8856 118.892Z" fill="#191C2F" stroke="#191C2F" stroke-miterlimit="10" stroke-linecap="round" stroke-linejoin="round"/>
<path d="M106.595 116.507C106.595 112.967 105.579 109.775 103.959 107.527V104.168H98.2144C93.5847 104.168 89.8293 109.693 89.8293 116.507C89.8293 123.324 93.5847 128.845 98.2144 128.845H103.959V125.486C105.583 123.234 106.595 120.047 106.595 116.507Z" fill="#191C2F" stroke="#191C2F" stroke-miterlimit="10" stroke-linecap="round" stroke-linejoin="round"/>
<path d="M103.959 128.845C108.59 128.845 112.344 123.321 112.344 116.507C112.344 109.692 108.59 104.168 103.959 104.168C99.3283 104.168 95.5742 109.692 95.5742 116.507C95.5742 123.321 99.3283 128.845 103.959 128.845Z" fill="#191C2F"/>
<path opacity="0.2" d="M103.959 128.845C108.59 128.845 112.344 123.321 112.344 116.507C112.344 109.692 108.59 104.168 103.959 104.168C99.3283 104.168 95.5742 109.692 95.5742 116.507C95.5742 123.321 99.3283 128.845 103.959 128.845Z" fill="white"/>
<path d="M103.959 128.845C108.59 128.845 112.344 123.321 112.344 116.507C112.344 109.692 108.59 104.168 103.959 104.168C99.3283 104.168 95.5742 109.692 95.5742 116.507C95.5742 123.321 99.3283 128.845 103.959 128.845Z" stroke="#191C2F" stroke-miterlimit="10" stroke-linecap="round" stroke-linejoin="round"/>
<path d="M54.803 104.163H49.3722C44.9967 104.163 41.448 109.689 41.448 116.502C41.448 123.319 44.9967 128.84 49.3722 128.84H54.803C59.1785 128.84 62.7272 123.315 62.7272 116.502C62.7272 109.689 59.1785 104.163 54.803 104.163Z" fill="#191C2F" stroke="#191C2F" stroke-miterlimit="10" stroke-linecap="round" stroke-linejoin="round"/>
<path d="M103.96 126.351C107.654 126.351 110.648 121.943 110.648 116.506C110.648 111.069 107.654 106.661 103.96 106.661C100.266 106.661 97.2714 111.069 97.2714 116.506C97.2714 121.943 100.266 126.351 103.96 126.351Z" fill="white" stroke="#191C2F" stroke-miterlimit="10" stroke-linecap="round" stroke-linejoin="round"/>
<path d="M145.859 116.507C145.859 112.967 145.213 109.775 144.18 107.527V104.168H139.106C136.161 104.168 133.771 109.693 133.771 116.507C133.771 123.324 136.161 128.845 139.106 128.845H144.18V125.486C145.213 123.234 145.859 120.047 145.859 116.507Z" fill="#191C2F" stroke="#191C2F" stroke-miterlimit="10" stroke-linecap="round" stroke-linejoin="round"/>
<path d="M144.179 128.845C147.126 128.845 149.515 123.321 149.515 116.507C149.515 109.692 147.126 104.168 144.179 104.168C141.232 104.168 138.843 109.692 138.843 116.507C138.843 123.321 141.232 128.845 144.179 128.845Z" fill="#191C2F"/>
<path opacity="0.2" d="M144.179 128.845C147.126 128.845 149.515 123.321 149.515 116.507C149.515 109.692 147.126 104.168 144.179 104.168C141.232 104.168 138.843 109.692 138.843 116.507C138.843 123.321 141.232 128.845 144.179 128.845Z" fill="white"/>
<path d="M144.179 128.845C147.126 128.845 149.515 123.321 149.515 116.507C149.515 109.692 147.126 104.168 144.179 104.168C141.232 104.168 138.843 109.692 138.843 116.507C138.843 123.321 141.232 128.845 144.179 128.845Z" stroke="#191C2F" stroke-miterlimit="10" stroke-linecap="round" stroke-linejoin="round"/>
<path d="M144.179 126.351C146.529 126.351 148.434 121.943 148.434 116.506C148.434 111.069 146.529 106.661 144.179 106.661C141.829 106.661 139.924 111.069 139.924 116.506C139.924 121.943 141.829 126.351 144.179 126.351Z" fill="white" stroke="#191C2F" stroke-miterlimit="10" stroke-linecap="round" stroke-linejoin="round"/>
<path d="M96.8928 119.517C96.8928 109.684 100.308 101.713 104.524 101.713C108.736 101.713 112.156 109.684 112.156 119.517C112.156 120.055 112.143 120.589 112.125 121.119H139.309C139.296 120.589 139.288 120.059 139.288 119.517C139.288 109.684 141.777 101.713 144.848 101.713C146.898 101.713 148.689 105.274 149.654 110.567V96.0452C149.654 94.68 148.681 93.5086 147.337 93.2588C147.294 93.2502 147.251 93.2416 147.203 93.233C145.321 92.854 141.928 89.2751 136.652 84.7531C131.376 80.2311 126.665 79.8564 126.665 79.8564H114.985H79.0675C78.1674 79.8564 77.2931 80.1536 76.5825 80.7049L60.3463 93.233C60.3463 93.233 45.8415 96.0581 42.6373 99.2623C39.4331 102.466 39.8121 121.119 39.8121 121.119H96.9315C96.9057 120.593 96.8928 120.059 96.8928 119.517Z" fill="#3C3B6E"/>
<path opacity="0.3" d="M106.315 93.2381L108.834 79.8616H79.0624C78.1623 79.8616 77.2881 80.1587 76.5775 80.71L60.3413 93.2381C60.3413 93.2381 45.8365 96.0633 42.6323 99.2674C39.4281 102.472 39.8071 121.124 39.8071 121.124H90.7723C91.1383 111.055 93.4467 106.261 93.4467 106.261H79.3768C90.2899 94.487 106.315 93.2381 106.315 93.2381Z" fill="#191C2F"/>
<path d="M96.8928 119.517C96.8928 109.684 100.308 101.713 104.524 101.713C108.736 101.713 112.156 109.684 112.156 119.517C112.156 120.055 112.143 120.589 112.125 121.119H139.309C139.296 120.589 139.288 120.059 139.288 119.517C139.288 109.684 141.777 101.713 144.848 101.713C146.898 101.713 148.689 105.274 149.654 110.567V96.0452C149.654 94.68 148.681 93.5086 147.337 93.2588C147.294 93.2502 147.251 93.2416 147.203 93.233C145.321 92.854 141.928 89.2751 136.652 84.7531C131.376 80.2311 126.665 79.8564 126.665 79.8564H114.985H79.0675C78.1674 79.8564 77.2931 80.1536 76.5825 80.7049L60.3463 93.233C60.3463 93.233 45.8415 96.0581 42.6373 99.2623C39.4331 102.466 39.8121 121.119 39.8121 121.119H96.9315C96.9057 120.593 96.8928 120.059 96.8928 119.517Z" stroke="#191C2F" stroke-miterlimit="10" stroke-linecap="round" stroke-linejoin="round"/>
<path d="M114.98 79.8606H79.0626C78.1625 79.8606 77.2882 80.1578 76.5776 80.709L60.3415 93.2371H106.311L114.98 79.8606Z" fill="#3C3B6E" stroke="#191C2F" stroke-miterlimit="10" stroke-linecap="round" stroke-linejoin="round"/>
<path d="M96.1687 98.2769C93.5847 98.307 89.0583 98.4793 87.0988 99.2674C84.2736 100.396 82.3873 101.528 82.3873 101.528H91.6208L96.1687 98.2769Z" fill="#191C2F"/>
<path d="M92.1846 104.353V102.656H82.3869L84.1613 104.292C84.1311 104.31 84.1053 104.331 84.0837 104.348H92.1846V104.353Z" fill="#191C2F"/>
<path d="M93.1233 101.902V104.366C93.7348 104.292 94.5057 104.025 95.0053 103.22C95.9485 101.713 98.0673 98.2717 98.0673 98.2717L93.1233 101.902Z" fill="#191C2F"/>
<path d="M43.5458 104.293L45.3201 102.656H41.1384C41.0092 103.186 40.8886 103.754 40.7809 104.353H43.6233C43.6018 104.331 43.5759 104.314 43.5458 104.293Z" fill="#191C2F"/>
<path d="M42.1463 99.9172C41.8879 100.352 41.6596 100.895 41.4572 101.528H45.3203C45.3203 101.528 44.0972 100.791 42.1463 99.9172Z" fill="#191C2F"/>
<path d="M106.315 93.2372H134.197C134.197 93.2372 138.155 91.9194 137.022 87.0184C136.639 85.356 128.732 81.5532 127.603 81.5532C126.475 81.5532 114.037 81.5532 114.037 81.5532L106.315 93.2372Z" fill="#191C2F"/>
<path opacity="0.2" d="M106.315 93.2372H134.197C134.197 93.2372 138.155 91.9194 137.022 87.0184C136.639 85.356 128.732 81.5532 127.603 81.5532C126.475 81.5532 114.037 81.5532 114.037 81.5532L106.315 93.2372Z" fill="white" stroke="#191C2F" stroke-miterlimit="10" stroke-linecap="round" stroke-linejoin="round"/>
<path d="M106.315 93.2372H134.197C134.197 93.2372 138.155 91.9194 137.022 87.0184C136.639 85.356 128.732 81.5532 127.603 81.5532C126.475 81.5532 114.037 81.5532 114.037 81.5532L106.315 93.2372Z" stroke="#191C2F" stroke-miterlimit="10" stroke-linecap="round" stroke-linejoin="round"/>
<path d="M75.4794 81.5576L60.3415 93.2373H106.315L113.882 81.5576H75.4794Z" fill="#191C2F" stroke="#191C2F" stroke-miterlimit="10" stroke-linecap="round" stroke-linejoin="round"/>
<path d="M46.0259 101.902V105.86L48.8511 107.932H71.6463L76.922 105.671V101.902H46.0259Z" fill="#191C2F" stroke="#191C2F" stroke-miterlimit="10" stroke-linecap="round" stroke-linejoin="round"/>
<path opacity="0.3" d="M47.0811 101.903H46.0259V102.958H47.0811V101.903Z" fill="white"/>
<path opacity="0.3" d="M48.244 103.069H47.1889V104.124H48.244V103.069Z" fill="white"/>
<path opacity="0.3" d="M49.411 104.232H48.3558V105.287H49.411V104.232Z" fill="white"/>
<path opacity="0.3" d="M50.5735 105.399H49.5184V106.454H50.5735V105.399Z" fill="white"/>
<path opacity="0.3" d="M76.7151 101.902H75.66V102.957H76.7151V101.902Z" fill="white"/>
<path opacity="0.3" d="M75.5484 103.069H74.4932V104.124H75.5484V103.069Z" fill="white"/>
<path opacity="0.3" d="M74.3852 104.232H73.3301V105.287H74.3852V104.232Z" fill="white"/>
<path opacity="0.3" d="M73.2226 105.399H72.1675V106.454H73.2226V105.399Z" fill="white"/>
<path opacity="0.3" d="M52.1931 105.399H51.1379V106.454H52.1931V105.399Z" fill="white"/>
<path opacity="0.3" d="M53.808 105.399H52.7529V106.454H53.808V105.399Z" fill="white"/>
<path opacity="0.3" d="M55.4274 105.399H54.3723V106.454H55.4274V105.399Z" fill="white"/>
<path opacity="0.3" d="M57.0469 105.399H55.9918V106.454H57.0469V105.399Z" fill="white"/>
<path opacity="0.3" d="M58.6617 105.399H57.6066V106.454H58.6617V105.399Z" fill="white"/>
<path opacity="0.3" d="M60.2808 105.399H59.2257V106.454H60.2808V105.399Z" fill="white"/>
<path opacity="0.3" d="M61.8964 105.399H60.8413V106.454H61.8964V105.399Z" fill="white"/>
<path opacity="0.3" d="M63.5151 105.399H62.46V106.454H63.5151V105.399Z" fill="white"/>
<path opacity="0.3" d="M65.1347 105.399H64.0796V106.454H65.1347V105.399Z" fill="white"/>
<path opacity="0.3" d="M66.7494 105.399H65.6943V106.454H66.7494V105.399Z" fill="white"/>
<path opacity="0.3" d="M68.3692 105.399H67.3141V106.454H68.3692V105.399Z" fill="white"/>
<path opacity="0.3" d="M69.9842 105.399H68.929V106.454H69.9842V105.399Z" fill="white"/>
<path opacity="0.3" d="M71.6031 105.399H70.548V106.454H71.6031V105.399Z" fill="white"/>
<path d="M87.8478 112.829H40.9395L40.3107 107.803C40.0222 110.563 39.893 113.509 39.837 115.925L40.0006 116.597L40.9438 114.715H44.9662L42.4511 116.786H79.7555L78.4248 114.715H87.8564L90.492 116.222H92.3741V106.614L87.8478 112.829Z" fill="#191C2F"/>
<path d="M116.13 92.1909H115.897C114.898 92.1909 114.201 91.2176 114.506 90.2701C114.799 89.3657 115.295 88.457 116.13 88.3149C117.853 88.0263 122.59 89.4648 122.59 90.4682C122.59 91.4717 122.59 91.9023 122.017 91.9023C121.444 91.9023 118.43 91.9023 118.43 91.9023L115.557 95.0591L115.497 95.0074C114.855 94.482 114.872 93.526 115.493 92.979C115.725 92.7766 115.953 92.5139 116.13 92.1909Z" fill="#3C3B6E"/>
<path d="M124.692 93.2373H126.264C126.096 90.9289 125.437 85.8341 122.848 81.5576C122.336 81.5576 121.806 81.5576 121.272 81.5576C122.185 83.5258 124.338 88.6033 124.692 93.2373Z" fill="#191C2F" stroke="#191C2F" stroke-miterlimit="10" stroke-linecap="round" stroke-linejoin="round"/>
<path d="M90.7208 84.7273L91.2936 86.3078C91.2936 86.3078 90.1438 87.3113 90.1438 88.8918C90.1438 90.0374 90.1438 92.1563 90.1438 93.2373H86.608L89.5667 84.7273H90.7208ZM74.2134 86.8806C71.7887 88.3578 68.128 91.6137 66.3537 93.2373H78.1583L84.2651 83.866L80.247 84.1545C80.2427 84.1502 77.5166 84.8694 74.2134 86.8806ZM98.6193 85.7307L97.1852 85.4422H95.174L94.6012 86.015C94.6012 86.015 96.0353 86.1571 96.1817 87.0185C96.3238 87.8798 96.3238 89.6025 96.3238 89.6025H97.3273C97.3273 89.6025 97.3273 88.0219 98.0465 87.307C98.7657 86.5878 99.3385 86.1571 99.3385 86.1571L98.6193 85.7307Z" fill="white" stroke="#191C2F" stroke-miterlimit="10" stroke-linecap="round" stroke-linejoin="round"/>
<path d="M115.497 95.0116L115.557 95.0633L118.43 91.9065C118.43 91.9065 121.445 91.9065 122.017 91.9065C122.491 91.9065 122.573 91.605 122.586 90.9375H114.455C114.554 91.6266 115.14 92.1951 115.898 92.1951H116.13C115.949 92.5181 115.725 92.7765 115.493 92.9875C114.873 93.5301 114.855 94.4905 115.497 95.0116Z" fill="#191C2F" stroke="#191C2F" stroke-miterlimit="10" stroke-linecap="round" stroke-linejoin="round"/>
<path d="M124.356 96.7041H121.126V97.3975H124.356V96.7041Z" fill="#191C2F"/>
<path d="M138.899 96.7041H135.669V97.3975H138.899V96.7041Z" fill="#191C2F"/>
<path d="M139.127 93.9351C139.127 93.9351 141.466 95.5199 142.823 101.088C142.823 101.088 137.052 101.782 137.052 117.708" stroke="#191C2F" stroke-miterlimit="10" stroke-linecap="round" stroke-linejoin="round"/>
<path d="M136.358 118.401H113.046H112.138C112.146 118.771 112.155 119.142 112.155 119.517C112.155 120.055 112.142 120.589 112.125 121.119H139.308C139.295 120.589 139.287 120.059 139.287 119.517C139.287 119.478 139.287 119.443 139.287 119.405L136.358 118.401Z" fill="#191C2F" stroke="#191C2F" stroke-miterlimit="10" stroke-linecap="round" stroke-linejoin="round"/>
<path d="M96.892 119.517C96.892 119.142 96.9006 118.772 96.9092 118.402H39.7985C39.7898 120.06 39.8071 121.119 39.8071 121.119H96.9265C96.9049 120.594 96.892 120.06 96.892 119.517Z" fill="#191C2F" stroke="#191C2F" stroke-miterlimit="10" stroke-linecap="round" stroke-linejoin="round"/>
<path d="M148.633 95.3218C147.72 95.3218 146.979 96.0625 146.979 96.9755C146.979 97.2512 147.048 97.5268 147.181 97.768L149.649 102.29V96.0496C149.649 95.7955 149.606 95.5543 149.541 95.3218H149.52H148.633Z" fill="#191C2F" stroke="#191C2F" stroke-miterlimit="10" stroke-linecap="round" stroke-linejoin="round"/>
<path d="M126.466 95.636C126.466 95.636 131.634 103.099 126.466 115.735" stroke="#191C2F" stroke-miterlimit="10" stroke-linecap="round" stroke-linejoin="round"/>
</g>
</svg>
