<svg width="184" height="35" viewBox="0 0 184 35" fill="none" xmlns="http://www.w3.org/2000/svg">
<path d="M10.8806 29.3853C10.3175 28.7789 8.54137 27.176 5.9855 26.6129L6.02882 10.6278L6.15878 10.4979C6.59197 10.9311 9.4944 13.4003 12.6134 13.4003C15.9057 13.4003 17.0321 10.9311 17.0321 10.4112H16.9887C13.1333 11.4509 9.97092 8.20194 9.19116 7.42218C9.10452 7.33554 8.97456 7.33554 8.88792 7.42218L5.42234 9.97805C5.42234 9.97805 3.51627 11.5809 1.30695 12.5339V27.3493C0.613837 27.6525 -0.0792801 28.7789 0.00735958 29.3853C0.00735958 29.4287 0.0506794 29.472 0.0939992 29.4287C3.90614 28.5189 7.11181 31.638 7.84825 32.461C7.93489 32.5044 8.06485 32.5477 8.15149 32.461C8.15149 32.461 12.8734 28.4323 15.5159 27.3926C15.6458 27.3493 15.7325 27.2193 15.7325 27.0894C15.7325 26.8728 15.5159 26.6995 15.2993 26.7428C13.5665 27.176 10.8806 29.3853 10.8806 29.3853ZM36.6536 27.7825C36.6103 27.7392 36.5236 27.7392 36.4803 27.7825C35.8305 28.259 35.0941 28.259 34.4876 27.7392L33.8378 27.176V12.8372C34.5742 12.5339 35.3107 12.0574 36.0471 11.4509C36.0904 11.4509 36.1338 11.321 36.1338 11.321C31.5852 12.0574 27.1665 7.2489 27.1665 7.2489C27.1665 7.2489 21.8815 11.9274 19.4123 12.6206C19.4123 12.6206 20.1054 16.9525 18.8491 17.2558C18.8491 17.2991 18.8491 17.2991 18.8491 17.3424C20.3653 18.0355 24.8706 18.1655 23.8309 10.8444C24.1342 10.6278 24.2641 10.4546 24.2641 10.4546C24.8273 11.061 26.6467 12.8372 29.1593 13.4003V16.2594L19.2823 22.3675C19.4123 22.5841 19.4556 22.844 19.4556 23.104V27.176C18.7625 27.5226 18.0693 28.6489 18.156 29.2121C18.156 29.2554 18.1993 29.2987 18.2427 29.2987C22.0548 28.389 25.2605 31.508 26.0402 32.2878C26.0836 32.3744 26.2135 32.3744 26.3001 32.3311L29.7657 29.7752L32.7115 32.3744C32.8414 32.5044 33.058 32.461 33.188 32.3311L36.6969 27.9991C36.7402 27.9125 36.7402 27.8258 36.6536 27.7825ZM29.2026 29.0821L29.0293 29.2121C28.4661 28.6056 26.69 27.0461 24.1342 26.4829V21.1546C24.1342 20.5914 24.4374 20.1149 24.9139 19.8117L29.1593 17.1691L29.2026 29.0821ZM46.837 27.8691C45.9273 28.2157 45.2342 28.3457 44.5845 27.7825L43.9347 27.2193V10.6712L44.108 10.5412C44.6711 11.1477 46.2738 13.0538 48.5698 13.0538C50.4325 13.0538 52.7285 11.9274 53.6815 9.84809C53.7249 9.80477 53.6815 9.71813 53.6382 9.76145C49.5661 11.061 47.0103 7.33554 47.0103 7.33554L43.9347 9.58817C41.7687 8.59182 40.8157 7.33554 40.8157 7.33554L37.8266 11.3643C37.8266 11.3643 38.3898 12.0141 39.2561 12.6206V27.4793C38.3465 28.2157 37.8266 29.1254 37.8266 29.1254C38.3464 28.7355 40.2958 30.2517 41.4655 31.2481L42.7651 32.4177C42.9384 32.5477 43.1549 32.5477 43.2849 32.3744L46.967 27.9558L46.837 27.8691ZM65.7073 16.6926L70.0393 11.8408C70.6891 11.1044 70.6458 10.3679 70.6458 10.3679C66.7903 11.4076 63.498 8.20194 62.7182 7.42218C62.6316 7.33554 62.5016 7.29222 62.415 7.37886L58.9494 9.93473C58.9494 9.93473 57.0433 11.5809 54.834 12.5339V19.725C56.5668 19.7683 58.9061 21.3278 59.7725 23.1473L55.3972 27.9991C54.7474 28.7789 54.834 29.472 54.834 29.472C58.6895 28.4323 61.9818 31.638 62.7615 32.461C62.8482 32.5044 62.9781 32.5477 63.0648 32.461L66.5304 29.9052C66.5304 29.9052 68.4364 28.259 70.6458 27.306V20.1582C68.913 20.0716 66.5737 18.5554 65.7073 16.6926ZM59.5126 17.0392L59.5559 10.5845L59.6858 10.4546C60.249 11.061 62.0684 12.6639 64.581 13.227C64.581 13.227 66.4437 13.6169 68.3065 12.9671L62.8049 19.2918C62.3283 18.6853 61.5486 17.8189 59.5126 17.0392ZM65.9672 29.2554L65.7939 29.3853C65.2308 28.7789 63.4113 27.176 60.8988 26.6129C60.8988 26.6129 59.036 26.1797 57.1733 26.8728L62.6749 20.5481C63.1514 21.1979 63.9312 22.0643 65.9672 22.8007V29.2554Z" fill="white"/>
<path d="M98.8493 29.6741C97.9396 30.0206 97.2465 30.1506 96.5967 29.5874L95.9469 29.0243C95.9469 29.0243 95.9469 25.602 95.9469 14.902C96.6833 14.5555 97.3764 14.0356 97.9829 13.3425C97.9829 13.2992 98.0262 13.2126 98.0262 13.2126C93.5209 13.949 89.2756 9.14049 89.2756 9.14049L86.1999 11.3931C86.1999 8.31741 86.1999 6.97449 86.1999 4.76518C86.8497 3.89879 87.2396 2.94575 87.2396 2.94575C84.3371 1.99271 83.0809 0 83.0809 0L80.0918 4.02875C80.0918 4.02875 80.655 4.67854 81.5214 5.28502C81.5214 8.05749 81.5214 29.2842 81.5214 29.2842C80.6116 30.0206 80.0918 30.9304 80.0918 30.9304C80.6116 30.5405 82.561 32.0567 83.7307 33.053L85.0303 34.2227C85.2035 34.3526 85.4201 34.3526 85.5501 34.1793L89.2323 29.7607L89.1023 29.6741C88.1926 30.0206 87.4995 30.1506 86.8497 29.5874L86.1999 29.0243C86.1999 29.0243 86.1999 20.4036 86.1999 12.4761L86.3732 12.3462C86.9363 12.9526 88.7558 14.8587 91.2683 15.4219C91.2683 26.685 91.2683 28.4178 91.2683 28.4178V29.2842C90.3586 30.0206 89.8388 30.9304 89.8388 30.9304C90.3586 30.5405 92.308 32.0567 93.4776 33.053L94.7772 34.2227C94.9505 34.3526 95.1671 34.3526 95.2971 34.1793L98.9792 29.7607L98.8493 29.6741ZM118.6 29.5874C118.557 29.5441 118.47 29.5441 118.427 29.5874C117.777 30.064 117.041 30.064 116.434 29.5441L115.785 28.981V14.6421C116.521 14.3389 117.257 13.8623 117.994 13.2559C118.037 13.2559 118.081 13.1259 118.081 13.1259C113.532 13.8623 109.113 9.05385 109.113 9.05385C109.113 9.05385 103.828 13.7324 101.359 14.4255C101.359 14.4255 102.052 18.7575 100.796 19.0607C100.796 19.104 100.796 19.104 100.796 19.1474C102.312 19.8405 106.817 19.9704 105.778 12.6494C106.081 12.4328 106.211 12.2595 106.211 12.2595C106.774 12.866 108.594 14.6421 111.106 15.2053V18.0644L101.229 24.1725C101.359 24.3891 101.402 24.649 101.402 24.9089V28.981C100.709 29.3275 100.016 30.4538 100.103 31.017C100.103 31.0603 100.146 31.1036 100.189 31.1036C104.002 30.1939 107.207 33.313 107.987 34.0927C108.03 34.1793 108.16 34.1793 108.247 34.136L111.713 31.5802L114.658 34.1793C114.788 34.3093 115.005 34.266 115.135 34.136L118.644 29.804C118.687 29.7174 118.687 29.6308 118.6 29.5874ZM111.149 30.887L110.976 31.017C110.413 30.4105 108.637 28.851 106.081 28.2879V22.9595C106.081 22.3964 106.384 21.9198 106.861 21.6166L111.106 18.9741L111.149 30.887ZM138.531 29.6741C137.621 30.0206 136.928 30.1506 136.322 29.5874L135.629 29.0243V28.8943V28.851C135.629 28.851 135.629 28.851 135.629 28.8077C135.629 28.0279 135.629 16.8514 135.629 13.9057C136.279 12.996 136.712 12.0429 136.712 12.0429C133.809 11.1332 132.553 9.14049 132.553 9.14049L129.521 13.1692C129.521 13.1692 130.127 13.819 130.95 14.4255C130.95 17.3713 130.95 31.017 130.95 31.017C130.864 31.1036 130.777 31.147 130.777 31.147C130.257 30.5405 128.438 28.981 125.925 28.4178C125.925 28.4178 125.925 16.8514 125.925 13.9057C126.532 12.996 126.965 12.0429 126.965 12.0429C124.062 11.1332 122.806 9.14049 122.806 9.14049L119.774 13.1692C119.774 13.1692 120.38 13.819 121.247 14.4255C121.247 17.1547 121.247 29.1109 121.247 29.1109C120.51 29.4575 119.86 30.5838 119.904 31.147C119.904 31.1903 119.947 31.2336 119.99 31.2336C123.802 30.3239 127.008 33.4429 127.788 34.2227C127.831 34.3093 127.961 34.3093 128.091 34.266C128.091 34.266 129.564 32.9664 131.383 31.6668C131.99 32.1 132.64 32.6198 133.159 33.053L134.502 34.2227C134.632 34.3526 134.849 34.3526 134.979 34.1793L138.661 29.7607L138.531 29.6741ZM148.752 29.6741C147.842 30.0206 147.149 30.1506 146.499 29.5874L145.849 29.0243C145.849 29.0243 145.849 12.736 145.849 4.76518C146.499 3.89879 146.889 2.94575 146.889 2.94575C143.987 1.99271 142.73 0 142.73 0L139.741 4.02875C139.741 4.02875 140.305 4.67854 141.171 5.28502C141.171 12.5628 141.171 28.4178 141.171 28.4178V29.2842C140.261 30.0206 139.741 30.9304 139.741 30.9304C140.261 30.5405 142.211 32.0567 143.38 33.053L144.68 34.2227C144.853 34.3526 145.07 34.3526 145.2 34.1793L148.882 29.7607L148.752 29.6741ZM166.137 13.819C166.787 13.1692 167.047 12.4328 167.047 12.2162H167.004C163.148 13.2559 159.986 10.0069 159.206 9.22713C159.119 9.14049 158.989 9.14049 158.903 9.22713L155.48 11.783C155.48 11.783 153.531 13.3858 151.322 14.3389V29.1542C150.629 29.4575 149.936 30.5838 150.022 31.1903C150.022 31.2336 150.065 31.2769 150.109 31.2336C153.921 30.3239 157.127 33.4429 157.906 34.266C157.95 34.3093 158.08 34.3526 158.166 34.266C158.166 34.266 162.888 30.2372 165.531 29.1976C165.661 29.1542 165.747 29.0243 165.747 28.8943C165.747 28.6777 165.531 28.5044 165.314 28.5478C163.581 28.981 160.895 31.1903 160.895 31.1903C160.332 30.5838 158.556 28.981 156 28.4178V25.0822L166.137 13.819ZM156.174 12.3028C156.607 12.736 159.509 15.2053 162.628 15.2053C163.148 15.2053 163.581 15.1619 163.971 15.0753L156 23.9125L156.044 12.4328L156.174 12.3028ZM177.138 29.6741C176.228 30.0206 175.535 30.1506 174.886 29.5874L174.236 29.0243V12.4761L174.409 12.3462C174.972 12.9526 176.575 14.8587 178.871 14.8587C180.734 14.8587 183.03 13.7324 183.983 11.653C184.026 11.6097 183.983 11.5231 183.939 11.5664C179.867 12.866 177.311 9.14049 177.311 9.14049L174.236 11.3931C172.07 10.3968 171.117 9.14049 171.117 9.14049L168.128 13.1692C168.128 13.1692 168.691 13.819 169.557 14.4255V29.2842C168.647 30.0206 168.128 30.9304 168.128 30.9304C168.647 30.5405 170.597 32.0567 171.766 33.053L173.066 34.2227C173.239 34.3526 173.456 34.3526 173.586 34.1793L177.268 29.7607L177.138 29.6741Z" fill="white"/>
</svg>
