<svg width="20" height="16" viewBox="0 0 20 16" fill="none" xmlns="http://www.w3.org/2000/svg">
<path d="M19.5 14H16V1.59375C16 0.71875 15.3125 0 14.5 0H5.46875C4.65625 0 3.96875 0.71875 3.96875 1.59375V14H0.5C0.21875 14 0 14.25 0 14.5V15.5C0 15.7812 0.21875 16 0.5 16H19.5C19.75 16 20 15.7812 20 15.5V14.5C20 14.25 19.75 14 19.5 14ZM12.9688 9C12.4375 9 11.9688 8.5625 11.9688 8C11.9688 7.46875 12.4375 7 12.9688 7C13.5312 7 13.9688 7.46875 13.9688 8C14 8.5625 13.5312 9 12.9688 9Z" fill="#3C3B6E"/>
</svg>
