<svg width="18" height="18" viewBox="0 0 18 18" fill="none" xmlns="http://www.w3.org/2000/svg">
<path d="M1.59375 1.78113L4.84375 1.03113C5.1875 0.937381 5.5625 1.12488 5.71875 1.46863L7.21875 4.96863C7.34375 5.28113 7.25 5.62488 7 5.84363L5.09375 7.40613C6.21875 9.78113 8.1875 11.7811 10.625 12.9374L12.1875 11.0311C12.4062 10.7811 12.75 10.6874 13.0625 10.8124L16.5625 12.3124C16.9062 12.4687 17.0625 12.8437 17 13.1874L16.25 16.4374C16.1562 16.7811 15.875 16.9999 15.5 16.9999C7.5 16.9999 1 10.5311 1 2.49988C1 2.15613 1.25 1.87488 1.59375 1.78113Z" stroke="#3C3B6E" stroke-width="1.5"/>
</svg>
