<svg width="80" height="80" viewBox="0 0 80 80" fill="none" xmlns="http://www.w3.org/2000/svg">
<g clip-path="url(#clip0)">
<path d="M27.9646 17.0362V26.4898C27.9646 27.8893 29.0932 29.0143 30.4926 29.0143H37.4815C38.8809 29.0143 40.0095 27.8893 40.0095 26.4898V17.0362H27.9646Z" fill="#E0E0E0"/>
<path d="M16.7042 48.2812C15.3258 48.2812 15.4266 50.4122 16.8033 50.3462H20.5447C21.9213 50.3462 21.9213 48.2812 20.5447 48.2812C19.2645 48.2812 17.9844 48.2812 16.7042 48.2812Z" fill="#3C3B6E"/>
<path d="M16.7119 54.5153C15.334 54.5141 15.334 56.5791 16.7119 56.5803H24.1946C25.5725 56.5816 25.5725 54.5166 24.1946 54.5153H16.7119Z" fill="#3C3B6E"/>
<path d="M14.4052 16.0069C10.8718 16.0069 7.99609 18.8805 7.99609 22.414V59.4174C7.99609 62.9509 10.8718 65.8245 14.4052 65.8245H31.4956C32.9952 65.9591 32.9952 63.6334 31.4956 63.7681H14.4052C11.9798 63.7681 10.0626 61.8429 10.0626 59.4174V22.414C10.0626 19.9886 11.9798 18.0714 14.4052 18.0714H38.9793V26.4906C38.9793 27.3351 38.3236 27.9845 37.4773 27.9845H30.4896C29.6433 27.9845 28.9977 27.3351 28.9977 26.4906V22.277C28.9977 20.8994 26.9312 20.8994 26.9312 22.277V26.4906C26.9312 28.445 28.5369 30.049 30.4896 30.049H37.4773C39.43 30.049 41.0438 28.445 41.0438 26.4906V18.0714H53.5637C55.9893 18.0714 57.9144 19.9886 57.9144 22.414V37.1436C55.18 35.3615 51.9225 34.3171 48.4207 34.3171C38.8057 34.3171 30.9855 42.1291 30.9855 51.7441C30.9856 61.359 38.8057 69.1772 48.4207 69.1772C50.7291 69.1772 52.9287 68.7171 54.9467 67.899L63.7893 78.5198C64.8322 79.8522 65.9106 79.9987 67.0192 80.0017C68.1727 79.9783 69.2721 79.5232 70.1562 78.8042C71.0403 78.0852 71.7273 77.0795 71.9384 75.8889C72.1495 74.6983 71.8249 73.3506 70.8719 72.1814C68.7072 69.5767 66.54 66.9715 64.3741 64.367C63.3045 63.2594 61.8944 64.6864 62.7854 65.6875L69.2732 73.4857C71.5106 76.2641 67.0958 79.1217 65.3781 77.2013L56.8722 66.9818C62.2239 64.0023 65.8539 58.2931 65.8539 51.7442C65.8539 46.566 63.574 41.924 59.979 38.7304V22.414C59.979 18.8806 57.0974 16.0069 53.5638 16.0069C40.5019 15.9913 27.4778 16.0069 14.4052 16.0069ZM48.4207 36.3816C56.9199 36.3816 63.7893 43.2449 63.7893 51.7441C63.7893 60.2432 56.9199 67.1127 48.4207 67.1127C39.9215 67.1127 33.05 60.2432 33.05 51.7441C33.05 43.2449 39.9215 36.3816 48.4207 36.3816ZM48.4207 42.1657C43.1434 42.1657 38.8422 46.4668 38.8422 51.7441C38.8422 57.0213 43.1434 61.3206 48.4207 61.3206C53.6979 61.3206 57.9991 57.0213 57.9991 51.7441C57.9991 46.4668 53.6979 42.1657 48.4207 42.1657ZM48.4207 44.2302C52.5822 44.2302 55.9326 47.5826 55.9326 51.7441C55.9326 55.9056 52.5822 59.2561 48.4207 59.2561C44.2591 59.2561 40.9067 55.9056 40.9067 51.7441C40.9067 47.5826 44.2591 44.2302 48.4207 44.2302Z" fill="#3C3B6E"/>
</g>
<defs>
<clipPath id="clip0">
<rect width="80" height="80" fill="white"/>
</clipPath>
</defs>
</svg>
