<svg width="80" height="80" viewBox="0 0 80 80" fill="none" xmlns="http://www.w3.org/2000/svg">
<g clip-path="url(#clip0)">
<path d="M37.7593 61.9471L35.2383 64.7629L37.0298 67.8526L35.5832 79.1806H44.5051L43.0962 67.8526L44.8876 64.7629L42.3666 61.9471C41.6291 62.2631 40.8677 62.438 40.063 62.4258C39.2582 62.438 38.4968 62.2628 37.7593 61.9471Z" fill="#E0E0E0"/>
<path d="M27.232 16.7649C20.9774 20.7029 19.064 27.8783 21.0548 33.8374C21.7957 35.8172 23.5191 37.5038 25.1813 38.5994V40.395C25.1813 46.1894 28.4899 51.1931 33.3172 53.6525V56.4536C29.1026 58.1039 24.7511 59.4076 20.7621 60.5592C13.1272 62.986 9.87955 71.3491 9.82715 79.1806C9.82903 79.7689 10.305 80.2449 10.8933 80.2468H69.2243C69.8157 80.2492 70.2969 79.772 70.2988 79.1806C70.2988 71.0312 67.0119 63.0914 59.3659 60.5592C54.6511 59.2694 51.0786 58.3109 46.746 56.4264C45.6234 55.8134 44.7375 56.3203 44.632 57.3614C44.3416 59.6393 42.428 61.364 40.063 61.364C37.4927 61.364 35.4578 59.327 35.4578 56.7567V54.5451C36.9086 55.0165 38.4538 55.2788 40.063 55.2788C48.2894 55.2788 54.9446 48.6212 54.9446 40.395V40.2278C60.6855 38.4372 61.6277 23.3323 54.767 22.8627C51.7488 12.1778 34.1581 12.5194 27.232 16.7649ZM52.8082 23.448C52.8668 23.9926 53.3266 24.4045 53.8744 24.4033C58.3379 23.923 58.9036 36.0271 54.3092 37.9074C52.8683 35.3132 51.4255 32.7199 49.9862 30.1248C49.3168 28.8072 47.3556 29.8918 48.1153 31.1596C49.6691 33.979 51.2395 36.7893 52.8041 39.6028V40.3971C52.8041 47.4746 47.1402 53.1403 40.063 53.1403C32.9857 53.1403 27.3219 47.4746 27.3219 40.3971V39.5275C28.8067 39.9388 30.5319 39.992 32.4706 39.5024C42.3409 37.0099 48.1466 27.9842 48.1466 27.9842C48.9261 26.7885 47.1326 25.6179 46.353 26.8136C46.353 26.8136 40.8024 35.1953 31.9417 37.4329C27.7248 38.1691 24.4119 36.3896 23.0762 33.0723C21.1326 27.8385 23.6116 21.5187 28.3315 18.6045C33.5232 14.963 50.255 13.9191 52.8082 23.448ZM33.5952 58.6674C34.0205 60.1038 34.9135 61.3382 36.0953 62.2023L32.6441 66.057C31.1031 64.2184 31.3292 61.8832 31.3417 59.6436L33.5952 58.6674ZM46.5307 58.6695L48.7863 59.6478C48.8461 62.0625 48.8502 64.2043 47.4819 66.0654L44.0264 62.2044C45.2097 61.3407 46.1047 60.1066 46.5307 58.6695ZM29.197 60.3648C29.167 63.3438 29.6313 67.3641 32.0358 68.7265C32.4691 68.9559 33.0033 68.8627 33.3318 68.4987L35.0522 66.5734L35.9239 68.0743L34.6362 78.1125H22.1125V71.1995C22.1125 69.5561 19.9719 69.5244 19.9719 71.1995V78.1125H12.181C12.545 71.9176 14.8326 64.5503 21.5439 62.5493C24.0953 61.825 26.6463 61.0937 29.197 60.3648ZM50.929 60.3648L58.5757 62.5493C64.6614 64.5087 67.6603 71.8072 67.945 78.1125H58.7241V71.1995C58.7241 69.5113 56.5835 69.7489 56.5835 71.1995V78.1125H45.4542L44.1999 68.0806L45.0716 66.5776L46.7878 68.4987C47.1175 68.8668 47.6549 68.9602 48.0902 68.7265C50.8572 66.5732 50.9421 63.4034 50.929 60.3648ZM38.0687 63.2036C39.4482 63.6458 40.8622 63.5984 42.0572 63.2036L43.5707 64.8969L42.4816 66.7845H37.6464L36.5511 64.8989L38.0687 63.2036ZM37.9704 68.9251H42.1492L43.2947 78.1125H36.7956L37.9704 68.9251Z" fill="#3C3B6E"/>
</g>
<defs>
<clipPath id="clip0">
<rect width="80" height="80" fill="white"/>
</clipPath>
</defs>
</svg>
