<svg width="80" height="80" viewBox="0 0 80 80" fill="none" xmlns="http://www.w3.org/2000/svg">
<path d="M14.2939 44.9409V54.8945C14.2939 55.8702 15.0808 56.6547 16.0566 56.6547H20.9297C21.9054 56.6547 22.6923 55.8702 22.6923 54.8945V44.9409H14.2939Z" fill="#E0E0E0"/>
<path d="M8.79679 63.016C7.12752 63.016 7.24969 65.5966 8.91679 65.5166H13.4475C15.1145 65.5166 15.1145 63.016 13.4475 63.016C11.8972 63.016 10.347 63.016 8.79679 63.016Z" fill="#3C3B6E"/>
<path d="M8.80588 68.5339C8.64159 68.5337 8.47888 68.566 8.32706 68.6287C8.17524 68.6915 8.03727 68.7837 7.92105 68.8998C7.80483 69.0159 7.71263 69.1537 7.64972 69.3055C7.58682 69.4573 7.55444 69.6199 7.55444 69.7842C7.55444 69.9485 7.58682 70.1112 7.64972 70.263C7.71263 70.4148 7.80483 70.5526 7.92105 70.6687C8.03727 70.7848 8.17524 70.8769 8.32706 70.9396C8.47888 71.0024 8.64159 71.0346 8.80588 71.0345H17.8672C18.0314 71.0346 18.1941 71.0024 18.346 70.9396C18.4978 70.8769 18.6358 70.7848 18.752 70.6687C18.8682 70.5526 18.9604 70.4148 19.0233 70.263C19.0862 70.1112 19.1186 69.9485 19.1186 69.7842C19.1186 69.6199 19.0862 69.4573 19.0233 69.3055C18.9604 69.1537 18.8682 69.0159 18.752 68.8998C18.6358 68.7837 18.4978 68.6915 18.346 68.6287C18.1941 68.566 18.0314 68.5337 17.8672 68.5339H8.80588Z" fill="#3C3B6E"/>
<path d="M65.809 2.00006C58.6069 2.00006 52.7416 7.86537 52.7416 15.0675C52.7416 20.8463 57.4455 27.8285 62.102 32.6366C64.8324 35.7571 66.988 35.3203 69.5136 32.6366C73.6104 27.4174 78.8764 21.3013 78.8764 15.0675C78.8764 7.86537 73.0111 2.00006 65.809 2.00006ZM65.809 4.504C71.6579 4.504 76.3725 9.21859 76.3725 15.0675C76.3725 20.38 70.8998 26.707 67.7212 30.8883C66.107 32.645 65.3756 32.6808 63.887 30.8883C60.3399 26.5085 55.422 20.8885 55.2455 15.0675C55.2455 9.21859 59.9601 4.504 65.809 4.504ZM65.809 9.45808C62.9628 9.45808 60.6251 11.7958 60.6251 14.642C60.6251 17.4882 62.9628 19.8162 65.809 19.8162C68.6552 19.8162 70.9831 17.4882 70.9832 14.642C71.021 12.9353 68.4413 12.9353 68.4792 14.642C68.4792 16.135 67.302 17.3122 65.809 17.3122C64.316 17.3122 63.129 16.135 63.129 14.642C63.129 13.149 64.316 11.962 65.809 11.962C67.5162 12.0003 67.5162 9.41975 65.809 9.45808ZM42.9166 32.2576C41.9009 32.2576 41.3927 33.5626 42.0779 34.3361C43.1689 35.4779 44.2716 36.6295 45.3667 37.7741C46.5165 39.0669 48.4153 37.2528 47.1762 36.0453L45.9585 34.7713H49.2938C50.9995 34.8081 50.9995 32.2305 49.2938 32.2674C47.1866 32.2616 44.9975 32.2799 42.9166 32.2576V32.2576ZM54.8396 32.2674C53.206 32.3026 53.206 34.736 54.8396 34.7713H57.8326C59.5383 34.8081 59.5383 32.2305 57.8326 32.2674H54.8396ZM49.7462 41.9237L52.9983 45.3054C54.1465 46.5976 56.0455 44.7883 54.8103 43.5791L51.5581 40.1875C50.4128 39.0918 48.7321 40.7422 49.7462 41.9237ZM6.26227 43.7625C3.50959 43.7625 1.25439 46.0103 1.25439 48.763V74.6118C1.25439 77.3645 3.50957 79.6221 6.26227 79.6221H30.7906C33.5433 79.6221 35.8009 77.3645 35.8009 74.6118V48.763C35.8009 46.0103 33.5433 43.7625 30.7906 43.7625L6.26227 43.7625ZM6.26227 46.2664H21.4742V54.9837C21.4742 55.288 21.2743 55.4899 20.968 55.4899H16.0873C15.781 55.4899 15.5689 55.2881 15.5689 54.9837V49.5675C15.5689 47.8978 13.065 47.8978 13.065 49.5675V54.9837C13.065 56.6341 14.439 57.9963 16.0873 57.9963H20.968C22.6163 57.9963 23.9806 56.6341 23.9806 54.9837V46.2664H30.7906C32.1994 46.2664 33.2945 47.3542 33.2945 48.763V74.6118C33.2945 76.0206 32.1994 77.1181 30.7906 77.1181H6.26227C4.85349 77.1181 3.75833 76.0206 3.75833 74.6118V48.763C3.75833 47.3542 4.85347 46.2664 6.26227 46.2664V46.2664ZM57.0575 48.8828L60.3096 52.2744C61.4657 53.5335 63.3301 51.747 62.1216 50.5383L58.8669 47.154C57.4285 45.9943 56.0473 47.8485 57.0575 48.8828ZM64.0998 57.1453L68.2029 61.6177H65.4936C63.8227 61.6177 63.8227 64.1241 65.4936 64.1241H71.0492C72.1391 64.1251 72.7099 62.8296 71.9735 62.0261L65.9484 55.4532C64.7238 54.2341 62.9899 55.7988 64.0998 57.1453ZM42.4911 61.6177C40.8202 61.6177 40.8202 64.1241 42.4911 64.1241H47.186C48.8569 64.1241 48.8569 61.6177 47.186 61.6177H42.4911ZM53.5999 61.6177C51.929 61.6177 51.929 64.1241 53.5999 64.1241H58.2948C59.9657 64.1241 59.9657 61.6177 58.2948 61.6177H53.5999Z" fill="#3C3B6E"/>
</svg>
