<svg width="91" height="40" viewBox="0 0 91 40" fill="none" xmlns="http://www.w3.org/2000/svg">
<path opacity="0.4" d="M6.91936 26.6775C6.87436 26.7625 6.80936 26.805 6.72436 26.805C6.65936 26.805 6.57436 26.76 6.46936 26.67C6.36936 26.575 6.23186 26.4725 6.05686 26.3625C5.88186 26.2475 5.66186 26.1425 5.39686 26.0475C5.13686 25.9525 4.81436 25.905 4.42936 25.905C4.04436 25.905 3.70436 25.96 3.40936 26.07C3.11936 26.18 2.87436 26.33 2.67436 26.52C2.47936 26.71 2.32936 26.93 2.22436 27.18C2.12436 27.43 2.07436 27.6925 2.07436 27.9675C2.07436 28.3275 2.14936 28.625 2.29936 28.86C2.45436 29.095 2.65686 29.295 2.90686 29.46C3.15686 29.625 3.43936 29.765 3.75436 29.88C4.07436 29.99 4.40186 30.1 4.73686 30.21C5.07186 30.32 5.39686 30.4425 5.71186 30.5775C6.03186 30.7075 6.31686 30.8725 6.56686 31.0725C6.81686 31.2725 7.01686 31.52 7.16686 31.815C7.32186 32.105 7.39936 32.4675 7.39936 32.9025C7.39936 33.3475 7.32186 33.7675 7.16686 34.1625C7.01686 34.5525 6.79686 34.8925 6.50686 35.1825C6.21686 35.4725 5.86186 35.7025 5.44186 35.8725C5.02186 36.0375 4.54186 36.12 4.00186 36.12C3.30186 36.12 2.69936 35.9975 2.19436 35.7525C1.68936 35.5025 1.24686 35.1625 0.866856 34.7325L1.07686 34.4025C1.13686 34.3275 1.20686 34.29 1.28686 34.29C1.33186 34.29 1.38936 34.32 1.45936 34.38C1.52936 34.44 1.61436 34.515 1.71436 34.605C1.81436 34.69 1.93436 34.785 2.07436 34.89C2.21436 34.99 2.37686 35.085 2.56186 35.175C2.74686 35.26 2.95936 35.3325 3.19936 35.3925C3.43936 35.4525 3.71186 35.4825 4.01686 35.4825C4.43686 35.4825 4.81186 35.42 5.14186 35.295C5.47186 35.165 5.74936 34.99 5.97436 34.77C6.20436 34.55 6.37936 34.29 6.49936 33.99C6.61936 33.685 6.67936 33.36 6.67936 33.015C6.67936 32.64 6.60186 32.3325 6.44686 32.0925C6.29686 31.8475 6.09686 31.645 5.84686 31.485C5.59686 31.32 5.31186 31.1825 4.99186 31.0725C4.67686 30.9625 4.35186 30.855 4.01686 30.75C3.68186 30.645 3.35436 30.5275 3.03436 30.3975C2.71936 30.2675 2.43686 30.1025 2.18686 29.9025C1.93686 29.6975 1.73436 29.445 1.57936 29.145C1.42936 28.84 1.35436 28.46 1.35436 28.005C1.35436 27.65 1.42186 27.3075 1.55686 26.9775C1.69186 26.6475 1.88936 26.3575 2.14936 26.1075C2.40936 25.8525 2.72936 25.65 3.10936 25.5C3.49436 25.345 3.93186 25.2675 4.42186 25.2675C4.97186 25.2675 5.46436 25.355 5.89936 25.53C6.33936 25.705 6.73936 25.9725 7.09936 26.3325L6.91936 26.6775ZM8.21627 28.5375H8.76377C8.83377 28.5375 8.89127 28.5575 8.93627 28.5975C8.98127 28.6325 9.01127 28.6725 9.02627 28.7175L10.9088 34.605C10.9438 34.72 10.9713 34.83 10.9913 34.935C11.0113 35.04 11.0313 35.145 11.0513 35.25C11.0763 35.145 11.1038 35.04 11.1338 34.935C11.1638 34.83 11.1988 34.72 11.2388 34.605L13.2413 28.665C13.2763 28.555 13.3463 28.5 13.4513 28.5H13.7438C13.8538 28.5 13.9263 28.555 13.9613 28.665L15.9338 34.605C16.0088 34.83 16.0688 35.0475 16.1138 35.2575C16.1338 35.1525 16.1538 35.0475 16.1738 34.9425C16.1988 34.8325 16.2313 34.72 16.2713 34.605L18.1613 28.7175C18.2013 28.5975 18.2863 28.5375 18.4163 28.5375H18.9413L16.4438 36H15.9188C15.8388 36 15.7813 35.9475 15.7463 35.8425L13.6988 29.7825C13.6738 29.7075 13.6513 29.6325 13.6313 29.5575C13.6113 29.4825 13.5938 29.4075 13.5788 29.3325C13.5638 29.4075 13.5463 29.4825 13.5263 29.5575C13.5113 29.6325 13.4913 29.7075 13.4663 29.7825L11.3963 35.8425C11.3663 35.9475 11.3063 36 11.2163 36H10.7138L8.21627 28.5375ZM21.2483 28.5375V36H20.5358V28.5375H21.2483ZM21.5633 25.965C21.5633 26.055 21.5433 26.14 21.5033 26.22C21.4683 26.295 21.4208 26.3625 21.3608 26.4225C21.3008 26.4825 21.2308 26.53 21.1508 26.565C21.0708 26.6 20.9858 26.6175 20.8958 26.6175C20.8058 26.6175 20.7208 26.6 20.6408 26.565C20.5608 26.53 20.4908 26.4825 20.4308 26.4225C20.3708 26.3625 20.3233 26.295 20.2883 26.22C20.2533 26.14 20.2358 26.055 20.2358 25.965C20.2358 25.875 20.2533 25.79 20.2883 25.71C20.3233 25.625 20.3708 25.5525 20.4308 25.4925C20.4908 25.4325 20.5608 25.385 20.6408 25.35C20.7208 25.315 20.8058 25.2975 20.8958 25.2975C20.9858 25.2975 21.0708 25.315 21.1508 25.35C21.2308 25.385 21.3008 25.4325 21.3608 25.4925C21.4208 25.5525 21.4683 25.625 21.5033 25.71C21.5433 25.79 21.5633 25.875 21.5633 25.965ZM23.8854 38.64V28.5375H24.2754C24.3404 28.5375 24.3929 28.5525 24.4329 28.5825C24.4729 28.6075 24.4954 28.655 24.5004 28.725L24.5679 29.88C24.8979 29.43 25.2829 29.0725 25.7229 28.8075C26.1679 28.5425 26.6654 28.41 27.2154 28.41C28.1354 28.41 28.8504 28.7275 29.3604 29.3625C29.8704 29.9975 30.1254 30.95 30.1254 32.22C30.1254 32.765 30.0529 33.275 29.9079 33.75C29.7679 34.22 29.5604 34.63 29.2854 34.98C29.0104 35.325 28.6704 35.5975 28.2654 35.7975C27.8654 35.9975 27.4029 36.0975 26.8779 36.0975C26.3679 36.0975 25.9279 36.005 25.5579 35.82C25.1879 35.635 24.8679 35.36 24.5979 34.995V38.64H23.8854ZM27.0129 28.9875C26.5179 28.9875 26.0679 29.1175 25.6629 29.3775C25.2629 29.6325 24.9079 29.99 24.5979 30.45V34.365C24.8829 34.795 25.1979 35.0975 25.5429 35.2725C25.8929 35.4475 26.2904 35.535 26.7354 35.535C27.1754 35.535 27.5604 35.455 27.8904 35.295C28.2204 35.135 28.4954 34.91 28.7154 34.62C28.9404 34.325 29.1079 33.975 29.2179 33.57C29.3329 33.16 29.3904 32.71 29.3904 32.22C29.3904 31.11 29.1854 30.295 28.7754 29.775C28.3704 29.25 27.7829 28.9875 27.0129 28.9875ZM34.7253 28.4175C35.1453 28.4175 35.5328 28.49 35.8878 28.635C36.2478 28.78 36.5578 28.9925 36.8178 29.2725C37.0828 29.5475 37.2878 29.8875 37.4328 30.2925C37.5828 30.6975 37.6578 31.1625 37.6578 31.6875C37.6578 31.7975 37.6403 31.8725 37.6053 31.9125C37.5753 31.9525 37.5253 31.9725 37.4553 31.9725H32.0628V32.115C32.0628 32.675 32.1278 33.1675 32.2578 33.5925C32.3878 34.0175 32.5728 34.375 32.8128 34.665C33.0528 34.95 33.3428 35.165 33.6828 35.31C34.0228 35.455 34.4028 35.5275 34.8228 35.5275C35.1978 35.5275 35.5228 35.4875 35.7978 35.4075C36.0728 35.3225 36.3028 35.23 36.4878 35.13C36.6778 35.025 36.8278 34.9325 36.9378 34.8525C37.0478 34.7675 37.1278 34.725 37.1778 34.725C37.2428 34.725 37.2928 34.75 37.3278 34.8L37.5228 35.04C37.4028 35.19 37.2428 35.33 37.0428 35.46C36.8478 35.59 36.6278 35.7025 36.3828 35.7975C36.1428 35.8875 35.8828 35.96 35.6028 36.015C35.3278 36.07 35.0503 36.0975 34.7703 36.0975C34.2603 36.0975 33.7953 36.01 33.3753 35.835C32.9553 35.655 32.5953 35.395 32.2953 35.055C31.9953 34.715 31.7628 34.3 31.5978 33.81C31.4378 33.315 31.3578 32.75 31.3578 32.115C31.3578 31.58 31.4328 31.0875 31.5828 30.6375C31.7378 30.1825 31.9578 29.7925 32.2428 29.4675C32.5328 29.1375 32.8853 28.88 33.3003 28.695C33.7203 28.51 34.1953 28.4175 34.7253 28.4175ZM34.7328 28.95C34.3478 28.95 34.0028 29.01 33.6978 29.13C33.3928 29.25 33.1278 29.4225 32.9028 29.6475C32.6828 29.8725 32.5028 30.1425 32.3628 30.4575C32.2278 30.7725 32.1378 31.125 32.0928 31.515H37.0128C37.0128 31.115 36.9578 30.7575 36.8478 30.4425C36.7378 30.1225 36.5828 29.8525 36.3828 29.6325C36.1828 29.4125 35.9428 29.245 35.6628 29.13C35.3828 29.01 35.0728 28.95 34.7328 28.95ZM47.3868 29.535C47.3618 29.56 47.3368 29.5825 47.3118 29.6025C47.2918 29.6175 47.2618 29.625 47.2218 29.625C47.1718 29.625 47.1018 29.5925 47.0118 29.5275C46.9268 29.4575 46.8118 29.3825 46.6668 29.3025C46.5218 29.2225 46.3393 29.15 46.1193 29.085C45.9043 29.015 45.6418 28.98 45.3318 28.98C44.9018 28.98 44.5193 29.0575 44.1843 29.2125C43.8543 29.3625 43.5743 29.58 43.3443 29.865C43.1193 30.15 42.9468 30.495 42.8268 30.9C42.7068 31.305 42.6468 31.76 42.6468 32.265C42.6468 32.79 42.7068 33.255 42.8268 33.66C42.9518 34.065 43.1268 34.4075 43.3518 34.6875C43.5768 34.9625 43.8493 35.1725 44.1693 35.3175C44.4893 35.4625 44.8443 35.535 45.2343 35.535C45.5943 35.535 45.8943 35.4925 46.1343 35.4075C46.3793 35.3225 46.5793 35.23 46.7343 35.13C46.8943 35.03 47.0193 34.9375 47.1093 34.8525C47.2043 34.7675 47.2793 34.725 47.3343 34.725C47.3993 34.725 47.4493 34.75 47.4843 34.8L47.6793 35.04C47.5643 35.19 47.4193 35.33 47.2443 35.46C47.0693 35.59 46.8718 35.7025 46.6518 35.7975C46.4318 35.8925 46.1918 35.965 45.9318 36.015C45.6768 36.07 45.4093 36.0975 45.1293 36.0975C44.6543 36.0975 44.2193 36.0125 43.8243 35.8425C43.4343 35.6675 43.0968 35.4175 42.8118 35.0925C42.5318 34.7625 42.3118 34.36 42.1518 33.885C41.9968 33.41 41.9193 32.87 41.9193 32.265C41.9193 31.695 41.9943 31.175 42.1443 30.705C42.2943 30.235 42.5118 29.83 42.7968 29.49C43.0868 29.15 43.4393 28.8875 43.8543 28.7025C44.2743 28.5125 44.7543 28.4175 45.2943 28.4175C45.7793 28.4175 46.2093 28.495 46.5843 28.65C46.9643 28.805 47.2943 29.015 47.5743 29.28L47.3868 29.535ZM52.1429 28.4175C52.6779 28.4175 53.1554 28.51 53.5754 28.695C54.0004 28.875 54.3579 29.1325 54.6479 29.4675C54.9379 29.8025 55.1579 30.2075 55.3079 30.6825C55.4629 31.1525 55.5404 31.68 55.5404 32.265C55.5404 32.85 55.4629 33.3775 55.3079 33.8475C55.1579 34.3175 54.9379 34.72 54.6479 35.055C54.3579 35.39 54.0004 35.6475 53.5754 35.8275C53.1554 36.0075 52.6779 36.0975 52.1429 36.0975C51.6079 36.0975 51.1279 36.0075 50.7029 35.8275C50.2829 35.6475 49.9254 35.39 49.6304 35.055C49.3404 34.72 49.1179 34.3175 48.9629 33.8475C48.8129 33.3775 48.7379 32.85 48.7379 32.265C48.7379 31.68 48.8129 31.1525 48.9629 30.6825C49.1179 30.2075 49.3404 29.8025 49.6304 29.4675C49.9254 29.1325 50.2829 28.875 50.7029 28.695C51.1279 28.51 51.6079 28.4175 52.1429 28.4175ZM52.1429 35.535C52.5879 35.535 52.9754 35.46 53.3054 35.31C53.6404 35.155 53.9179 34.935 54.1379 34.65C54.3629 34.365 54.5304 34.0225 54.6404 33.6225C54.7504 33.2175 54.8054 32.765 54.8054 32.265C54.8054 31.77 54.7504 31.32 54.6404 30.915C54.5304 30.51 54.3629 30.165 54.1379 29.88C53.9179 29.59 53.6404 29.3675 53.3054 29.2125C52.9754 29.0575 52.5879 28.98 52.1429 28.98C51.6979 28.98 51.3079 29.0575 50.9729 29.2125C50.6429 29.3675 50.3654 29.59 50.1404 29.88C49.9204 30.165 49.7529 30.51 49.6379 30.915C49.5279 31.32 49.4729 31.77 49.4729 32.265C49.4729 32.765 49.5279 33.2175 49.6379 33.6225C49.7529 34.0225 49.9204 34.365 50.1404 34.65C50.3654 34.935 50.6429 35.155 50.9729 35.31C51.3079 35.46 51.6979 35.535 52.1429 35.535ZM57.4157 36V28.5375H57.8057C57.9357 28.5375 58.0107 28.6 58.0307 28.725L58.0982 29.85C58.4382 29.42 58.8332 29.075 59.2832 28.815C59.7382 28.55 60.2432 28.4175 60.7982 28.4175C61.2082 28.4175 61.5682 28.4825 61.8782 28.6125C62.1932 28.7425 62.4532 28.93 62.6582 29.175C62.8632 29.42 63.0182 29.715 63.1232 30.06C63.2282 30.405 63.2807 30.795 63.2807 31.23V36H62.5682V31.23C62.5682 30.53 62.4082 29.9825 62.0882 29.5875C61.7682 29.1875 61.2782 28.9875 60.6182 28.9875C60.1282 28.9875 59.6732 29.115 59.2532 29.37C58.8332 29.62 58.4582 29.965 58.1282 30.405V36H57.4157ZM67.5709 36.12C67.0659 36.12 66.6709 35.98 66.3859 35.7C66.1059 35.42 65.9659 34.9875 65.9659 34.4025V29.3025H64.8934C64.8384 29.3025 64.7934 29.2875 64.7584 29.2575C64.7234 29.2275 64.7059 29.185 64.7059 29.13V28.8525L65.9809 28.7625L66.1609 26.0925C66.1659 26.0475 66.1834 26.0075 66.2134 25.9725C66.2484 25.9375 66.2934 25.92 66.3484 25.92H66.6859V28.77H69.0334V29.3025H66.6859V34.365C66.6859 34.57 66.7109 34.7475 66.7609 34.8975C66.8159 35.0425 66.8884 35.1625 66.9784 35.2575C67.0734 35.3525 67.1834 35.4225 67.3084 35.4675C67.4334 35.5125 67.5684 35.535 67.7134 35.535C67.8934 35.535 68.0484 35.51 68.1784 35.46C68.3084 35.405 68.4209 35.3475 68.5159 35.2875C68.6109 35.2225 68.6884 35.165 68.7484 35.115C68.8084 35.06 68.8559 35.0325 68.8909 35.0325C68.9309 35.0325 68.9709 35.0575 69.0109 35.1075L69.2059 35.4225C69.0159 35.6325 68.7734 35.8025 68.4784 35.9325C68.1884 36.0575 67.8859 36.12 67.5709 36.12ZM73.6901 28.4175C74.1101 28.4175 74.4976 28.49 74.8526 28.635C75.2126 28.78 75.5226 28.9925 75.7826 29.2725C76.0476 29.5475 76.2526 29.8875 76.3976 30.2925C76.5476 30.6975 76.6226 31.1625 76.6226 31.6875C76.6226 31.7975 76.6051 31.8725 76.5701 31.9125C76.5401 31.9525 76.4901 31.9725 76.4201 31.9725H71.0276V32.115C71.0276 32.675 71.0926 33.1675 71.2226 33.5925C71.3526 34.0175 71.5376 34.375 71.7776 34.665C72.0176 34.95 72.3076 35.165 72.6476 35.31C72.9876 35.455 73.3676 35.5275 73.7876 35.5275C74.1626 35.5275 74.4876 35.4875 74.7626 35.4075C75.0376 35.3225 75.2676 35.23 75.4526 35.13C75.6426 35.025 75.7926 34.9325 75.9026 34.8525C76.0126 34.7675 76.0926 34.725 76.1426 34.725C76.2076 34.725 76.2576 34.75 76.2926 34.8L76.4876 35.04C76.3676 35.19 76.2076 35.33 76.0076 35.46C75.8126 35.59 75.5926 35.7025 75.3476 35.7975C75.1076 35.8875 74.8476 35.96 74.5676 36.015C74.2926 36.07 74.0151 36.0975 73.7351 36.0975C73.2251 36.0975 72.7601 36.01 72.3401 35.835C71.9201 35.655 71.5601 35.395 71.2601 35.055C70.9601 34.715 70.7276 34.3 70.5626 33.81C70.4026 33.315 70.3226 32.75 70.3226 32.115C70.3226 31.58 70.3976 31.0875 70.5476 30.6375C70.7026 30.1825 70.9226 29.7925 71.2076 29.4675C71.4976 29.1375 71.8501 28.88 72.2651 28.695C72.6851 28.51 73.1601 28.4175 73.6901 28.4175ZM73.6976 28.95C73.3126 28.95 72.9676 29.01 72.6626 29.13C72.3576 29.25 72.0926 29.4225 71.8676 29.6475C71.6476 29.8725 71.4676 30.1425 71.3276 30.4575C71.1926 30.7725 71.1026 31.125 71.0576 31.515H75.9776C75.9776 31.115 75.9226 30.7575 75.8126 30.4425C75.7026 30.1225 75.5476 29.8525 75.3476 29.6325C75.1476 29.4125 74.9076 29.245 74.6276 29.13C74.3476 29.01 74.0376 28.95 73.6976 28.95ZM78.5387 36V28.5375H78.9287C79.0587 28.5375 79.1337 28.6 79.1537 28.725L79.2212 29.85C79.5612 29.42 79.9562 29.075 80.4062 28.815C80.8612 28.55 81.3662 28.4175 81.9212 28.4175C82.3312 28.4175 82.6912 28.4825 83.0012 28.6125C83.3162 28.7425 83.5762 28.93 83.7812 29.175C83.9862 29.42 84.1412 29.715 84.2462 30.06C84.3512 30.405 84.4037 30.795 84.4037 31.23V36H83.6912V31.23C83.6912 30.53 83.5312 29.9825 83.2112 29.5875C82.8912 29.1875 82.4012 28.9875 81.7412 28.9875C81.2512 28.9875 80.7962 29.115 80.3762 29.37C79.9562 29.62 79.5812 29.965 79.2512 30.405V36H78.5387ZM88.694 36.12C88.189 36.12 87.794 35.98 87.509 35.7C87.229 35.42 87.089 34.9875 87.089 34.4025V29.3025H86.0165C85.9615 29.3025 85.9165 29.2875 85.8815 29.2575C85.8465 29.2275 85.829 29.185 85.829 29.13V28.8525L87.104 28.7625L87.284 26.0925C87.289 26.0475 87.3065 26.0075 87.3365 25.9725C87.3715 25.9375 87.4165 25.92 87.4715 25.92H87.809V28.77H90.1565V29.3025H87.809V34.365C87.809 34.57 87.834 34.7475 87.884 34.8975C87.939 35.0425 88.0115 35.1625 88.1015 35.2575C88.1965 35.3525 88.3065 35.4225 88.4315 35.4675C88.5565 35.5125 88.6915 35.535 88.8365 35.535C89.0165 35.535 89.1715 35.51 89.3015 35.46C89.4315 35.405 89.544 35.3475 89.639 35.2875C89.734 35.2225 89.8115 35.165 89.8715 35.115C89.9315 35.06 89.979 35.0325 90.014 35.0325C90.054 35.0325 90.094 35.0575 90.134 35.1075L90.329 35.4225C90.139 35.6325 89.8965 35.8025 89.6015 35.9325C89.3115 36.0575 89.009 36.12 88.694 36.12Z" fill="#3C3B6E"/>
<g opacity="0.4">
<path d="M49.3568 5.87908H49.3309C48.9717 5.88036 48.6265 6.01852 48.3655 6.2652C48.1618 5.67013 47.6216 5.24384 46.9869 5.24384C46.5938 5.24897 46.2202 5.41575 45.9543 5.70517C45.714 5.19812 45.2178 4.85814 44.6458 4.85814H44.6182C44.289 4.85814 43.9686 4.95613 43.7498 5.15098V1.54565C43.7498 0.693349 43.0889 0 42.2823 0C41.4766 0 40.8183 0.692779 40.8177 1.54451L40.8115 8.67483L40.3789 8.14898C40.0308 7.71557 39.5182 7.44638 38.9639 7.40564C38.4206 7.36847 37.8862 7.55761 37.4873 7.92822L37.1388 8.21735C37.0329 8.30509 37.0028 8.45478 37.0661 8.57656L40.4555 15.0839C41.0721 16.2685 42.245 17 43.5165 17H47.3181C49.2459 17 50.8159 15.3337 50.8179 13.28C50.8187 12.3625 50.8197 11.68 50.8203 11.1241C50.8223 9.62726 50.823 9.06765 50.8192 7.42003C50.8172 6.57 50.1613 5.87908 49.3568 5.87908ZM50.2369 11.1255C50.2363 11.6814 50.2353 12.3619 50.2345 13.2794C50.2328 15.0117 48.9246 16.4166 47.3181 16.4166H43.5165C42.4632 16.4166 41.4886 15.8054 40.9728 14.8147L37.6921 8.51403L37.865 8.37188C37.8687 8.36875 37.8726 8.36604 37.8761 8.36263C38.1577 8.09771 38.5369 7.96169 38.9227 7.98747C39.3168 8.01766 39.6809 8.21037 39.9274 8.51944L40.8758 9.67412C40.954 9.76926 41.0835 9.80501 41.1994 9.76357C41.3154 9.72212 41.3929 9.61231 41.393 9.4891L41.3986 1.54508C41.3988 1.01496 41.7981 0.583535 42.2826 0.583535C42.767 0.583535 43.1664 1.0151 43.1664 1.54565V6.33613C43.1664 6.35266 43.1657 6.36918 43.1657 6.38584C43.1657 6.39311 43.1664 6.39994 43.1664 6.40692V8.45549C43.1664 8.61658 43.297 8.74719 43.4581 8.74719C43.6192 8.74719 43.7498 8.61658 43.7498 8.45549V6.34596C43.7498 5.83407 44.1459 5.44153 44.6182 5.44153H44.6458C45.1304 5.44153 45.5364 5.85558 45.5364 6.38627V8.26008C45.5364 8.42117 45.667 8.55177 45.8281 8.55177C45.9892 8.55177 46.1198 8.42117 46.1198 8.26008V6.78977C46.1198 6.25922 46.5089 5.82752 46.9963 5.82752C47.481 5.82752 47.87 6.25922 47.87 6.78977V8.1769C47.87 8.33799 48.0006 8.46859 48.1617 8.46859C48.3228 8.46859 48.4534 8.33799 48.4534 8.1769V7.42587C48.4534 6.89517 48.8462 6.46247 49.3309 6.46247H49.3568C49.8402 6.46247 50.2346 6.89346 50.2358 7.42245C50.2396 9.06908 50.2389 9.6294 50.2369 11.1255Z" fill="#3C3B6E"/>
<path d="M44.7702 2.88927H48.5507L47.8729 3.56709C47.7974 3.64044 47.7672 3.74869 47.794 3.85038C47.8208 3.95222 47.9003 4.0317 48.0021 4.05847C48.1038 4.08511 48.212 4.05491 48.2854 3.97943L49.4569 2.80808C49.5708 2.69414 49.5708 2.50941 49.4569 2.39561L48.2854 1.22426C48.1713 1.11146 47.9876 1.11203 47.8742 1.2254C47.7607 1.33892 47.7601 1.52265 47.8729 1.63674L48.542 2.30588H44.7702C44.6091 2.30588 44.4785 2.43648 44.4785 2.59757C44.4785 2.75866 44.6091 2.88927 44.7702 2.88927Z" fill="#3C3B6E"/>
<path d="M35.9915 2.88927H39.7384C39.8995 2.88927 40.0301 2.75866 40.0301 2.59757C40.0301 2.43648 39.8995 2.30588 39.7384 2.30588H36.0002L36.6693 1.63674C36.7821 1.52265 36.7815 1.33892 36.668 1.2254C36.5547 1.11203 36.3709 1.11146 36.2568 1.22426L35.0854 2.39561C34.9715 2.50955 34.9715 2.69428 35.0854 2.80808L36.2568 3.97943C36.3303 4.05392 36.4381 4.08326 36.5393 4.05634C36.6404 4.02956 36.7193 3.95051 36.7462 3.84939C36.7731 3.74826 36.7438 3.64059 36.6693 3.56695L35.9915 2.88927Z" fill="#3C3B6E"/>
</g>
</svg>
