<svg width="80" height="80" viewBox="0 0 80 80" fill="none" xmlns="http://www.w3.org/2000/svg">
<path d="M44.0733 31.5317C42.9518 31.5317 42.0481 32.4354 42.0481 33.557V45.8456C42.0481 46.9671 42.9518 47.8708 44.0733 47.8708H57.0242C58.1457 47.8708 59.0476 46.9671 59.0476 45.8456V33.557C59.0476 32.4354 58.1457 31.5317 57.0242 31.5317H44.0733ZM48.2811 31.5336H52.8164V35.1761C52.8164 35.7028 52.39 36.1274 51.8632 36.1274H49.2324C48.7057 36.1274 48.2811 35.7028 48.2811 35.1761V31.5336Z" fill="#E0E0E0"/>
<path d="M50.7154 22.0001C36.1898 22.0001 27.6245 37.6205 35.3756 50.042L32.9681 59.0289C32.7804 59.7248 33.4172 60.3628 34.1134 60.1761L44.7296 57.332C45.9403 57.0135 45.4559 55.197 44.2474 55.5236L35.1966 57.9476L37.2698 50.2101C37.3401 49.9478 37.291 49.6677 37.14 49.4429C29.6082 37.7667 38.2264 23.8706 50.7154 23.8706C59.7834 23.8708 67.1143 31.2017 67.1145 40.2697C67.1143 49.3372 59.7844 56.6678 50.7172 56.669C50.0473 56.6671 49.381 56.6244 48.7189 56.541C47.4688 56.3685 47.2313 58.2539 48.4852 58.3969C49.2228 58.4898 49.9674 58.5371 50.7137 58.5393C63.0407 58.5393 68.9851 48.6561 68.9851 40.2696C68.9851 28.6042 59.9049 22 50.7154 22V22.0001ZM17.0712 31.7378C14.9931 34.7515 13.4667 37.7733 12.4645 40.7703C12.1842 41.9262 13.8865 42.444 14.3094 41.1612C15.2496 38.4238 16.6632 35.6448 18.5964 32.8354C19.6799 31.2067 21.4079 31.5866 22.0834 32.7514L27.6271 41.9885C28.0804 42.7431 28.3639 43.5297 28.3998 44.1913C28.291 46.0846 26.5733 46.815 25.1631 47.5121C21.2941 49.2149 20.1097 52.1428 21.877 55.783C24.1453 60.7674 29.1693 66.5048 35.1181 69.066C39.0892 70.654 41.7498 69.3894 43.0364 65.495C43.6432 63.7013 44.5779 62.4423 46.0941 62.3898C46.7556 62.4216 47.5216 62.7018 48.2422 63.1697L56.8089 68.7335C57.9923 69.5067 57.8513 71.4583 56.7467 72.2553C51.9148 76.0259 46.273 78.281 40.3511 78.115C34.4293 77.9488 28.1722 75.3814 22.0486 69.2578C16.822 64.0312 13.7213 58.2079 13.0252 52.0749C12.7824 49.9351 12.8403 47.7508 13.2023 45.5321C13.4511 44.3454 11.622 43.6696 11.341 45.3476C10.9684 47.6933 10.911 50.0127 11.1692 52.2886C11.9207 58.9103 15.2733 65.1203 20.7296 70.5766C27.1204 76.9674 33.8634 79.8069 40.2943 79.9872C46.7252 80.1674 52.7957 77.7083 57.8991 73.7256C60.1333 72.2826 59.8763 68.5535 57.8298 67.1589L49.2631 61.6024C48.327 60.9948 47.2743 60.5749 46.1779 60.5248C43.4912 60.5248 42.0559 62.514 41.2625 64.9087C40.3246 67.8996 38.5119 68.4406 35.8357 67.3398C31.4915 65.3917 26.1904 60.906 23.5957 55.0432C22.1845 51.7718 23.6932 50.3029 25.9903 49.189C28.1813 48.1248 30.3719 46.6213 30.2719 44.0873C30.2129 43.0001 29.8 41.9607 29.2362 41.0221L23.6852 31.7851C22.2971 29.3788 18.8955 28.9777 17.0712 31.7378ZM44.0172 30.5778C42.3955 30.5778 41.0618 31.917 41.0618 33.5388V45.8062C41.0618 47.4279 42.3955 48.7616 44.0172 48.7616H56.9477C58.5695 48.7616 59.9013 47.4279 59.9013 45.8062V33.5388C59.9013 31.917 58.5694 30.5778 56.9477 30.5778H44.0172ZM44.0172 32.4483H51.8113V35.1553C51.0109 35.1553 50.0432 35.1694 49.1737 35.1694C49.1737 33.7477 47.3252 33.8836 47.2814 35.1553C47.2814 36.1841 48.1466 37.0385 49.1737 37.0385H51.7967C52.8239 37.0385 53.6818 36.1841 53.6818 35.1553V32.4483H56.9477C57.5656 32.4483 58.0382 32.9209 58.0382 33.5388V45.8062C58.0382 46.424 57.5656 46.8911 56.9477 46.8911H44.0172C43.3994 46.8911 42.9322 46.424 42.9322 45.8062V33.5388C42.9322 32.9209 43.3994 32.4483 44.0172 32.4483Z" fill="#3C3B6E"/>
</svg>
