<svg width="149" height="24" viewBox="0 0 149 24" fill="none" xmlns="http://www.w3.org/2000/svg">
<path d="M76.0435 0.5H111.336V23.2286H76.0435V0.5Z" fill="black"/>
<path d="M76.2114 0.671265H111.161V23.0573H76.2114V0.671265Z" fill="#1C346F"/>
<path d="M100.125 2.46314C98.8513 2.46134 97.5899 2.71717 96.417 3.21527C95.2442 3.71336 94.1842 4.44344 93.3007 5.36161L93.2116 5.45412C93.0682 5.60371 92.9311 5.75916 92.8005 5.92006V5.92349H94.7157C94.9795 6.24212 95.2193 6.57787 95.4386 6.92733H92.0776C91.9775 7.08519 91.8827 7.2463 91.7932 7.41041L91.783 7.43097C91.6937 7.59525 91.6091 7.76205 91.5294 7.93118H95.9868C96.1375 8.25665 96.2711 8.59241 96.3876 8.93502H91.1217C91.0112 9.26409 90.9196 9.59926 90.8476 9.93886H96.6617C96.7028 10.1239 96.7337 10.3089 96.7645 10.5007L96.8878 10.5384C97.0656 10.3376 97.2723 10.1644 97.5011 10.0245C97.5285 10.0074 97.5559 10.0005 97.5799 9.98683C97.8259 9.78723 98.1145 9.6467 98.4233 9.57602C98.7322 9.50534 99.0531 9.5064 99.3615 9.57912L99.7829 9.68533L100.033 9.78126L99.8651 10.8262C99.5841 10.6647 99.2675 10.5752 98.9435 10.5658C98.1726 10.5658 97.6347 11.3093 97.6347 12.368C97.6347 13.0977 97.9944 13.5397 98.594 13.5397C98.9014 13.5255 99.2014 13.4411 99.4711 13.293L99.2895 14.3893L99.0497 14.4476L99.0086 14.6908C98.7131 14.7812 98.4062 14.8285 98.0972 14.8313C97.8086 14.8421 97.522 14.7788 97.2647 14.6474C97.0074 14.5161 96.788 14.3211 96.6274 14.081C96.5582 14.3802 96.4758 14.6763 96.3808 14.9684H91.1217C91.2341 15.3104 91.3692 15.6446 91.526 15.9688H95.9833C95.8217 16.3145 95.6386 16.6497 95.4352 16.9726H92.0742C92.2934 17.3255 92.5333 17.6578 92.7937 17.9765H94.7088C94.4132 18.3344 94.0926 18.671 93.7495 18.9837C95.1112 20.2188 96.8022 21.0318 98.6171 21.324C100.432 21.6161 102.293 21.3749 103.973 20.6296C105.654 19.8843 107.081 18.6669 108.083 17.1255C109.085 15.584 109.617 13.7849 109.616 11.9465C109.616 10.7005 109.371 9.46652 108.894 8.31529C108.417 7.16406 107.718 6.11813 106.837 5.23734C105.955 4.35654 104.909 3.65816 103.757 3.18214C102.606 2.70612 101.372 2.46179 100.125 2.46314Z" fill="#E0912F"/>
<path d="M97.1414 10.4665L97.1619 10.4391C97.1559 10.4488 97.149 10.458 97.1414 10.4665ZM97.3366 10.2198L97.3572 10.1958C97.3512 10.2045 97.3443 10.2125 97.3366 10.2198ZM97.227 14.1255L97.1551 14.057L97.227 14.1255Z" fill="#E0912F"/>
<path d="M99.4745 13.293C99.2048 13.4411 98.9048 13.5255 98.5974 13.5397C97.9979 13.5397 97.6381 13.0977 97.6381 12.368C97.6381 11.3059 98.176 10.5659 98.9469 10.5659C99.2313 10.5659 99.5019 10.6412 99.8685 10.8262L100.036 9.78129C99.9537 9.74747 99.8703 9.71549 99.7863 9.68535L99.3614 9.57915C99.0027 9.49445 98.6279 9.50694 98.2756 9.61534C97.9233 9.72374 97.6063 9.92413 97.3572 10.1958L97.3366 10.2198C97.2669 10.297 97.2016 10.3783 97.1413 10.4631C96.7545 11.0521 96.5584 11.7459 96.5795 12.4502C96.5795 12.8271 96.648 13.156 96.7576 13.4403C96.8453 13.6705 96.9807 13.8796 97.155 14.0536L97.227 14.1221C97.275 14.1632 97.3195 14.2044 97.3675 14.2386C97.4423 14.2879 97.5201 14.3325 97.6004 14.3722L97.7066 14.4099C97.7769 14.4379 97.849 14.4608 97.9225 14.4784L98.0253 14.5024C98.2576 14.5409 98.4946 14.5432 98.7276 14.5093C98.835 14.497 98.9414 14.4775 99.0462 14.451L99.2861 14.3928L99.4745 13.293Z" fill="white"/>
<path d="M96.3122 12.0116H96.2403C96.0656 12.0048 95.9217 12.0116 95.7709 12.1555C95.6373 12.5598 95.5242 13.2587 95.3427 14.4441H94.308L94.935 10.5281H95.8668L95.7743 11.1208C96.0895 10.6583 96.2814 10.4836 96.6206 10.4836C96.6583 10.4836 96.6925 10.487 96.7234 10.4939L96.7611 10.5007C96.7304 10.3139 96.6962 10.1277 96.6583 9.94227H90.8476C90.9196 9.59967 91.0121 9.26391 91.1217 8.93843H96.3842C96.2696 8.59653 96.1358 8.26139 95.9833 7.93459H91.526C91.6048 7.76329 91.6905 7.59541 91.7795 7.43438L91.7898 7.41382C91.878 7.24899 91.9728 7.08783 92.0742 6.93075H95.4352C95.2161 6.58088 94.9746 6.24557 94.7123 5.9269H92.7971L92.8005 5.92348C92.9341 5.76588 93.0712 5.60828 93.2116 5.45753L93.3007 5.36503C93.448 5.21428 93.5988 5.06353 93.753 4.92306C92.3908 3.68958 90.6999 2.87794 88.8855 2.58661C87.0711 2.29529 85.2112 2.53681 83.5314 3.28188C81.8515 4.02694 80.424 5.24351 79.4221 6.78398C78.4202 8.32445 77.8868 10.1226 77.8868 11.9602C77.8868 13.7979 78.4202 15.596 79.4221 17.1365C80.424 18.677 81.8515 19.8935 83.5314 20.6386C85.2112 21.3837 87.0711 21.6252 88.8855 21.3339C90.6999 21.0425 92.3908 20.2309 93.753 18.9974C94.0956 18.6856 94.4176 18.3499 94.7123 17.9901H92.7971C92.5347 17.6723 92.2943 17.3369 92.0776 16.9863H95.4386C95.6407 16.6643 95.8223 16.3285 95.9868 15.9825H91.5294C91.4531 15.8216 91.3822 15.6582 91.317 15.4925L91.3136 15.4857C91.2457 15.3186 91.1829 15.1495 91.1252 14.9786H96.3876C96.4835 14.6908 96.5658 14.3928 96.6343 14.0913C96.381 13.6952 96.2532 13.2319 96.2677 12.7619C96.2642 12.5111 96.2791 12.2603 96.3122 12.0116Z" fill="#CF4044"/>
<path d="M0.981445 0.637085H35.6294V23.03H0.981445V0.637085Z" fill="black"/>
<path d="M35.119 1.14758V22.5195H1.49195V1.14758H35.119Z" fill="white"/>
<path d="M33.7245 21.2861L4.97965 21.2929L4.6439 19.5388L33.7245 14.153V21.2861Z" fill="#2F9C5C"/>
<path d="M33.704 13.3684L31.9121 3.69316C31.8256 3.22714 31.5576 2.81454 31.167 2.54602C30.7764 2.27749 30.2952 2.175 29.8291 2.26106L4.15742 7.01989C3.69141 7.10644 3.27881 7.37446 3.01028 7.76504C2.74175 8.15563 2.63926 8.63684 2.72532 9.10295L4.51716 18.7782L33.704 13.3684Z" fill="black"/>
<path d="M5.85337 9.7881C7.16556 9.61337 8.0255 10.5007 8.25848 11.7204C8.50173 13.0018 8.02893 14.0604 6.60368 14.29L5.12704 14.5709L4.28079 10.0862L5.85337 9.7881ZM5.8705 13.6287L6.4495 13.5191C7.34371 13.3478 7.46705 12.5392 7.34371 11.8883C7.19982 11.1243 6.74757 10.5384 5.90818 10.6994L5.33603 10.8056L5.8705 13.6287Z" fill="url(#paint0_linear)"/>
<path d="M9.99893 13.6493L9.11157 13.8206L8.26533 9.33926L9.15268 9.17139L9.99893 13.6493Z" fill="url(#paint1_linear)"/>
<path d="M12.3115 9.8361C11.7428 9.64424 11.4105 9.59285 11.109 9.64767C10.7903 9.70934 10.6156 9.89435 10.6567 10.1136C10.7835 10.7851 12.5616 10.2541 12.8563 11.8095C13.0173 12.6661 12.5376 13.269 11.7428 13.4198C11.1158 13.5363 10.7732 13.3924 10.3758 13.2279L10.1942 12.2686C10.7869 12.5975 11.1261 12.6866 11.5201 12.6147C11.8593 12.5496 12.0134 12.3646 11.9621 12.1042C11.825 11.3744 10.064 11.9843 9.75908 10.3843C9.61519 9.61684 10.0503 9.00357 10.876 8.84939C11.3026 8.77587 11.741 8.81605 12.1471 8.96588L12.3115 9.8361Z" fill="url(#paint2_linear)"/>
<path d="M16.6866 12.0253C16.3348 12.3958 15.8739 12.6443 15.371 12.7345C13.9868 12.9949 13.0858 12.0013 12.8665 10.8536C12.6438 9.66472 13.2125 8.40735 14.5761 8.15039C15.0346 8.05045 15.5131 8.10215 15.9397 8.29771L16.1281 9.29128C15.7254 9.07995 15.2662 9.00083 14.8159 9.06516C14.0554 9.20905 13.6305 9.87029 13.7778 10.6617C13.9286 11.4566 14.5624 11.9259 15.3059 11.7855C15.7718 11.6964 16.0493 11.4566 16.505 11.0523L16.6866 12.0253Z" fill="url(#paint3_linear)"/>
<path d="M23.3812 11.1209L22.994 11.1963L20.4279 7.06785L21.3941 6.88627L22.8159 9.24684L23.2304 6.53681L24.1829 6.35522L23.3812 11.1209Z" fill="url(#paint4_linear)"/>
<path d="M27.8727 10.2711L25.2449 10.7679L24.4021 6.31744L26.9922 5.82751L27.1464 6.64292L25.4471 6.96497L25.6218 7.89687L27.2458 7.59195L27.3999 8.40736L25.776 8.71228L25.9815 9.78122L27.7186 9.45231L27.8727 10.2711Z" fill="url(#paint5_linear)"/>
<path d="M28.9554 5.45752C29.6886 5.31705 30.2368 5.85152 30.3635 6.51618C30.4152 6.73521 30.4044 6.96435 30.3323 7.17754C30.2603 7.39074 30.1298 7.57943 29.9558 7.72216C30.367 7.87976 30.5794 8.40738 31.3263 9.62021L30.3498 9.80179C29.7879 8.92129 29.4865 8.09218 29.0034 8.18468L28.7498 8.23265L29.0925 10.0382L28.2017 10.2095L27.3623 5.75901L28.9554 5.45752ZM28.6197 7.51317L29.0925 7.42409C29.3357 7.37613 29.5515 7.2014 29.4796 6.82453C29.4145 6.4922 29.2124 6.35515 28.8766 6.41682L28.4278 6.50247L28.6197 7.51317Z" fill="url(#paint6_linear)"/>
<path d="M18.4373 7.4652C19.89 7.19111 21 8.05106 21.2296 9.27417C21.4523 10.4596 20.7636 11.6998 19.2767 11.9808C17.8378 12.2549 16.7277 11.3607 16.5016 10.1684C16.272 8.94869 17.0121 7.73586 18.4373 7.4652Z" fill="url(#paint7_linear)"/>
<path d="M31.0042 5.50213L31.0625 5.49528L31.2406 5.71798L31.388 5.69057L31.1961 5.45759C31.2715 5.44046 31.3297 5.38907 31.3092 5.27944C31.2852 5.1424 31.1892 5.11841 31.0385 5.1424L30.8158 5.18351L30.9186 5.77279L31.0454 5.75224L31.0042 5.50213ZM30.9871 5.40278L30.9597 5.26231L31.0488 5.24518C31.0967 5.23833 31.1618 5.23147 31.1721 5.29314C31.1824 5.35824 31.1516 5.37194 31.0967 5.38222L30.9871 5.40278ZM31.6346 5.34453C31.6245 5.27149 31.5994 5.20133 31.5609 5.13847C31.5224 5.0756 31.4713 5.02138 31.4108 4.97923C31.3503 4.93707 31.2817 4.90789 31.2094 4.89352C31.1371 4.87915 31.0626 4.8799 30.9905 4.89572C30.9176 4.90544 30.8474 4.93014 30.7844 4.96827C30.7214 5.0064 30.667 5.05713 30.6245 5.11728C30.582 5.17744 30.5525 5.24572 30.5376 5.31784C30.5228 5.38996 30.523 5.46437 30.5383 5.5364C30.5485 5.60952 30.5736 5.67977 30.612 5.74277C30.6505 5.80578 30.7016 5.86019 30.762 5.90261C30.8224 5.94503 30.8909 5.97456 30.9632 5.98936C31.0356 6.00416 31.1102 6.00392 31.1824 5.98864C31.4736 5.93382 31.6963 5.69057 31.6346 5.34453ZM31.477 5.37194C31.5216 5.62547 31.3743 5.82419 31.1618 5.86187C30.946 5.89956 30.7404 5.76252 30.6959 5.50899C30.6514 5.25546 30.7987 5.06017 31.0145 5.01906C31.2235 4.9848 31.4325 5.12184 31.477 5.37194ZM22.2883 20.3576H21.86L20.7294 18.8159V20.3576H20.2189V17.9525H20.6883L21.7778 19.4223V17.9525H22.2883V20.3576ZM23.9602 20.3885C23.0763 20.3885 22.5795 19.7684 22.5795 19.1551C22.5795 18.5726 23.0523 17.9217 23.9602 17.9217C24.8681 17.9217 25.3341 18.5761 25.3341 19.1551C25.3341 19.7718 24.8202 20.3885 23.9602 20.3885ZM23.9602 18.4219C23.5011 18.4219 23.1962 18.7131 23.1962 19.1551C23.1962 19.597 23.5011 19.8883 23.9602 19.8883C24.4159 19.8883 24.7174 19.597 24.7174 19.1551C24.7174 18.7131 24.4125 18.4219 23.9602 18.4219ZM26.5538 20.3885H26.3311L25.3409 17.9525H25.8959L26.4373 19.3264L26.9512 17.9525H27.4994L26.5538 20.3885ZM29.7537 17.9525V19.3195C29.7537 20.1144 29.2912 20.3885 28.7293 20.3885C28.1366 20.3885 27.7083 20.063 27.7083 19.3195V17.9491H28.2188V19.3332C28.2188 19.6793 28.4313 19.8883 28.7225 19.8883C28.9931 19.8883 29.2398 19.7238 29.2398 19.2921V17.9525H29.7537ZM31.5661 18.5761C31.371 18.4526 31.1488 18.3785 30.9186 18.3602C30.737 18.3602 30.6205 18.4356 30.6205 18.5589C30.6205 18.9221 31.662 18.8193 31.662 19.6587C31.662 20.1212 31.3297 20.3885 30.8775 20.3885C30.5212 20.3885 30.343 20.2788 30.1409 20.1555V19.6382C30.4321 19.8677 30.6137 19.9499 30.8398 19.9499C31.0351 19.9499 31.1413 19.8677 31.1413 19.7272C31.1413 19.3332 30.0998 19.4771 30.0998 18.6138C30.0998 18.1958 30.4047 17.9217 30.8809 17.9217C31.1236 17.9265 31.3613 17.9913 31.573 18.1101V18.5761H31.5661ZM32.5049 18.6206H32.3884V18.0587H32.5974C32.7413 18.0587 32.8269 18.0998 32.8269 18.2266C32.8269 18.3294 32.7652 18.3671 32.6933 18.3705L32.8372 18.6138H32.6899L32.5597 18.3842H32.5049V18.6206ZM32.6111 18.2883C32.6659 18.2883 32.6967 18.278 32.6967 18.2163C32.6967 18.1581 32.6351 18.1512 32.5905 18.1512H32.5049V18.2883H32.6111ZM32.5939 18.8604C32.3164 18.8604 32.0698 18.6686 32.0698 18.3431C32.0698 18.0142 32.3164 17.8223 32.5939 17.8223C32.8715 17.8223 33.1147 18.0142 33.1147 18.3431C33.1166 18.4118 33.1044 18.4803 33.0789 18.5441C33.0534 18.608 33.015 18.6659 32.9662 18.7144C32.9174 18.7629 32.8592 18.8008 32.7952 18.826C32.7312 18.8511 32.6627 18.8628 32.5939 18.8604ZM32.5939 17.9422C32.3884 17.9422 32.2205 18.0998 32.2205 18.3431C32.2205 18.5829 32.3884 18.744 32.5939 18.7405C32.7961 18.7405 32.964 18.5795 32.964 18.3397C32.964 18.0998 32.7927 17.9422 32.5939 17.9422ZM38.665 0.73645H73.3438V22.8895H38.665V0.73645Z" fill="white"/>
<path d="M38.4834 0.558228H73.5219V23.0676H38.4834V0.558228Z" fill="black"/>
<path d="M73.1656 0.917969V22.7113H38.8397V0.917969H73.1656Z" fill="white"/>
<path d="M40.2649 16.5958H71.6787V21.2245H40.2649V16.5958Z" fill="#ECB73B"/>
<path d="M40.2649 2.37061H71.6787V7.03351H40.2649V2.37061ZM58.6048 8.08874C59.475 8.14356 59.8587 8.16411 60.9962 8.7534C60.9859 8.7534 60.311 9.84632 60.3315 9.8429C58.9953 8.97952 57.5598 9.28444 57.4879 10.0827C57.4365 10.9529 59.9135 11.5971 59.9375 12.9298C59.9546 14.8792 58.2416 15.5713 56.6416 15.5645C55.5384 15.5713 55.1547 15.5405 54.2502 14.958C54.2536 14.9443 54.7059 13.6733 54.7025 13.6253C55.004 13.7795 55.7782 14.3413 56.5765 14.3516C57.5906 14.3551 57.9881 13.8343 57.9709 13.4437C57.9675 12.5803 55.4733 12.1795 55.5213 10.5692C55.535 9.04462 57.0836 8.01679 58.6048 8.08874ZM48.2272 8.33542C48.2409 8.33885 48.3848 13.2107 48.3779 13.2073C48.3848 13.2107 51.1667 8.33885 51.1599 8.33542H52.7667C52.7907 8.33885 48.4019 15.4788 48.3779 15.4754H46.5038L46.3223 9.45232C46.3017 9.06518 45.9934 8.53071 45.0512 8.45533C45.0443 8.41765 45.0615 8.33885 45.0512 8.33542H48.2272ZM53.3389 8.33542H55.3363L53.0956 15.4754H51.0982L53.3389 8.33542ZM66.4128 9.48316C66.4888 9.48455 66.5643 9.47062 66.6347 9.44218C66.7052 9.41375 66.7692 9.37141 66.8229 9.31768C66.8767 9.26395 66.919 9.19994 66.9474 9.12948C66.9759 9.05902 66.9898 8.98355 66.9884 8.90758C66.9903 8.83163 66.9767 8.75609 66.9484 8.68559C66.9201 8.61509 66.8777 8.5511 66.8238 8.49754C66.7699 8.44398 66.7057 8.40198 66.635 8.3741C66.5644 8.34623 66.4888 8.33307 66.4128 8.33542C66.3369 8.33307 66.2613 8.34623 66.1906 8.3741C66.1199 8.40198 66.0557 8.44398 66.0018 8.49754C65.9479 8.5511 65.9055 8.61509 65.8772 8.68559C65.849 8.75609 65.8353 8.83163 65.8372 8.90758C65.8358 8.98355 65.8498 9.05902 65.8782 9.12948C65.9066 9.19994 65.949 9.26395 66.0027 9.31768C66.0564 9.37141 66.1205 9.41375 66.1909 9.44218C66.2614 9.47062 66.3368 9.48455 66.4128 9.48316ZM66.4128 9.35982C66.3549 9.35897 66.2978 9.34648 66.2449 9.3231C66.1919 9.29973 66.1442 9.26594 66.1045 9.22374C66.0649 9.18155 66.0342 9.13182 66.0141 9.0775C65.9941 9.02319 65.9852 8.9654 65.988 8.90758C65.988 8.64377 66.1627 8.46218 66.4128 8.45533C66.6629 8.46218 66.8411 8.64719 66.8377 8.90758C66.8409 8.96551 66.8323 9.02351 66.8125 9.07804C66.7927 9.13257 66.7619 9.18249 66.7222 9.22479C66.6825 9.26708 66.6346 9.30086 66.5814 9.32407C66.5282 9.34728 66.4708 9.35945 66.4128 9.35982ZM66.5636 8.96924C66.6629 8.94869 66.7246 8.90415 66.7143 8.78766C66.7212 8.64034 66.6424 8.5958 66.4711 8.60608H66.1696V9.2125H66.3203V8.96924H66.4094L66.5601 9.2125H66.7109L66.5636 8.96924ZM66.3237 8.84933V8.69516H66.4437C66.5122 8.69173 66.6012 8.68488 66.5944 8.75683C66.6012 8.84933 66.5533 8.86646 66.4745 8.84933H66.3237ZM70.5892 20.8612C70.667 20.8599 70.7438 20.8431 70.8151 20.8117C70.8863 20.7804 70.9506 20.7352 71.0042 20.6787C71.0578 20.6223 71.0996 20.5557 71.1272 20.4829C71.1548 20.4101 71.1675 20.3326 71.1648 20.2548C71.1648 20.1793 71.1499 20.1047 71.1209 20.035C71.092 19.9654 71.0495 19.9022 70.996 19.849C70.9425 19.7958 70.879 19.7537 70.8092 19.7252C70.7394 19.6966 70.6646 19.6822 70.5892 19.6826C70.4374 19.6835 70.2921 19.744 70.1844 19.851C70.0768 19.958 70.0154 20.103 70.0136 20.2548C70.0099 20.4114 70.0684 20.5631 70.1763 20.6768C70.2841 20.7904 70.4326 20.8567 70.5892 20.8612ZM70.5892 20.7104C70.3391 20.7139 70.1644 20.5289 70.1644 20.2548C70.1644 20.0115 70.3357 19.8265 70.5892 19.8334C70.6456 19.8299 70.7021 19.8384 70.755 19.8583C70.8079 19.8782 70.8559 19.9091 70.8961 19.9489C70.9362 19.9887 70.9674 20.0365 70.9878 20.0892C71.0081 20.1419 71.0171 20.1983 71.014 20.2548C71.0209 20.5289 70.8393 20.7139 70.5892 20.7104ZM70.74 20.3164C70.8393 20.313 70.901 20.265 70.8907 20.1349C70.8976 20.0012 70.8188 19.9567 70.6475 19.9533H70.346V20.5905H70.4967V20.3164H70.5858L70.7365 20.5905H70.8873L70.74 20.3164ZM70.5001 20.2239V20.0458H70.6201C70.6886 20.0561 70.7777 20.0492 70.7708 20.1349C70.7777 20.2102 70.7297 20.2274 70.6475 20.2239H70.5001ZM65.3542 8.33542C65.361 8.37311 65.9743 15.4788 65.9606 15.4754H64.0214L63.8981 13.9028H61.7191C61.7088 13.9028 60.9345 15.4788 60.9345 15.4754H59.3003L63.415 8.33542H65.3542ZM63.6582 10.3294C63.6548 10.3294 63.8501 12.9024 63.8398 12.9024H62.2364C62.2398 12.9058 63.6548 10.35 63.6582 10.3294Z" fill="#2360A5"/>
<path d="M63.6583 10.3293C63.6548 10.3293 63.8501 12.9023 63.8398 12.9023H62.2364C62.2398 12.9058 63.6548 10.3499 63.6583 10.3293Z" fill="white"/>
<path d="M148.803 0.595947H113.95V23.1122H148.981V0.595947H148.803Z" fill="black"/>
<path d="M148.625 0.952271V22.7559H114.306V0.952271H148.625Z" fill="white"/>
<path d="M139.46 13.2656C139.392 12.6009 138.95 12.2069 138.158 12.2069C137.436 12.2069 136.867 12.7277 136.867 13.5671C136.867 14.4099 137.384 14.9341 138.241 14.9341C138.926 14.9341 139.402 14.5298 139.477 13.8651H138.662C138.631 14.1118 138.501 14.3037 138.227 14.3037C137.795 14.3037 137.716 13.9611 137.716 13.5979C137.716 13.0977 137.895 12.8442 138.196 12.8442C138.463 12.8442 138.631 12.9983 138.655 13.269H139.46V13.2656Z" fill="black"/>
<path d="M141.615 14.9307V14.8965C141.519 14.8177 141.516 14.7629 141.516 14.6566V13.7761C141.516 13.3273 141.461 12.995 140.57 12.995C139.827 12.995 139.543 13.228 139.543 13.6288H140.262C140.279 13.4678 140.42 13.4438 140.526 13.4438C140.605 13.4438 140.769 13.4609 140.769 13.598C140.769 13.9509 139.426 13.5603 139.426 14.4168C139.426 14.8074 139.741 14.9856 140.101 14.9856C140.23 14.9937 140.36 14.9755 140.482 14.9319C140.604 14.8883 140.715 14.8203 140.81 14.732L140.845 14.9342H141.615V14.9307ZM140.44 14.5607C140.293 14.5607 140.204 14.4956 140.204 14.4031C140.204 14.1599 140.526 14.2147 140.773 14.0982C140.786 14.3552 140.701 14.5607 140.44 14.5607ZM141.732 14.941H142.479V14.2901C142.479 13.8858 142.633 13.7419 142.941 13.7419C142.993 13.7419 143.044 13.7556 143.095 13.7624V13.0156L143 13.0053C142.708 13.0053 142.523 13.1457 142.421 13.4404H142.414V13.0567H141.732V14.941Z" fill="black"/>
<path d="M144.12 14.4475C143.877 14.4475 143.825 14.2179 143.825 14.0192C143.825 13.8102 143.894 13.5738 144.14 13.5738C144.39 13.5738 144.462 13.8 144.462 14.0089C144.459 14.2282 144.377 14.4475 144.12 14.4475ZM145.182 14.9306V12.3439H144.435V13.2415C144.277 13.0531 144.11 12.9983 143.873 12.9983C143.421 12.9983 143.075 13.4025 143.075 14.0295C143.075 14.564 143.363 14.9888 143.931 14.9888C144.171 14.9888 144.332 14.9169 144.51 14.6839V14.934H145.182V14.9306ZM145.268 14.3002C145.309 14.8072 145.781 14.9408 146.213 14.9408C146.902 14.9408 147.227 14.6736 147.227 14.283C147.227 13.5773 146.035 13.7554 146.035 13.495C146.035 13.4025 146.117 13.3614 146.247 13.3614C146.306 13.3614 146.36 13.3751 146.398 13.4094C146.419 13.4263 146.436 13.4471 146.448 13.4706C146.46 13.4942 146.468 13.5199 146.47 13.5464H147.152C147.107 13.0462 146.628 12.9537 146.217 12.9537C145.826 12.9537 145.322 13.0942 145.322 13.5773C145.322 14.307 146.477 14.0672 146.477 14.3687C146.477 14.5023 146.354 14.5366 146.241 14.5366C146.174 14.5383 146.109 14.5178 146.056 14.4783C146.03 14.4583 146.009 14.4323 145.995 14.4024C145.981 14.3726 145.975 14.3398 145.977 14.307H145.268V14.3002Z" fill="black"/>
<path d="M121.936 10.6309H121.258V9.13373L120.531 10.6344L120.141 10.6446L119.301 9.15429V10.6309L118.16 10.6275L117.77 10.0211L116.759 10.0279L116.499 10.6241L115.759 10.6275L116.845 8.17786H117.664L118.63 10.0005L118.637 8.17786H119.589L120.333 9.5106L120.918 8.17786H121.933L121.936 10.6309Z" fill="#00ACEC"/>
<path d="M117.472 9.46262H116.937L117.205 8.8562L117.472 9.46262Z" fill="white"/>
<path d="M126.979 8.61982C127.023 8.77054 127.021 8.93107 126.972 9.08028C126.923 9.2295 126.83 9.3604 126.705 9.45579C127.024 9.6682 126.972 10.6241 126.972 10.6241H126.284C126.284 10.6241 126.342 9.88062 126.164 9.80182C126.016 9.747 125.362 9.77099 125.362 9.77099L125.352 10.6412H124.67L124.66 8.17786H126.393C126.561 8.17786 126.88 8.33203 126.979 8.61982Z" fill="#00ACEC"/>
<path d="M126.28 8.96584C126.28 9.03779 126.208 9.14057 126.051 9.15085L125.338 9.144L125.348 8.75C125.348 8.75 125.612 8.75685 125.962 8.75685C126.232 8.7363 126.277 8.90075 126.28 8.96584Z" fill="white"/>
<path d="M124.249 8.18469V8.79796H123.08L123.073 9.09946H124.276L124.269 9.7093H123.08L123.067 10.0142H124.279V10.6309L122.323 10.6206L122.313 8.18469H124.249ZM132.2 13.6938C131.974 13.526 131.94 13.2519 131.964 12.9881C131.974 12.7756 132.132 12.5838 132.314 12.4776C132.488 12.3885 132.598 12.3988 132.742 12.3885H133.866V12.9846H132.776C132.663 12.9846 132.639 13.06 132.632 13.1183C132.639 13.2587 132.742 13.2621 132.838 13.2724C133.043 13.2724 133.499 13.269 133.667 13.4163C133.893 13.5842 133.927 13.8583 133.903 14.1221C133.89 14.2294 133.852 14.332 133.791 14.4214C133.73 14.5108 133.649 14.5844 133.554 14.636C133.379 14.7251 133.269 14.7114 133.122 14.7251H131.981V14.1255H133.06C133.184 14.1255 133.225 14.0501 133.232 13.9919C133.221 13.8549 133.122 13.8514 133.026 13.8377H132.612C132.516 13.8336 132.422 13.8127 132.334 13.7761C132.341 13.7761 132.245 13.7315 132.2 13.6938ZM134.431 13.6973C134.205 13.5294 134.17 13.2519 134.194 12.9915C134.208 12.8842 134.246 12.7816 134.307 12.6922C134.368 12.6028 134.449 12.5292 134.544 12.4776C134.719 12.3885 134.832 12.3988 134.976 12.3885L136.117 12.3953V12.9846H135.02C134.887 12.9881 134.866 13.0806 134.866 13.1183C134.876 13.2587 134.976 13.2621 135.075 13.2724C135.281 13.2724 135.736 13.269 135.904 13.4163C136.13 13.5842 136.164 13.8583 136.14 14.1221C136.127 14.3345 135.973 14.5264 135.791 14.6326C135.616 14.7217 135.507 14.7114 135.359 14.7217L134.212 14.7182L134.201 14.1255H135.281C135.448 14.1255 135.462 14.0501 135.469 13.9919C135.459 13.8514 135.359 13.848 135.26 13.8412H134.849C134.754 13.8354 134.66 13.8145 134.571 13.7795C134.571 13.7795 134.472 13.7349 134.431 13.6973ZM131.666 12.9572H130.481V13.2793L131.673 13.2759L131.666 13.8788L130.484 13.8686L130.481 14.1564L131.666 14.1632V14.7148L129.789 14.7217L129.795 12.3714H131.669L131.666 12.9572Z" fill="#00ACEC"/>
<path d="M136.195 11.9945H134.595C133.979 12.015 134.102 12.3919 134.085 11.9979C134.078 11.9808 132.471 11.9945 132.471 11.9945C131.803 11.9979 131.961 12.3611 131.94 11.9911C131.93 11.9705 129.432 11.9945 129.432 11.9945L129.439 12.2103C129.292 12.0562 128.87 11.9705 128.761 11.9945H126.719V12.2138C126.719 12.2138 126.462 12.0013 126.297 11.9945H123.793L123.395 12.4467L123.025 12.0082L120.072 12.0185V15.1191H123.022L123.395 14.6668L123.793 15.1191H125.643L125.646 14.3448C125.646 14.3448 126.585 14.3996 126.712 14.1152L126.722 14.4544L126.719 15.1225H128.093L128.086 14.3311C128.226 14.3276 128.418 14.3002 128.418 14.4578C128.418 14.636 128.401 14.1118 128.418 15.1225H133.472C133.561 15.1225 133.578 15.1294 133.657 15.1088C133.763 15.0848 133.879 14.9478 133.951 14.8484C133.948 14.9683 133.958 15.1328 133.958 15.1328L135.764 15.1362C135.858 15.1327 135.951 15.1043 136.031 15.054C136.25 14.7079 136.219 14.8347 136.199 15.1054V21.3306H115.714V11.0249H116.739L116.985 10.439L117.52 10.4356L117.818 11.0249H119.623L119.62 10.559L119.891 11.0283H120.74L120.98 10.5692L120.984 11.0249H125.64L125.643 10.1375C125.643 10.1375 126.054 10.0553 125.989 10.3123V11.0249H128.213L128.206 10.7611C128.209 10.7371 128.367 11.0181 128.778 11.0249C129.535 11.0318 129.662 11.0043 130.186 11.0249L130.505 10.4665H131.118L131.399 11.0249L133.187 11.0146L133.201 10.3911L133.592 11.0215H135.041V7.77698L133.663 7.77355V8.33885L133.324 7.77355L131.721 7.77698L131.717 8.32172L131.433 7.77698H129.103C128.326 7.77355 128.199 8.16755 128.199 8.16755L128.202 7.77698H127.024C127.024 7.77698 126.969 7.85235 127 7.96541C126.907 7.86948 126.811 7.76327 126.53 7.77698L120.682 7.77355C120.682 7.77355 120.381 8.3183 120.295 8.61294C120.156 8.34078 120.028 8.06304 119.911 7.7804L118.253 7.77012L118.263 8.49303C118.178 8.30117 117.89 7.77698 117.89 7.77698H116.602L115.711 9.7367L115.718 2.36719H136.202V11.9945H136.195Z" fill="#00ACEC"/>
<path d="M127.301 8.1779H127.914V10.6241H127.301V8.1779ZM129.998 8.72607C129.998 8.72607 129.048 8.637 128.956 9.01729C128.843 9.21943 128.843 9.65797 129.028 9.87724C129.165 10.0006 129.35 10.052 129.532 10.004L129.669 9.80529L130.481 8.17447H131.217L132.105 10.0588L132.098 8.17447H133.043C133.074 8.17447 133.972 9.62713 133.972 9.62713L133.979 8.17447H134.63L134.633 10.6207H133.855L132.783 9.07211V10.6207H131.604L131.282 10.0588L130.278 10.0554L130.004 10.6173C130.004 10.6173 128.788 10.7475 128.535 10.3569C128.202 10.0006 128.178 9.44213 128.267 8.96247C128.295 8.8267 128.349 8.69784 128.427 8.58362C128.506 8.46941 128.606 8.37219 128.723 8.29781C129.059 8.1128 129.984 8.17105 129.984 8.17105L129.998 8.72607Z" fill="#00ACEC"/>
<path d="M131.046 9.44895H130.511L130.782 8.84253L131.046 9.44895Z" fill="white"/>
<path d="M123.382 13.0155L123.93 12.3714H126.171C126.434 12.433 126.619 12.6763 126.702 12.9298C126.741 13.0914 126.735 13.2607 126.684 13.4191C126.633 13.5774 126.54 13.7187 126.414 13.8274C126.338 13.8823 126.332 13.9097 126.174 13.9268H125.246L125.239 14.7216H123.944L123.365 14.0775C123.207 14.2386 122.768 14.7216 122.768 14.7216L120.47 14.7285V12.3645C122.487 12.3885 122.786 12.3748 122.786 12.3748L123.382 13.0155Z" fill="#00ACEC"/>
<path d="M121.076 12.9298V13.2587H122.261L122.258 13.8891H121.076L121.069 14.2009H122.258L122.82 13.5671L122.248 12.9196L121.076 12.9298ZM124.502 14.2009L123.889 13.5568L124.502 12.947V14.2009ZM126.174 13.1628C126.174 13.2382 126.102 13.3375 125.941 13.3478H125.225L125.228 12.9641L125.855 12.9538C126.123 12.9333 126.167 13.0977 126.174 13.1628Z" fill="white"/>
<path d="M128.809 12.3714H127.133V14.7354L127.798 14.7217V13.92L128.535 13.9269C128.754 13.9988 128.678 14.732 128.678 14.732H129.36C129.36 14.732 129.439 13.622 129.093 13.6288C129.215 13.5368 129.306 13.4097 129.354 13.2646C129.401 13.1195 129.404 12.9633 129.36 12.8168C129.264 12.5359 128.915 12.3475 128.809 12.3714Z" fill="#00ACEC"/>
<path d="M128.398 12.9263H127.798V13.3203H128.483C128.644 13.31 128.716 13.2073 128.716 13.1319C128.709 13.0702 128.668 12.9058 128.398 12.9263Z" fill="white"/>
<path d="M137.161 21.3718C137.316 21.3718 137.464 21.3104 137.573 21.2012C137.682 21.092 137.744 20.9438 137.744 20.7893C137.744 20.6349 137.682 20.4867 137.573 20.3775C137.464 20.2683 137.316 20.2069 137.161 20.2069C137.007 20.2069 136.859 20.2683 136.75 20.3775C136.64 20.4867 136.579 20.6349 136.579 20.7893C136.579 20.9438 136.64 21.092 136.75 21.2012C136.859 21.3104 137.007 21.3718 137.161 21.3718ZM137.161 21.2347C136.908 21.2347 136.733 21.0497 136.733 20.7893C136.733 20.529 136.908 20.344 137.161 20.344C137.412 20.344 137.59 20.529 137.59 20.7893C137.593 21.0497 137.412 21.2347 137.161 21.2347ZM137.298 20.8407C137.412 20.8339 137.47 20.7825 137.47 20.6694C137.47 20.5221 137.391 20.4776 137.227 20.4776H136.925V21.108H137.055V20.8407H137.161L137.302 21.108H137.456L137.298 20.8407ZM137.052 20.7448V20.5735H137.196C137.257 20.5735 137.346 20.5666 137.346 20.6523C137.346 20.7311 137.295 20.7482 137.227 20.7448H137.052Z" fill="#00ACEC"/>
<path d="M108.352 17.2467C108.347 17.2037 108.352 17.1602 108.365 17.1191C108.378 17.078 108.4 17.0401 108.429 17.008C108.458 16.9759 108.493 16.9502 108.533 16.9326C108.572 16.915 108.615 16.9059 108.658 16.9059C108.701 16.9059 108.744 16.915 108.784 16.9326C108.823 16.9502 108.858 16.9759 108.887 17.008C108.916 17.0401 108.938 17.078 108.952 17.1191C108.965 17.1602 108.969 17.2037 108.965 17.2467C108.957 17.3224 108.921 17.3925 108.864 17.4435C108.808 17.4944 108.734 17.5226 108.658 17.5226C108.582 17.5226 108.509 17.4944 108.452 17.4435C108.395 17.3925 108.36 17.3224 108.352 17.2467ZM108.66 17.4831C108.721 17.4831 108.78 17.4587 108.823 17.4154C108.867 17.372 108.891 17.3132 108.891 17.2518C108.891 17.1905 108.867 17.1317 108.823 17.0883C108.78 17.0449 108.721 17.0206 108.66 17.0206C108.629 17.0201 108.599 17.0257 108.571 17.037C108.543 17.0484 108.517 17.0652 108.495 17.0866C108.474 17.1079 108.456 17.1334 108.445 17.1615C108.433 17.1895 108.427 17.2197 108.427 17.2501C108.427 17.3769 108.533 17.4831 108.66 17.4831ZM108.619 17.3837H108.557V17.1131H108.67C108.694 17.1131 108.718 17.1131 108.739 17.1268C108.763 17.1405 108.773 17.1679 108.773 17.1953C108.773 17.2261 108.756 17.257 108.725 17.2672L108.776 17.3872H108.704L108.663 17.2775H108.619V17.3837ZM108.619 17.2296H108.653C108.667 17.2296 108.68 17.2296 108.691 17.2227C108.701 17.2193 108.704 17.2056 108.704 17.1919C108.704 17.1816 108.698 17.1713 108.691 17.1645C108.68 17.1576 108.663 17.161 108.65 17.161H108.615V17.2296H108.619Z" fill="#E0912F"/>
<path d="M108.351 14.1598C108.351 14.078 108.384 13.9996 108.442 13.9418C108.5 13.8839 108.578 13.8514 108.66 13.8514C108.742 13.8514 108.82 13.8839 108.878 13.9418C108.936 13.9996 108.968 14.078 108.968 14.1598C108.968 14.2416 108.936 14.32 108.878 14.3778C108.82 14.4356 108.742 14.4681 108.66 14.4681C108.578 14.4681 108.5 14.4356 108.442 14.3778C108.384 14.32 108.351 14.2416 108.351 14.1598ZM108.66 14.3928C108.79 14.3928 108.893 14.29 108.893 14.1598C108.893 14.0296 108.79 13.9268 108.66 13.9268C108.53 13.9268 108.427 14.033 108.427 14.1598C108.427 14.2866 108.533 14.3928 108.66 14.3928ZM108.619 14.2934H108.557V14.0227H108.67C108.694 14.0227 108.718 14.0227 108.739 14.0364C108.763 14.0502 108.773 14.0776 108.773 14.105C108.774 14.1201 108.769 14.135 108.761 14.1474C108.752 14.1598 108.739 14.169 108.725 14.1735L108.776 14.2934H108.704L108.663 14.1872H108.619V14.2934ZM108.619 14.1392H108.653L108.691 14.1358C108.701 14.129 108.704 14.1152 108.704 14.105C108.704 14.0947 108.698 14.0844 108.691 14.0776C108.68 14.0707 108.663 14.0741 108.65 14.0741H108.615V14.1392H108.619Z" fill="white"/>
<path d="M90.529 11.8198H90.9059L90.9538 11.4806H90.5838L90.529 11.8198ZM89.2339 13.663C89.2339 13.5534 89.2442 13.4369 89.2648 13.3101L89.7718 10.2472H89.5594L89.09 13.0532L89.0969 13.1971C89.0969 13.4369 89.0592 13.6424 88.9838 13.8137C88.9804 13.8617 88.9701 13.9165 88.9701 13.9611C88.9701 14.5195 89.2682 14.821 89.7513 14.821C89.9911 14.821 90.2104 14.7833 90.529 14.6908L90.5701 14.4441C90.4012 14.489 90.2275 14.5131 90.0528 14.5161C89.5217 14.5229 89.2339 14.218 89.2339 13.663ZM92.8793 11.3264C92.636 11.3264 92.4442 11.4669 92.3208 11.7238C92.4071 11.6633 92.5101 11.631 92.6155 11.6313C92.8827 11.6313 93.0472 11.7787 93.0849 12.0322H93.3555L93.3624 11.8335C93.3658 11.5114 93.1876 11.3264 92.8793 11.3264ZM91.1286 12.7654C91.1286 12.1864 91.2793 11.6793 91.5226 11.2784C91.0996 11.7763 90.8773 12.4139 90.899 13.0669C90.899 14.218 91.5465 14.821 92.6532 14.821C93.0129 14.821 93.3555 14.7696 93.7084 14.6634L93.7564 14.3996C93.4714 14.476 93.1777 14.5151 92.8827 14.5161C91.7315 14.5161 91.1286 13.9165 91.1286 12.7654Z" fill="#1B326C"/>
<path d="M92.1324 12.9435C92.1324 13.0086 92.1393 13.0669 92.153 13.1251H93.962L94.0236 12.8236H92.1427L92.1324 12.9435ZM80.3741 10.7645L80.1411 12.1624L80.2028 14.7491H80.9052L81.0114 14.4442H80.4632L80.3741 10.7645ZM82.0186 9.93201H81.8234L81.1107 12.0493L81.121 12.6112L82.0186 9.93201ZM82.4846 10.744L82.094 11.8335L81.6315 14.7491H82.6593L82.7107 14.4442H81.8919L82.4846 10.744ZM79.545 9.93201H79.2983L78.4932 14.7491H79.4936L79.545 14.4442H78.7913L79.545 9.93201ZM85.6263 11.7067C85.6263 11.4463 85.4447 11.3504 84.9651 11.3504C84.6761 11.3506 84.3883 11.3874 84.1086 11.46L83.8722 11.5251L83.9784 10.8845C83.9035 10.9027 83.8292 10.9233 83.7557 10.9461L83.6118 11.8266L83.8139 11.7684C84.0918 11.6916 84.3787 11.6525 84.667 11.6519C85.109 11.6519 85.3248 11.7238 85.3557 11.9363C85.4324 11.94 85.509 11.9469 85.5852 11.9568C85.61 11.8757 85.6238 11.7915 85.6263 11.7067ZM84.3826 13.084C84.5572 13.0115 84.7454 12.9777 84.9342 12.9846C85.0062 12.9846 85.0302 12.9881 85.1364 12.9984C85.1362 13.2056 85.0943 13.4107 85.013 13.6013C85.2734 13.4609 85.4447 13.1285 85.4584 12.6969C85.3824 12.6854 85.3057 12.6797 85.2289 12.6797C84.7527 12.6832 84.4717 12.8202 84.3826 13.084ZM85.3762 14.0399C85.2467 14.1986 85.0813 14.3243 84.8936 14.4065C84.706 14.4887 84.5015 14.5251 84.297 14.5127C83.7385 14.5127 83.3548 14.0776 83.3548 13.4437C83.3475 13.1492 83.4286 12.8592 83.5878 12.6112C83.38 12.766 83.2294 12.9853 83.1595 13.2348C83.1124 13.4009 83.0871 13.5725 83.0842 13.7452C83.0842 14.3791 83.5021 14.8142 84.0023 14.8142C84.5505 14.8142 84.8554 14.6463 85.0816 14.3414L85.061 14.7491H85.9518L85.9895 14.4442H85.3591L85.3762 14.0399ZM97.9739 11.114C98.1695 10.9549 98.4138 10.8678 98.666 10.8673C98.9503 10.8673 99.221 10.9427 99.5876 11.1277L99.6527 10.7269C99.4315 10.6239 99.1909 10.569 98.9469 10.5658C98.7516 10.5674 98.5599 10.6186 98.3897 10.7144C98.2196 10.8103 98.0765 10.9478 97.9739 11.114ZM94.887 10.8296H94.6712L94.0442 14.7491H95.0755L95.1268 14.4442H94.308L94.887 10.8296ZM106.978 14.0604C106.861 14.1988 106.715 14.3095 106.55 14.3847C106.386 14.46 106.206 14.4978 106.025 14.4956C105.275 14.4956 104.782 13.848 104.782 12.8682C104.782 12.1247 105.032 11.4498 105.415 11.0078C105.179 11.173 104.986 11.3928 104.853 11.6485L104.857 11.6416L104.782 11.6348C104.507 11.6348 104.357 11.7615 104.213 12.2789C104.266 12.5875 104.362 12.8872 104.497 13.1697C104.497 14.1495 105.008 14.797 105.758 14.797C106.135 14.797 106.426 14.6634 106.71 14.3619L106.659 14.7457H107.632L107.683 14.4407H106.923L106.978 14.0604ZM107.618 9.93201H107.372L107.235 10.7748C107.311 10.8449 107.381 10.9217 107.444 11.0044L107.618 9.93201Z" fill="#1B326C"/>
<path d="M106.652 11.4327C106.405 11.4327 106.2 11.5834 106.056 11.8404C106.153 11.7719 106.269 11.7348 106.388 11.7342C106.745 11.7342 106.933 12.0049 106.933 12.5016C106.942 12.8157 106.872 13.127 106.728 13.4061C107.012 13.2074 107.197 12.7654 107.197 12.1967C107.197 11.7034 107.008 11.4327 106.652 11.4327ZM103.37 10.8297H103.158L102.527 14.7492H103.558L103.61 14.4442H102.791L103.37 10.8297ZM100.622 13.0841C100.796 13.0119 100.983 12.978 101.17 12.9847C101.242 12.9847 101.263 12.9881 101.373 12.9984C101.372 13.2057 101.33 13.4107 101.249 13.6014C101.51 13.4609 101.681 13.1286 101.695 12.6969C101.619 12.6856 101.542 12.6799 101.465 12.6798C100.989 12.6832 100.708 12.8203 100.622 13.0841ZM101.612 14.04C101.483 14.1991 101.318 14.3251 101.13 14.4074C100.942 14.4896 100.738 14.5257 100.533 14.5128C99.9747 14.5128 99.5944 14.0776 99.5944 13.4438C99.5871 13.1492 99.6682 12.8592 99.8274 12.6113C99.585 12.7962 99.4132 13.0586 99.3409 13.3547L99.4745 13.2965L99.3409 14.0982C99.3921 14.2984 99.507 14.4765 99.6683 14.6057C99.8296 14.7349 100.029 14.8081 100.235 14.8142C100.783 14.8142 101.092 14.6464 101.314 14.3414L101.297 14.7492H102.188L102.222 14.4442H101.592L101.612 14.04ZM101.859 11.7068C101.859 11.4464 101.681 11.3505 101.198 11.3505C100.909 11.3507 100.621 11.3875 100.341 11.4601L100.108 11.5252L100.211 10.8845C100.136 10.9028 100.062 10.9233 99.9884 10.9462L99.8445 11.8267L100.05 11.7685C100.328 11.6917 100.615 11.6525 100.903 11.652C101.345 11.652 101.558 11.7239 101.592 11.9363C101.669 11.9401 101.745 11.9469 101.821 11.9569C101.845 11.8757 101.858 11.7915 101.859 11.7068ZM86.5684 12.0802C86.5684 12.5462 86.7946 12.8956 87.3393 13.1526C87.7573 13.3479 87.8292 13.3856 87.8292 13.5637L87.819 13.6048C88.004 13.5569 88.0965 13.4575 88.0965 13.2896C88.0965 13.1115 88.0314 13.0532 87.6168 12.858C87.0721 12.601 86.8323 12.2618 86.8323 11.765C86.8323 11.5081 86.8836 11.2717 87.0001 11.0661C86.7818 11.2449 86.6387 11.4993 86.5993 11.7787C86.5856 11.8952 86.5719 12.0049 86.5684 12.0802ZM87.8943 11.6862V11.6965C87.9613 11.6781 88.0305 11.6689 88.0999 11.6691C88.302 11.6657 88.5761 11.6862 88.8742 11.7273L88.929 11.3984C88.7527 11.3782 88.5754 11.3668 88.398 11.3642C88.0622 11.3642 87.8943 11.4738 87.8943 11.6862ZM86.9419 14.4751C86.8522 14.4692 86.7629 14.4577 86.6746 14.4408L86.4417 14.3928L86.5239 13.8515C86.4485 13.8344 86.3766 13.8207 86.2978 13.7933L86.2087 14.4442H86.195L86.1642 14.6909L86.1847 14.6943L86.3732 14.732C86.4626 14.7502 86.553 14.7639 86.6438 14.7731C86.8871 14.7937 87.0961 14.8074 87.2263 14.8074C88.0005 14.8074 88.4596 14.6018 88.6823 14.2044C88.422 14.4065 88.0348 14.5059 87.5072 14.5059C87.377 14.5059 87.1886 14.4956 86.9419 14.4751Z" fill="#1B326C"/>
<path d="M96.2985 11.6348C96.2677 11.6348 96.2369 11.6348 96.2094 11.6416C96.239 11.6375 96.2687 11.6352 96.2985 11.6348ZM96.1272 11.6587L96.0553 11.6896C96.0787 11.6781 96.1027 11.6678 96.1272 11.6587ZM95.812 12.0322L95.7675 12.1521C95.7791 12.111 95.794 12.0709 95.812 12.0322ZM95.9251 11.8129C95.9045 11.8369 95.8874 11.8677 95.8703 11.8986L95.9251 11.8129Z" fill="#CF4044"/>
<path d="M98.1007 14.8347C98.4096 14.8315 98.7165 14.7842 99.012 14.6942L99.0531 14.451C98.8334 14.5054 98.6079 14.533 98.3816 14.5332C98.0302 14.5483 97.6831 14.4507 97.391 14.2547C97.0989 14.0587 96.877 13.7746 96.7576 13.4437C96.6358 13.128 96.5753 12.792 96.5795 12.4536C96.5795 11.9328 96.6686 11.46 96.8296 11.0557C96.984 10.642 97.2424 10.275 97.5799 9.99023C97.5525 10.0039 97.5251 10.0108 97.5011 10.0279C97.2723 10.1678 97.0656 10.341 96.8878 10.5418L96.7645 10.5041V10.5076C96.5932 10.8228 96.4664 11.1688 96.3739 11.6416L96.2985 11.6348C96.2677 11.6348 96.2369 11.6348 96.2095 11.6416H96.2026C96.1782 11.6453 96.1541 11.651 96.1307 11.6587L96.0587 11.6896C96.0382 11.7033 96.0142 11.717 95.9936 11.7375V11.741C95.9716 11.7602 95.9521 11.7821 95.9354 11.8061V11.8095C95.9148 11.8335 95.8977 11.8643 95.8806 11.8951L95.8771 11.9054C95.8585 11.9384 95.8424 11.9727 95.8292 12.0082L95.8223 12.0288L95.7778 12.1487C95.9285 12.0082 96.0724 12.0013 96.2472 12.0048H96.3191C96.2865 12.2512 96.2705 12.4996 96.2711 12.7482C96.2711 13.2861 96.4082 13.7315 96.6377 14.0776C96.9495 14.5606 97.46 14.8347 98.1007 14.8347Z" fill="#1B326C"/>
<path d="M96.6241 10.487C96.2849 10.487 96.093 10.6617 95.7778 11.1243L95.8669 10.5316H94.935L94.308 14.4441H95.3393C95.5209 13.2553 95.6374 12.5564 95.7675 12.1555C95.7797 12.1146 95.7946 12.0746 95.8121 12.0356L95.8189 12.015C95.8322 11.9796 95.8482 11.9452 95.8669 11.9123L95.8703 11.9054C95.8909 11.8712 95.908 11.8403 95.9286 11.8163V11.8129C95.9453 11.7889 95.9648 11.7671 95.9868 11.7478V11.7444C96.0077 11.7273 96.0294 11.7113 96.0519 11.6964C96.0725 11.6861 96.0965 11.6724 96.1239 11.6656L96.1958 11.6485H96.2027C96.2572 11.6411 96.3123 11.6399 96.3671 11.645C96.4373 11.2478 96.569 10.8641 96.7577 10.5076L96.72 10.5007C96.6891 10.4904 96.6566 10.4858 96.6241 10.487ZM90.2961 13.2758C90.2961 13.2382 90.3029 13.1868 90.3132 13.1148L90.5839 11.4806H91.1115L91.2554 10.5281H90.7312L90.8511 9.94569H89.8267L89.2648 13.3135C89.2448 13.4301 89.2345 13.5481 89.234 13.6664C89.234 14.2214 89.5218 14.5264 90.046 14.5264C90.2173 14.5264 90.3852 14.499 90.5633 14.4544C90.6353 14.4373 90.7038 14.4236 90.786 14.3996L90.9231 13.5328C90.8333 13.5605 90.7395 13.5732 90.6455 13.5705C90.4023 13.5671 90.2961 13.478 90.2961 13.2758ZM88.3741 12.111C87.9526 11.9157 87.8944 11.8677 87.8944 11.6964V11.6861C87.8944 11.4737 88.0657 11.3641 88.3946 11.3641C88.6002 11.3641 88.8743 11.3846 89.1346 11.4258L89.282 10.5178C88.9826 10.4719 88.6804 10.4467 88.3775 10.4425C87.2263 10.4425 86.8255 11.0455 86.8289 11.7649C86.8289 12.2617 87.0687 12.6009 87.6135 12.8579C88.0314 13.0532 88.0931 13.1114 88.0931 13.2896C88.0931 13.4574 88.0006 13.5568 87.8156 13.6048C87.7136 13.6299 87.6089 13.6426 87.5038 13.6424C87.1893 13.6394 86.8772 13.5874 86.5788 13.4883L86.4383 14.3928L86.6713 14.4407C86.9481 14.4825 87.2274 14.5054 87.5073 14.5092C88.5899 14.5092 89.0935 14.0947 89.0935 13.2039C89.097 12.6626 88.888 12.3474 88.3741 12.111ZM108.687 9.63049H107.67L107.444 11.0044C107.163 10.6343 106.858 10.4699 106.457 10.4699C105.546 10.4699 104.778 11.5662 104.778 12.8716C104.778 13.8514 105.275 14.499 106.022 14.499C106.399 14.499 106.69 14.3653 106.974 14.0638L106.926 14.4441H107.903L108.687 9.63049ZM106.382 13.5225C106.029 13.5225 105.851 13.2621 105.851 12.7482C105.851 11.9774 106.183 11.4326 106.652 11.4326C107.009 11.4326 107.197 11.7033 107.197 12.2001C107.197 12.9778 106.861 13.5225 106.382 13.5225ZM94.1093 13.3821C93.7763 13.5443 93.4108 13.6286 93.0404 13.6287C92.4408 13.6287 92.1359 13.3958 92.1359 12.9435L92.1462 12.8202H94.195C94.2741 12.5041 94.3167 12.1799 94.3217 11.854C94.3217 10.9838 93.7804 10.4288 92.9307 10.4288C92.6426 10.4346 92.3611 10.5162 92.1145 10.6653C91.8679 10.8145 91.665 11.0259 91.5261 11.2784C91.2603 11.7283 91.1239 12.2429 91.1321 12.7654C91.1321 13.9165 91.735 14.5195 92.8862 14.5195C93.1843 14.5195 93.4686 14.475 93.7599 14.403C93.8215 14.3893 93.8798 14.3825 93.9414 14.3619L94.1093 13.3821ZM93.359 12.0288H92.2215C92.3175 11.5765 92.5505 11.3264 92.8794 11.3264C93.1843 11.3264 93.3659 11.5148 93.3659 11.83L93.359 12.0288ZM83.7214 9.63049H82.1215L81.121 12.6112L81.0765 9.63049H79.5964L78.7913 14.4441H79.7575L80.3741 10.7645L80.4632 14.4441H81.1656L82.4846 10.744L81.8919 14.4441H82.9232L83.7214 9.63049ZM86.3013 13.7555C86.3013 13.7555 86.5445 12.1932 86.5754 11.9671C86.5925 11.8403 86.5993 11.717 86.6028 11.5936C86.6028 10.8433 86.1334 10.4459 85.2495 10.4459C84.8692 10.4459 84.53 10.5041 84.0161 10.6549L83.8722 11.5354L84.1086 11.4634C84.3879 11.3889 84.676 11.3521 84.9651 11.3538C85.4448 11.3538 85.6263 11.4497 85.6263 11.7101C85.6254 11.7962 85.6116 11.8817 85.5852 11.9637C85.4452 11.9478 85.3046 11.9375 85.1638 11.9328C84.4135 11.9328 83.8756 12.1761 83.5878 12.6112C83.43 12.8598 83.3489 13.1493 83.3548 13.4437C83.3548 14.0776 83.7386 14.5127 84.297 14.5127C84.5016 14.5257 84.7063 14.4895 84.894 14.4073C85.0818 14.325 85.2471 14.199 85.3762 14.0399L85.3557 14.4441H86.2088L86.3013 13.7555ZM84.7218 13.6767C84.4957 13.6767 84.3518 13.5225 84.3518 13.2793C84.3518 12.8818 84.6465 12.6831 85.2289 12.6831C85.3057 12.6831 85.3825 12.6888 85.4585 12.7003C85.4448 13.2793 85.1398 13.6767 84.7218 13.6767ZM102.753 12.3645C102.822 11.9294 102.836 11.7821 102.836 11.5868C102.836 10.8365 102.366 10.439 101.482 10.439C101.102 10.439 100.763 10.4973 100.249 10.648L100.105 11.5285L100.341 11.4634C100.621 11.3892 100.909 11.3523 101.198 11.3538C101.681 11.3538 101.859 11.4497 101.859 11.7101C101.858 11.7962 101.844 11.8817 101.818 11.9637C101.679 11.9478 101.54 11.9375 101.4 11.9328C100.65 11.9328 100.112 12.1761 99.824 12.6112C99.6649 12.8592 99.5837 13.1492 99.5911 13.4437C99.5911 14.0776 99.9748 14.5127 100.53 14.5127C100.734 14.5257 100.939 14.4895 101.127 14.4073C101.315 14.325 101.48 14.199 101.609 14.0399L101.592 14.4441H102.445L102.537 13.7555L102.753 12.3645ZM100.955 13.6767C100.732 13.6767 100.588 13.5225 100.588 13.2793C100.588 12.8853 100.883 12.6831 101.469 12.6831C101.54 12.6831 101.588 12.6866 101.698 12.7003C101.678 13.2793 101.376 13.6767 100.955 13.6767ZM104.782 11.6348C104.806 11.6344 104.83 11.6356 104.854 11.6382C104.946 11.1654 105.069 10.8193 105.244 10.5007L105.21 10.4939C105.176 10.4869 105.142 10.4834 105.107 10.4836C104.768 10.4836 104.576 10.6583 104.261 11.1208L104.35 10.5281H103.418L102.791 14.4441H103.822C104.192 12.0493 104.288 11.6348 104.782 11.6348Z" fill="white"/>
<defs>
<linearGradient id="paint0_linear" x1="5.9002" y1="12.1016" x2="25.9995" y2="8.32735" gradientUnits="userSpaceOnUse">
<stop stop-color="#C95A2D"/>
<stop offset="0.15" stop-color="#C95A2D"/>
<stop offset="0.182" stop-color="#CB602E"/>
<stop offset="0.229" stop-color="#CF6F2F"/>
<stop offset="0.286" stop-color="#D68630"/>
<stop offset="0.35" stop-color="#E2A732"/>
<stop offset="0.42" stop-color="#F6D330"/>
<stop offset="0.44" stop-color="#F6D330"/>
<stop offset="0.494" stop-color="#EDC132"/>
<stop offset="0.608" stop-color="#DB9531"/>
<stop offset="0.75" stop-color="#C95A2D"/>
<stop offset="0.978" stop-color="#C95A2D"/>
<stop offset="1" stop-color="#C95A2D"/>
</linearGradient>
<linearGradient id="paint1_linear" x1="5.90003" y1="12.1006" x2="25.9993" y2="8.32641" gradientUnits="userSpaceOnUse">
<stop stop-color="#C95A2D"/>
<stop offset="0.15" stop-color="#C95A2D"/>
<stop offset="0.182" stop-color="#CB602E"/>
<stop offset="0.229" stop-color="#CF6F2F"/>
<stop offset="0.286" stop-color="#D68630"/>
<stop offset="0.35" stop-color="#E2A732"/>
<stop offset="0.42" stop-color="#F6D330"/>
<stop offset="0.44" stop-color="#F6D330"/>
<stop offset="0.494" stop-color="#EDC132"/>
<stop offset="0.608" stop-color="#DB9531"/>
<stop offset="0.75" stop-color="#C95A2D"/>
<stop offset="0.978" stop-color="#C95A2D"/>
<stop offset="1" stop-color="#C95A2D"/>
</linearGradient>
<linearGradient id="paint2_linear" x1="5.90947" y1="12.1511" x2="26.0088" y2="8.37682" gradientUnits="userSpaceOnUse">
<stop stop-color="#C95A2D"/>
<stop offset="0.15" stop-color="#C95A2D"/>
<stop offset="0.182" stop-color="#CB602E"/>
<stop offset="0.229" stop-color="#CF6F2F"/>
<stop offset="0.286" stop-color="#D68630"/>
<stop offset="0.35" stop-color="#E2A732"/>
<stop offset="0.42" stop-color="#F6D330"/>
<stop offset="0.44" stop-color="#F6D330"/>
<stop offset="0.494" stop-color="#EDC132"/>
<stop offset="0.608" stop-color="#DB9531"/>
<stop offset="0.75" stop-color="#C95A2D"/>
<stop offset="0.978" stop-color="#C95A2D"/>
<stop offset="1" stop-color="#C95A2D"/>
</linearGradient>
<linearGradient id="paint3_linear" x1="5.90855" y1="12.1476" x2="26.0079" y2="8.37333" gradientUnits="userSpaceOnUse">
<stop stop-color="#C95A2D"/>
<stop offset="0.15" stop-color="#C95A2D"/>
<stop offset="0.182" stop-color="#CB602E"/>
<stop offset="0.229" stop-color="#CF6F2F"/>
<stop offset="0.286" stop-color="#D68630"/>
<stop offset="0.35" stop-color="#E2A732"/>
<stop offset="0.42" stop-color="#F6D330"/>
<stop offset="0.44" stop-color="#F6D330"/>
<stop offset="0.494" stop-color="#EDC132"/>
<stop offset="0.608" stop-color="#DB9531"/>
<stop offset="0.75" stop-color="#C95A2D"/>
<stop offset="0.978" stop-color="#C95A2D"/>
<stop offset="1" stop-color="#C95A2D"/>
</linearGradient>
<linearGradient id="paint4_linear" x1="5.97387" y1="12.0825" x2="26.0732" y2="8.30827" gradientUnits="userSpaceOnUse">
<stop stop-color="#C95A2D"/>
<stop offset="0.15" stop-color="#C95A2D"/>
<stop offset="0.182" stop-color="#CB602E"/>
<stop offset="0.229" stop-color="#CF6F2F"/>
<stop offset="0.286" stop-color="#D68630"/>
<stop offset="0.35" stop-color="#E2A732"/>
<stop offset="0.42" stop-color="#F6D330"/>
<stop offset="0.44" stop-color="#F6D330"/>
<stop offset="0.494" stop-color="#EDC132"/>
<stop offset="0.608" stop-color="#DB9531"/>
<stop offset="0.75" stop-color="#C95A2D"/>
<stop offset="0.978" stop-color="#C95A2D"/>
<stop offset="1" stop-color="#C95A2D"/>
</linearGradient>
<linearGradient id="paint5_linear" x1="5.80201" y1="12.1139" x2="25.9013" y2="8.33968" gradientUnits="userSpaceOnUse">
<stop stop-color="#C95A2D"/>
<stop offset="0.15" stop-color="#C95A2D"/>
<stop offset="0.182" stop-color="#CB602E"/>
<stop offset="0.229" stop-color="#CF6F2F"/>
<stop offset="0.286" stop-color="#D68630"/>
<stop offset="0.35" stop-color="#E2A732"/>
<stop offset="0.42" stop-color="#F6D330"/>
<stop offset="0.44" stop-color="#F6D330"/>
<stop offset="0.494" stop-color="#EDC132"/>
<stop offset="0.608" stop-color="#DB9531"/>
<stop offset="0.75" stop-color="#C95A2D"/>
<stop offset="0.978" stop-color="#C95A2D"/>
<stop offset="1" stop-color="#C95A2D"/>
</linearGradient>
<linearGradient id="paint6_linear" x1="5.53088" y1="12.1594" x2="25.6302" y2="8.38514" gradientUnits="userSpaceOnUse">
<stop stop-color="#C95A2D"/>
<stop offset="0.15" stop-color="#C95A2D"/>
<stop offset="0.182" stop-color="#CB602E"/>
<stop offset="0.229" stop-color="#CF6F2F"/>
<stop offset="0.286" stop-color="#D68630"/>
<stop offset="0.35" stop-color="#E2A732"/>
<stop offset="0.42" stop-color="#F6D330"/>
<stop offset="0.44" stop-color="#F6D330"/>
<stop offset="0.494" stop-color="#EDC132"/>
<stop offset="0.608" stop-color="#DB9531"/>
<stop offset="0.75" stop-color="#C95A2D"/>
<stop offset="0.978" stop-color="#C95A2D"/>
<stop offset="1" stop-color="#C95A2D"/>
</linearGradient>
<linearGradient id="paint7_linear" x1="7.34616" y1="11.9113" x2="27.6552" y2="8.07348" gradientUnits="userSpaceOnUse">
<stop stop-color="#C95A2D"/>
<stop offset="0.15" stop-color="#C95A2D"/>
<stop offset="0.182" stop-color="#CB602E"/>
<stop offset="0.229" stop-color="#CF6F2F"/>
<stop offset="0.286" stop-color="#D68630"/>
<stop offset="0.35" stop-color="#E2A732"/>
<stop offset="0.42" stop-color="#F6D330"/>
<stop offset="0.44" stop-color="#F6D330"/>
<stop offset="0.494" stop-color="#EDC132"/>
<stop offset="0.608" stop-color="#DB9531"/>
<stop offset="0.75" stop-color="#C95A2D"/>
<stop offset="0.978" stop-color="#C95A2D"/>
<stop offset="1" stop-color="#C95A2D"/>
</linearGradient>
</defs>
</svg>
