<svg width="35" height="36" viewBox="0 0 35 36" fill="none" xmlns="http://www.w3.org/2000/svg">
<path fill-rule="evenodd" clip-rule="evenodd" d="M35 0.5H0V13.9726C0.392836 13.3973 0.839822 12.8553 1.33762 12.355C3.47467 10.2068 6.37311 9 9.39535 9C12.4175 9 15.316 10.2068 17.4531 12.355C19.5901 14.5031 20.7907 17.4166 20.7907 20.4545C20.7907 26.9948 14.6496 32.8491 11.3838 35.5H35V0.5ZM7.40689 35.5C5.32782 33.8124 2.08337 30.8264 0 27.1917V35.5H7.40689ZM9.39535 24.2727C11.4932 24.2727 13.1938 22.5633 13.1938 20.4545C13.1938 18.3458 11.4932 16.6364 9.39535 16.6364C7.29753 16.6364 5.5969 18.3458 5.5969 20.4545C5.5969 22.5633 7.29753 24.2727 9.39535 24.2727Z" fill="#3C3B6E"/>
</svg>
