<svg width="33" height="37" viewBox="0 0 33 37" fill="none" xmlns="http://www.w3.org/2000/svg">
<path fill-rule="evenodd" clip-rule="evenodd" d="M21.9047 0.897785L21.0675 11.1838C21.0653 11.2107 21.0643 11.2242 21.0569 11.2348C21.0496 11.2454 21.0373 11.2512 21.0129 11.2628C14.6935 14.2629 7.59799 14.5241 4.77608 14.2762C4.75015 14.2739 4.73719 14.2728 4.72652 14.2652C4.71585 14.2576 4.71043 14.2454 4.69958 14.2212C3.34437 11.1882 0.654258 5.17811 0.558524 5.0058C0.438192 4.7892 0.462258 4.13941 0.558524 3.85061C0.654789 3.56182 1.54524 2.86389 2.82076 3.20082C4.09627 3.53775 4.67387 4.83733 4.84233 5.36679C4.9771 5.79036 4.65782 6.65034 4.48134 7.02737C4.40111 7.18779 4.28881 7.54239 4.48134 7.67716C4.55373 7.72784 4.84826 7.97669 5.2339 8.30255H5.23391C6.13023 9.05986 7.51876 10.2331 7.75437 10.3004C8.25976 10.4689 8.90955 10.1319 9.07802 9.91533C9.20244 9.75529 9.78668 7.7431 10.1028 6.65429C10.2146 6.26937 10.2928 5.99988 10.3054 5.96845C10.3535 5.84812 10.2813 5.39086 10.1851 5.36679C9.55934 5.15019 8.54856 4.4282 8.50043 2.98422C8.45229 1.54024 9.80001 0.216597 11.0996 0.288796C12.3992 0.360995 12.9527 1.01079 13.3618 1.51618C13.771 2.02157 13.795 2.81576 13.7469 3.41742C13.706 3.92799 13.3359 4.4039 13.1071 4.69807L13.1071 4.69813C13.0662 4.75059 13.0299 4.79727 13.0008 4.83733C12.8533 5.04016 12.8853 5.25917 12.9235 5.35485C12.9256 5.35991 12.9266 5.36246 12.9285 5.36578C12.9305 5.36905 12.9326 5.37156 12.9368 5.37656C13.9263 6.55904 15.9034 8.9094 15.961 8.92861C16.0179 8.94757 16.4065 8.93693 16.6021 8.92894L16.5998 8.92904L16.5947 8.92928L16.5909 8.92943L16.5946 8.92938L16.6186 8.92909C16.9091 8.92572 18.2803 6.69703 18.885 5.71402L18.8851 5.71392C19.0291 5.47985 19.1297 5.31644 19.1618 5.27053C19.2901 5.08728 19.223 4.89004 19.1837 4.77451C19.1786 4.75963 19.174 4.74611 19.1704 4.73414C19.1622 4.70757 19.1582 4.69428 19.1548 4.68891C19.1515 4.68355 19.1445 4.67704 19.1305 4.664C18.2885 3.87767 18.0086 3.01747 18.1751 1.80497C18.3086 0.832315 19.3977 0.204437 19.9406 0.00555547C19.9481 0.00283832 19.9518 0.00147975 19.9559 0.000739876C19.9601 0 19.9643 0 19.9727 0H21.2153C21.2235 0 21.2276 0 21.2318 0.000732584C21.2359 0.00146517 21.2396 0.00279856 21.2469 0.00546532C21.7301 0.181527 21.8862 0.657911 21.9048 0.883297C21.9051 0.886594 21.9052 0.88824 21.9052 0.890213C21.9052 0.892182 21.9051 0.89405 21.9047 0.897785ZM11.8216 15.0415C16.6927 14.3184 20.9895 13.3146 21.4919 12.116C21.4949 12.1088 21.4958 12.1013 21.495 12.0936L21.4946 12.0896L29.5825 13.6215C32.3165 14.5457 32.9999 17.1994 32.9999 18.4107C32.9999 20.2317 32.9037 24.6199 32.5186 27.6041C32.1345 30.5807 29.755 31.8893 28.6045 32.1745L28.6044 32.1746H28.6043L28.604 32.1747C28.6012 32.1753 28.5998 32.1757 28.5981 32.176C28.5973 32.1761 28.5966 32.1762 28.5958 32.1763C28.595 32.1764 28.5942 32.1765 28.5935 32.1765C28.5926 32.1766 28.5918 32.1766 28.5908 32.1767H28.5888H28.5865H22.5311L22.5077 32.1765C22.5297 33.2787 23.055 35.5318 24.9887 36.82L24.9887 36.82C25.098 36.8928 25.1526 36.9292 25.1549 36.9518C25.1565 36.9676 25.1508 36.9823 25.1389 36.9928C25.1219 37.0078 25.0586 36.9977 24.9322 36.9776C21.165 36.3787 17.7124 34.4727 16.072 32.2035C16.0442 32.165 16.0294 32.1446 16.0291 32.1274L9.83543 32.0805C9.83308 32.0805 9.83139 32.0805 9.82995 32.0804C9.82884 32.0804 9.82788 32.0803 9.82691 32.0803C9.82586 32.0801 9.82475 32.08 9.82369 32.0798C9.82287 32.0797 9.8221 32.0795 9.82133 32.0794C9.81921 32.0789 9.81714 32.0782 9.81305 32.077C6.41441 31.0137 5.54826 27.4338 5.54027 25.775L4.65312 15.3891C5.59572 15.7363 9.78831 15.3432 11.8216 15.0415ZM22.8587 28.7352H20.4397V23.9906H16.6139V28.7352H14.1949V17.3278H16.6139V21.7044H20.4397V17.3278H22.8587V28.7352Z" fill="#BDBDBD"/>
</svg>
