<svg width="27" height="36" viewBox="0 0 27 36" fill="none" xmlns="http://www.w3.org/2000/svg">
<path d="M19.0075 22.5597H5.19773L4.69618 24.2084H8.37619L9.07911 26.4831H15.129L15.8291 24.2084H19.5091L19.0075 22.5597ZM7.4513 13.2948C7.19952 13.6414 7.01861 14.0342 6.91888 14.4508C6.81916 14.8673 6.80253 15.2993 6.87 15.7223C6.93743 16.1452 7.08764 16.5507 7.31203 16.9157C7.53642 17.2806 7.8306 17.5978 8.17772 17.8491L11.4823 20.2479C11.5693 20.3109 11.643 20.3904 11.6992 20.4819C11.7554 20.5734 11.793 20.6751 11.8099 20.7811C11.8268 20.8872 11.8226 20.9954 11.7976 21.0999C11.7726 21.2043 11.7272 21.3027 11.6641 21.3896L12.1618 21.749L13.9079 19.3386C14.3124 18.7843 14.5305 18.1161 14.5307 17.4301C14.5308 17.2561 14.517 17.0824 14.4897 16.9105C14.4223 16.4876 14.2717 16.0823 14.0467 15.7178C13.8217 15.3534 13.5266 15.0371 13.1786 14.7872L9.87399 12.3884C9.78686 12.3257 9.71305 12.2464 9.65684 12.155C9.60063 12.0637 9.5631 11.9621 9.54648 11.8561C9.53955 11.8128 9.53593 11.7691 9.53571 11.7252C9.53539 11.5539 9.58986 11.3869 9.69115 11.2486L9.19448 10.8882L7.4513 13.2948ZM9.44282 3.65186C8.85611 4.45573 8.54013 5.42497 8.54044 6.41984C8.54049 6.67201 8.56046 6.92379 8.60009 7.17286C8.69682 7.7864 8.91438 8.37472 9.2401 8.90379C9.56582 9.4329 9.99328 9.89221 10.4977 10.2553L14.6519 13.2606C14.9224 13.4554 15.1515 13.7018 15.326 13.9856C15.5006 14.2695 15.617 14.585 15.6687 14.9141C15.69 15.0472 15.7008 15.1817 15.701 15.3165C15.6997 15.8504 15.5285 16.3699 15.2121 16.8001L15.613 17.0922L18.8863 12.573C19.2514 12.0702 19.5138 11.5005 19.6585 10.8963C19.8031 10.2923 19.8272 9.66555 19.7293 9.05215C19.6314 8.43871 19.4135 7.85056 19.088 7.32132C18.7625 6.79207 18.3359 6.33204 17.8323 5.96759L12.8168 2.32551C12.5037 2.09798 12.2939 1.75557 12.2334 1.37353C12.1729 0.991494 12.2667 0.601097 12.4942 0.288125L12.0933 0L9.44282 3.65186ZM0.95752 27.8602H4.74115C5.67287 27.8602 6.40322 28.1161 6.87152 28.581C7.05485 28.7609 7.19908 28.9767 7.2951 29.2149C7.39116 29.453 7.437 29.7084 7.42976 29.965V29.9845C7.42976 30.9036 6.94096 31.4154 6.35434 31.7426C7.29684 32.1039 7.87952 32.6499 7.87952 33.7438V33.7673C7.87952 35.2557 6.66916 36 4.82915 36H0.95752V27.8602ZM4.35692 31.1517C5.14885 31.1517 5.64941 30.8958 5.64941 30.2912V30.2678C5.64941 29.7325 5.23 29.4308 4.4762 29.4308H2.70366V31.1517H4.35692ZM4.83403 34.4314C5.62595 34.4314 6.10502 34.1521 6.10502 33.5524V33.529C6.10502 32.982 5.69731 32.6499 4.77733 32.6499H2.70366V34.4402L4.83403 34.4314ZM8.66363 27.8602H12.4472C13.379 27.8602 14.1093 28.1161 14.5776 28.581C14.7605 28.7612 14.9043 28.977 15 29.2152C15.0957 29.4533 15.1413 29.7085 15.1339 29.965V29.9845C15.1339 30.9036 14.6451 31.4154 14.0585 31.7426C15.0019 32.1039 15.5837 32.6499 15.5837 33.7438V33.7673C15.5837 35.2557 14.3733 36 12.5333 36H8.66363V27.8602ZM12.063 31.1517C12.855 31.1517 13.3555 30.8958 13.3555 30.2912V30.2678C13.3555 29.7325 12.9361 29.4308 12.1823 29.4308H10.4107V31.1517H12.063ZM12.5401 34.4314C13.3321 34.4314 13.8111 34.1521 13.8111 33.5524V33.529C13.8111 32.982 13.4034 32.6499 12.4844 32.6499H10.4107V34.4402L12.5401 34.4314ZM16.3707 27.8602H20.1543C21.0861 27.8602 21.8164 28.1161 22.2847 28.581C22.468 28.761 22.6121 28.9768 22.7082 29.2149C22.8043 29.453 22.8502 29.7084 22.843 29.965V29.9845C22.843 30.9036 22.3541 31.4154 21.7675 31.7426C22.711 32.1039 23.2927 32.6499 23.2927 33.7438V33.7673C23.2927 35.2557 22.0813 36 20.2423 36H16.3707V27.8602ZM19.7701 31.1517C20.562 31.1517 21.0626 30.8958 21.0626 30.2912V30.2678C21.0626 29.7325 20.6432 29.4308 19.8894 29.4308H18.1197V31.1517H19.7701ZM20.2472 34.4314C21.0391 34.4314 21.5182 34.1521 21.5182 33.5524V33.529C21.5182 32.982 21.1105 32.6499 20.1905 32.6499H18.1178V34.4402L20.2472 34.4314ZM23.6759 34.2996V34.2908C23.6748 33.8504 23.8488 33.4276 24.1597 33.1154C24.4705 32.8032 24.8928 32.6272 25.3336 32.626C25.7744 32.6249 26.1976 32.7987 26.5101 33.1092C26.8227 33.4198 26.9989 33.8416 27.0001 34.282V34.2908C27.0006 34.5088 26.9582 34.7248 26.8752 34.9265C26.7923 35.1282 26.6703 35.3115 26.5164 35.4661C26.3624 35.6207 26.1795 35.7435 25.9781 35.8275C25.7767 35.9115 25.5607 35.955 25.3424 35.9555C24.9016 35.9567 24.4784 35.7829 24.1659 35.4723C23.8533 35.1618 23.6771 34.74 23.6759 34.2996ZM26.8045 34.2908V34.282C26.804 34.0896 26.7654 33.8992 26.6912 33.7217C26.617 33.5442 26.5085 33.383 26.3719 33.2473C26.2353 33.1117 26.0733 33.0043 25.8952 32.9312C25.717 32.8581 25.5262 32.8208 25.3336 32.8213C25.141 32.8219 24.9504 32.8604 24.7727 32.9346C24.595 33.0087 24.4337 33.1171 24.2979 33.2536C24.1621 33.39 24.0546 33.5518 23.9814 33.7298C23.9082 33.9078 23.8709 34.0984 23.8715 34.2908V34.2996C23.872 34.492 23.9106 34.6824 23.9848 34.8599C24.059 35.0374 24.1675 35.1986 24.3041 35.3342C24.4407 35.4699 24.6027 35.5773 24.7809 35.6504C24.959 35.7235 25.1498 35.7608 25.3424 35.7602C25.535 35.7597 25.7256 35.7212 25.9033 35.647C26.081 35.5729 26.2423 35.4645 26.3781 35.328C26.5139 35.1916 26.6214 35.0298 26.6946 34.8518C26.7677 34.6738 26.8051 34.4832 26.8045 34.2908ZM24.6536 33.361H25.4358C25.5352 33.3555 25.6346 33.3699 25.7284 33.4035C25.8221 33.437 25.9081 33.489 25.9813 33.5563C26.0302 33.6074 26.0684 33.6678 26.0935 33.7339C26.1187 33.8 26.1304 33.8705 26.128 33.9411V33.9499C26.133 34.0699 26.0985 34.1883 26.0296 34.2868C25.9607 34.3853 25.8612 34.4584 25.7467 34.4949L26.1778 35.1268H25.7232L25.3468 34.5584H25.0398V35.1268H24.6487L24.6536 33.361ZM25.4358 34.2224C25.6313 34.2224 25.7389 34.1169 25.7389 33.9704V33.9616C25.7389 33.7927 25.6196 33.7048 25.427 33.7048H25.0457V34.2224H25.4358Z" fill="#BDBDBD"/>
</svg>
