<svg width="90" height="38" viewBox="0 0 90 38" fill="none" xmlns="http://www.w3.org/2000/svg">
<path d="M11.3144 10.2597V13.3413H18.5413C18.3201 15.07 17.7486 16.329 16.9005 17.2309C15.8497 18.302 14.1904 19.4858 11.3144 19.4858C6.85285 19.4858 3.38685 15.8216 3.38685 11.2931C3.38685 6.76462 6.87124 3.10044 11.3144 3.10044C13.711 3.10044 15.4809 4.05876 16.7715 5.29894L18.8916 3.13803C17.1033 1.35292 14.6882 0 11.3144 0C5.21202 0 0.086792 5.07345 0.086792 11.2931C0.086792 17.5128 5.21202 22.5487 11.3144 22.5487C14.6144 22.5487 17.1033 21.44 19.0391 19.3918C21.0302 17.3625 21.657 14.4875 21.657 12.1763C21.657 11.4623 21.6017 10.8046 21.4911 10.2409H11.3144V10.2597Z" fill="#BDBDBD"/>
<path d="M30.6906 7.74146C26.7452 7.74146 23.5189 10.8043 23.5189 15.0322C23.5189 19.2225 26.7452 22.3229 30.6906 22.3229C34.6359 22.3229 37.8622 19.2413 37.8622 15.0322C37.8622 10.8043 34.6359 7.74146 30.6906 7.74146ZM30.6906 19.448C28.5336 19.448 26.653 17.6253 26.653 15.0322C26.653 12.4203 28.5151 10.6164 30.6906 10.6164C32.866 10.6164 34.728 12.4015 34.728 15.0322C34.728 17.6253 32.866 19.448 30.6906 19.448Z" fill="#BDBDBD"/>
<path d="M65.8482 9.37628H65.7371C65.0367 8.53066 63.691 7.74146 61.9762 7.74146C58.3998 7.74146 55.3025 10.9171 55.3025 15.0322C55.3025 19.1286 58.4182 22.3229 61.9762 22.3229C63.691 22.3229 65.0367 21.5525 65.7371 20.6694H65.8482V21.6841C65.8482 24.4651 64.3913 25.9683 62.0317 25.9683C60.1145 25.9683 58.916 24.559 58.4182 23.3752L55.6897 24.5214C56.4824 26.4569 58.5472 28.8245 62.0317 28.8245C65.7192 28.8245 68.8162 26.626 68.8162 21.2331V8.11731H65.8482V9.37628ZM62.2526 19.448C60.096 19.448 58.4367 17.5689 58.4367 15.0322C58.4367 12.4579 60.0775 10.6164 62.2526 10.6164C64.3913 10.6164 66.0691 12.4955 66.0691 15.051C66.0691 17.6065 64.3913 19.448 62.2526 19.448Z" fill="#BDBDBD"/>
<path d="M46.6927 7.74146C42.7474 7.74146 39.5211 10.8043 39.5211 15.0322C39.5211 19.2225 42.7474 22.3229 46.6927 22.3229C50.6381 22.3229 53.8644 19.2225 53.8644 15.0322C53.8644 10.8043 50.6381 7.74146 46.6927 7.74146ZM46.6927 19.448C44.5357 19.448 42.6552 17.6253 42.6552 15.0322C42.6552 12.4203 44.5173 10.6164 46.6927 10.6164C48.8682 10.6164 50.7118 12.4015 50.7118 15.0322C50.7118 17.6253 48.8498 19.448 46.6927 19.448Z" fill="#BDBDBD"/>
<path d="M71.2869 0.28125H74.3659V22.3038H71.2869V0.28125Z" fill="#BDBDBD"/>
<path d="M83.9159 19.448C82.3122 19.448 81.1873 18.7152 80.4499 17.2495L90 13.2095L89.6865 12.3827C89.0966 10.748 87.2714 7.74146 83.5654 7.74146C79.8785 7.74146 76.818 10.6916 76.818 15.0322C76.818 19.1286 79.8415 22.3229 83.8974 22.3229C87.1609 22.3229 89.0596 20.2748 89.8525 19.1098L87.4189 17.4562C86.626 18.64 85.5017 19.448 83.9159 19.448ZM83.695 10.4849C84.9667 10.4849 86.0361 11.1426 86.4051 12.0821L79.952 14.8067C79.9341 11.7439 82.0722 10.4849 83.695 10.4849Z" fill="#BDBDBD"/>
<path d="M58.4 31.4741L59.3218 33.3908L61.3869 33.6914L59.8931 35.1758L60.2435 37.2615L58.4 36.2844L56.5564 37.2615L56.9066 35.1758L55.4133 33.6914L57.4782 33.3908L58.4 31.4741Z" fill="#BDBDBD"/>
<path d="M66.0321 31.4741L66.9539 33.3908L69.0192 33.6914L67.5259 35.1758L67.8758 37.2615L66.0321 36.2844L64.1889 37.2615L64.5388 35.1758L63.0455 33.6914L65.1108 33.3908L66.0321 31.4741Z" fill="#BDBDBD"/>
<path d="M73.5729 31.4741L74.4948 33.3908L76.5601 33.6914L75.0662 35.1758L75.4167 37.2615L73.5729 36.2844L71.7298 37.2615L72.0797 35.1758L70.5864 33.6914L72.6511 33.3908L73.5729 31.4741Z" fill="#BDBDBD"/>
<path d="M81.2429 31.4741L82.1832 33.3908L84.2479 33.6914L82.7546 35.1758L83.1051 37.2615L81.2429 36.2844L79.3991 37.2615L79.7496 35.1758L78.2563 33.6914L80.321 33.3908L81.2429 31.4741Z" fill="#BDBDBD"/>
<path d="M50.5469 31.4741L51.4687 33.3908L53.5335 33.6914L52.0402 35.1758L52.3905 37.2615L50.5469 36.2844L48.7033 37.2615L49.0535 35.1758L47.5602 33.6914L49.6251 33.3908L50.5469 31.4741Z" fill="#BDBDBD"/>
<path d="M6.58168 34.2311H5.31235V37.1164H3.71899V29.2348H6.59237C7.50588 29.2348 8.21048 29.4422 8.70622 29.8573C9.2019 30.2723 9.44974 30.8587 9.44974 31.6166C9.44974 32.1543 9.33469 32.6036 9.10452 32.9645C8.87794 33.3217 8.53271 33.6068 8.06885 33.8197L9.74189 37.0406V37.1164H8.03166L6.58168 34.2311ZM5.31235 32.9157H6.59768C6.99778 32.9157 7.30759 32.8129 7.52714 32.6072C7.74662 32.3979 7.85642 32.111 7.85642 31.7465C7.85642 31.3748 7.75193 31.0824 7.54302 30.8695C7.33769 30.6566 7.02076 30.5502 6.59237 30.5502H5.31235V32.9157ZM13.2101 37.2247C12.3674 37.2247 11.6804 36.9613 11.1494 36.4344C10.6218 35.9074 10.358 35.2055 10.358 34.3286V34.177C10.358 33.5888 10.4695 33.0637 10.6926 32.6018C10.9157 32.1363 11.2308 31.779 11.6379 31.5299C12.0487 31.2773 12.5161 31.151 13.0401 31.151C13.8262 31.151 14.444 31.4037 14.8937 31.9088C15.3469 32.4141 15.5735 33.1305 15.5735 34.0579V34.6967H11.9141C11.9637 35.0793 12.1124 35.386 12.3603 35.6169C12.6117 35.8479 12.9285 35.9634 13.311 35.9634C13.9023 35.9634 14.3644 35.745 14.6972 35.3084L15.4514 36.1691C15.2212 36.5011 14.9097 36.761 14.5166 36.9486C14.1236 37.1326 13.6881 37.2247 13.2101 37.2247ZM13.0348 32.4177C12.7303 32.4177 12.4824 32.5224 12.2912 32.7317C12.1036 32.941 11.9832 33.2405 11.9301 33.6303H14.0652V33.5058C14.0581 33.1593 13.966 32.8923 13.789 32.7046C13.6119 32.5134 13.3605 32.4177 13.0348 32.4177ZM18.5266 35.2055L19.5941 31.2593H21.1981L19.2595 37.1164H17.7936L15.8551 31.2593H17.459L18.5266 35.2055ZM23.4977 37.1164H21.9575V31.2593H23.4977V37.1164ZM21.8673 29.7436C21.8673 29.509 21.9434 29.3159 22.0957 29.1644C22.2515 29.0128 22.4622 28.937 22.7277 28.937C22.9896 28.937 23.1985 29.0128 23.3543 29.1644C23.5103 29.3159 23.5881 29.509 23.5881 29.7436C23.5881 29.9818 23.5085 30.1766 23.3492 30.3282C23.1934 30.4798 22.9862 30.5556 22.7277 30.5556C22.4692 30.5556 22.2603 30.4798 22.101 30.3282C21.9452 30.1766 21.8673 29.9818 21.8673 29.7436ZM27.4121 37.2247C26.5694 37.2247 25.8825 36.9613 25.3515 36.4344C24.8239 35.9074 24.56 35.2055 24.56 34.3286V34.177C24.56 33.5888 24.6716 33.0637 24.8947 32.6018C25.1178 32.1363 25.4328 31.779 25.8401 31.5299C26.2508 31.2773 26.7182 31.151 27.2421 31.151C28.0283 31.151 28.646 31.4037 29.0959 31.9088C29.549 32.4141 29.7756 33.1305 29.7756 34.0579V34.6967H26.1162C26.1658 35.0793 26.3144 35.386 26.5624 35.6169C26.8137 35.8479 27.1306 35.9634 27.5131 35.9634C28.1044 35.9634 28.5664 35.745 28.8993 35.3084L29.6534 36.1691C29.4233 36.5011 29.1118 36.761 28.7186 36.9486C28.3256 37.1326 27.8902 37.2247 27.4121 37.2247ZM27.237 32.4177C26.9324 32.4177 26.6844 32.5224 26.4933 32.7317C26.3056 32.941 26.1852 33.2405 26.1321 33.6303H28.2671V33.5058C28.2602 33.1593 28.1682 32.8923 27.991 32.7046C27.814 32.5134 27.5626 32.4177 27.237 32.4177ZM35.6497 34.989L36.404 31.2593H37.8858L36.42 37.1164H35.1346L34.0458 33.43L32.9569 37.1164H31.6771L30.2111 31.2593H31.693L32.4418 34.9836L33.4934 31.2593H34.6034L35.6497 34.989ZM41.763 35.4979C41.763 35.3066 41.6691 35.1568 41.4815 35.0486C41.2974 34.9367 40.9999 34.8374 40.5891 34.7508C39.2225 34.4585 38.539 33.8667 38.539 32.9753C38.539 32.4556 38.7498 32.0226 39.171 31.6761C39.596 31.326 40.1502 31.151 40.8336 31.151C41.5629 31.151 42.1453 31.326 42.581 31.6761C43.0199 32.0262 43.2395 32.4809 43.2395 33.0402H41.7045C41.7045 32.8165 41.6337 32.6324 41.4921 32.4881C41.3505 32.3401 41.1291 32.2661 40.8282 32.2661C40.5697 32.2661 40.3697 32.3257 40.228 32.4448C40.0864 32.5639 40.0156 32.7155 40.0156 32.8995C40.0156 33.0727 40.0952 33.2135 40.2545 33.3217C40.4175 33.4264 40.6902 33.5184 41.0725 33.5978C41.4549 33.6736 41.7771 33.7602 42.0391 33.8577C42.8499 34.1608 43.2553 34.6859 43.2553 35.4329C43.2553 35.967 43.0306 36.4001 42.581 36.7321C42.1311 37.0605 41.5505 37.2247 40.8387 37.2247C40.3572 37.2247 39.9289 37.1381 39.5536 36.9649C39.1817 36.788 38.8897 36.548 38.6771 36.2449C38.4647 35.9381 38.3585 35.6079 38.3585 35.2543H39.8137C39.8279 35.5321 39.9289 35.745 40.1164 35.8931C40.3041 36.041 40.5556 36.115 40.8707 36.115C41.1645 36.115 41.3859 36.059 41.5345 35.9472C41.6868 35.8317 41.763 35.6819 41.763 35.4979Z" fill="#BDBDBD"/>
</svg>
