<svg width="58" height="58" viewBox="0 0 58 58" fill="none" xmlns="http://www.w3.org/2000/svg">
<path fill-rule="evenodd" clip-rule="evenodd" d="M6.11074 5.20465H6.22355H8.64722C8.64722 5.20465 12.3082 2.24155 14.9137 0H19.8505C17.0464 2.32727 9.79559 8.24724 5.80612 10.6016C5.73539 10.6721 5.73539 10.7426 5.80612 10.8131C6.51277 11.0246 6.93683 11.6592 6.93683 12.4347V22.0936L3.5446 25.6893C7.64349 24.9138 17.7495 31.6821 17.7495 31.6821V50.436C17.7005 50.4134 17.6397 50.3849 17.5676 50.3511C16.2884 49.7503 11.4821 47.4937 6.86611 47.8274C3.82612 48.0607 1.58409 48.9935 0 50.0074V6.10781C1.5739 5.54082 3.58866 5.20465 6.11074 5.20465ZM0 0.0794534C0.0700837 0.0524691 0.140849 0.0259819 0.212298 0H0V0.0794534ZM0 51.9402V57.2262H16.0183C11.0652 53.2763 4.42976 51.3721 0 51.9402ZM24.1913 57.2262H57.2262V0H22.6305C27.7425 4.15621 34.6729 8.15284 36.124 5.45486C36.124 5.45486 34.7812 11.8002 29.7636 11.8002C26.1208 11.8002 20.8115 8.33638 18.9292 7.1084L18.8802 7.07644V23.4332L34.0038 31.9641V47.3338C34.0038 48.0389 34.4279 48.6734 35.1346 48.9555C35.2053 48.9555 35.2053 49.0259 35.1346 49.0964C32.2249 50.8545 27.5802 54.4857 24.1913 57.2262ZM14.5693 20.9655V5.94838L15.9828 4.82033C16.1241 5.03183 16.7601 5.59586 17.7495 6.30089V22.7987L14.5693 20.9655ZM26.3714 53.8202L24.9579 54.8778C24.6046 54.4547 22.3431 52.4806 18.8802 50.9295V32.3167L26.3714 36.8993V53.8202ZM16.4774 36.0458C8.72219 30.2451 2.7248 28.6913 2.7248 28.6913V34.6992C3.06512 34.5327 3.36229 34.3426 3.65644 34.1546L3.65773 34.1538C5.3741 33.0562 6.98988 32.0231 16.4774 36.0458ZM33.0219 48.911C33.0219 48.9447 33.0054 48.9764 32.9778 48.9959L32.1505 49.5759C32.0821 49.6239 31.9879 49.5749 31.9879 49.4911V35.4372C31.9879 35.3883 32.022 35.346 32.0698 35.3359L32.8971 35.1599C32.9613 35.1462 33.0219 35.1953 33.0219 35.2612V48.911ZM30.8289 35.5998C30.8933 35.5861 30.9539 35.6354 30.9539 35.7013V50.3612C30.9539 50.3949 30.9374 50.4267 30.9098 50.4461L30.0825 51.0261C30.0141 51.0741 29.9199 51.025 29.9199 50.9413V36.1705C29.9199 36.1401 29.9332 36.1113 29.9564 36.0915L30.417 35.7002C30.43 35.6891 30.4456 35.6815 30.4625 35.6779L30.8289 35.5998ZM28.0145 52.4763C27.9459 52.5243 27.8518 52.4752 27.8518 52.3914V37.9276C27.8518 37.8971 27.8651 37.8682 27.8882 37.8486L28.7155 37.1458C28.7828 37.0887 28.8858 37.1365 28.8858 37.2248V51.8114C28.8858 51.8451 28.8694 51.8769 28.8416 51.8963L28.0145 52.4763Z" fill="#B22234"/>
</svg>
