<svg width="14" height="14" viewBox="0 0 14 14" fill="none" xmlns="http://www.w3.org/2000/svg">
<path d="M7 14C10.866 14 14 10.866 14 7C14 3.13401 10.866 0 7 0C3.13401 0 0 3.13401 0 7C0 10.866 3.13401 14 7 14Z" fill="#3C3B6E"/>
<path d="M4.96289 4.9002C5.12746 4.43237 5.4523 4.03788 5.87986 3.7866C6.30742 3.53531 6.81012 3.44346 7.29891 3.5273C7.78771 3.61114 8.23106 3.86527 8.55044 4.24467C8.86983 4.62408 9.04463 5.10427 9.04389 5.6002C9.04389 7.0002 6.94389 7.7002 6.94389 7.7002" stroke="white" stroke-linecap="round" stroke-linejoin="round"/>
<path d="M7 10.5H7.007" stroke="white" stroke-linecap="round" stroke-linejoin="round"/>
</svg>
